<svg xmlns="http://www.w3.org/2000/svg" xmlns:xlink="http://www.w3.org/1999/xlink" xmlns:lucid="lucid" width="1827.56" height="2289.17"><g transform="translate(-220 369.1730411416083)" lucid:page-tab-id="0_0"><path d="M0-1259.2h3676.8v3841.6H0z" fill="#fff"/><path d="M1727.74 90.25V1739.5" fill="none"/><path d="M1727.74 90.25v10m0 10v19.98m0 10v20m0 9.98v20m0 10v20m0 9.98v20m0 10v19.98m0 10v20m0 9.98v20m0 10v19.98m0 10v20m0 9.98v20m0 10v19.98m0 10v20m0 9.98v20m0 10v19.98m0 10v20m0 9.98v20m0 10V640m0 10v19.98m0 10v20m0 10v19.98m0 10v19.98m0 10v20m0 10v19.98m0 10v19.98m0 10v20m0 10v19.98m0 10v19.98m0 10v20m0 9.98v20m0 10v19.98m0 10v20m0 9.98v20m0 10v19.98m0 10v20m0 9.98v20m0 10v19.98m0 10v20m0 9.98v20m0 10v19.98m0 10v20m0 9.98v20m0 10v19.98m0 10v19.98m0 10v20m0 10v19.98m0 10v19.98m0 10v20m0 10v19.98m0 10v19.98m0 10v20m0 10v19.98m0 10v19.98m0 10v20m0 9.98v10M1727.74 90.26v-.5M1727.74 1739.5v.5" stroke="#666" fill="none"/><path d="M1395.75 1739.5h-1v-9.96h1zm0-19.92h-1v-19.92h1zm0-29.88h-1v-19.92h1zm0-29.88h-1v-19.92h1zm0-29.88h-1v-19.92h1zm0-29.88h-1v-19.92h1zm0-29.88h-1v-19.92h1zm0-29.88h-1v-19.92h1zm0-29.88h-1v-19.92h1zm0-29.88h-1v-19.92h1zm0-29.88h-1v-19.92h1zm0-29.88h-1v-19.92h1zm0-29.88h-1v-19.92h1zm0-29.88h-1v-19.92h1zm0-29.88h-1v-19.92h1zm0-29.88h-1v-19.92h1zm0-29.88h-1v-19.92h1zm0-29.88h-1v-19.92h1zm0-29.88h-1v-19.92h1zm0-29.88h-1v-19.92h1zm0-29.88h-1v-19.92h1zm0-29.88h-1v-19.92h1zm0-29.88h-1v-19.92h1zm0-29.88h-1v-19.92h1zm0-29.88h-1v-19.9h1zm0-29.87h-1v-19.92h1zm0-29.88h-1v-19.93h1zm0-29.9h-1v-19.9h1zm0-29.87h-1V892.9h1zm0-29.88h-1v-19.92h1zm0-29.88h-1v-19.92h1zm0-29.88h-1v-19.93h1zm0-29.9h-1v-19.9h1zm0-29.87h-1V743.5h1zm0-29.88h-1v-19.92h1zm0-29.88h-1v-19.92h1zm0-29.88h-1v-19.93h1zm0-29.9h-1v-11.23h1zm0-32.83h-1V594.1h1zm0-26.92h-1v-19.92h1zm0-29.88h-1v-19.92h1zm0-29.88h-1v-19.93h1zm0-29.9h-1v-19.9h1zm0-29.87h-1V444.7h1zm0-29.88h-1v-19.92h1zm0-29.88h-1v-19.92h1zm0-29.88h-1v-19.93h1zm0-29.9h-1v-19.9h1zm0-29.87h-1V295.3h1zm0-29.88h-1v-19.92h1zm0-29.88h-1v-19.92h1zm0-29.88h-1v-19.93h1zm0-29.9h-1v-19.9h1zm0-29.87h-1V145.9h1zm0-29.88h-1v-19.92h1zm0-29.88h-1V96.1h1z" fill="#666"/><path d="M1395.75 96.12h-1v-.5h1zM1395.75 1740h-1v-.5h1z" fill="#666"/><path d="M1028.26 68.35V895.1c0 1.37-1.12 2.5-2.5 2.5h-3.26c-1.38 0-2.5 1.1-2.5 2.5v826.73" fill="none"/><path d="M1028.26 68.35v9.84m0 9.83v19.68m0 9.86v19.68m0 9.84v19.7m0 9.83v19.7m0 9.84v19.68m0 9.84v19.7m0 9.83v19.67m0 9.85v19.68m0 9.84v19.7m0 9.83v19.68m0 9.84v19.68m0 9.84v19.7m0 9.83v19.68m0 9.84v19.7m0 9.83v19.68m0 9.85v19.68m0 9.85v19.7m0 9.83v19.68m0 9.85v19.7m0 9.83v19.7m0 9.83v19.68m0 9.85v19.67m0 9.84v19.7m0 9.84v19.68m0 9.84v19.7m0 9.83v19.67m0 9.85v19.68m0 9.84v9.85l-.73 1.75-1.77.74h-3.26l-1.77.72-.73 1.77v9.83m0 9.84v19.68m0 9.85v19.68m0 9.84v19.7m0 9.83v19.68m0 9.85v19.68m0 9.84v19.7m0 9.83v19.68m0 9.85v19.7m0 9.83v19.7m0 9.83v19.7m0 9.83v19.7m0 9.83v19.68m0 9.85v19.67m0 9.84v19.7m0 9.84v19.68m0 9.85v19.68m0 9.84v19.68m0 9.84v19.68m0 9.85v19.68m0 9.84v19.7m0 9.83v19.68m0 9.84v19.7m0 9.83v19.7m0 9.83v19.68m0 9.84v19.7m0 9.83v19.68m0 9.86v19.68m0 9.84v9.85M1028.26 68.36v-.5M1020 1726.8v.53" stroke="#666" fill="none"/><path d="M620.24 73.17v833.05c0 .06-.06.12-.12.12-.07 0-.12.05-.12.12v833.04" fill="none"/><path d="M620.24 73.17v9.92m0 9.9v19.84m0 9.92v19.84m0 9.9v19.85m0 9.9v19.85m0 9.92v19.83m0 9.92v19.83m0 9.92v19.83m0 9.92v19.83m0 9.92v19.84m0 9.9v19.85m0 9.93v19.83m0 9.92v19.83m0 9.93v19.83m0 9.92v19.83m0 9.93v19.84m0 9.9v19.85m0 9.9v19.85m0 9.92v19.82m0 9.92v19.83m0 9.92v19.82m0 9.92v19.84m0 9.9v19.85m0 9.9v19.85m0 9.92v19.83m0 9.92v19.83m0 9.92v19.83m0 9.92v19.84m0 9.9v9.92l-.04.08-.08.04-.1.03-.02.1v9.9m0 9.92v19.82m0 9.92v19.84m0 9.9v19.85m0 9.9v19.85m0 9.92v19.83m0 9.92v19.83m0 9.92v19.83m0 9.92v19.84m0 9.9v19.84m0 9.9v19.85m0 9.9v19.84m0 9.92v19.83m0 9.9v19.84m0 9.92v19.83m0 9.9v19.85m0 9.9v19.85m0 9.92v19.83m0 9.92v19.83m0 9.92v19.83m0 9.92v19.83m0 9.92v19.84m0 9.9v19.85m0 9.92v19.84m0 9.92v19.83m0 9.93v19.83m0 9.92v19.83m0 9.93v19.84m0 9.9v9.93M620.24 73.2v-.53M620 1739.5v.5" stroke="#666" fill="none"/><path d="M900-20.78c0-4.42 3.58-8 8-8h239.08c4.42 0 8 3.58 8 8v141.24c0 4.42-3.58 8-8 8H908c-4.42 0-8-3.58-8-8z" stroke="#000" stroke-opacity="0" fill="#ff9e56"/><use xlink:href="#a" transform="matrix(1,0,0,1,905,-23.77754279858675) translate(53.19444444444444 77.1111111111111)"/><use xlink:href="#b" transform="matrix(1,0,0,1,905,-23.77754279858675) translate(118.70061728395062 77.1111111111111)"/><path d="M240-150.47h440v20l-10 10H240z" fill="#fe5900"/><path d="M240-150.47h1787.56V1900H240z" stroke="#666" fill="none"/><path d="M680-150.47v20l-10 10H240" stroke="#666" fill="#fe5900"/><use xlink:href="#c" transform="matrix(1,0,0,1,248,-150.46713743292253) translate(0 18.11111111111111)"/><path d="M653.9-346.67c0-1.38 1.13-2.5 2.5-2.5h850.78c1.38 0 2.5 1.12 2.5 2.5v55.17c0 1.38-1.12 2.5-2.5 2.5H656.4c-1.37 0-2.5-1.12-2.5-2.5z" stroke="#000" stroke-opacity="0" stroke-width="2" fill="#fff" fill-opacity="0"/><use xlink:href="#d" transform="matrix(1,0,0,1,653.907240692884,-349.1730411416083) translate(274.25925925925924 35.833333333333336)"/><use xlink:href="#e" transform="matrix(1,0,0,1,653.907240692884,-349.1730411416083) translate(407.3703703703704 35.833333333333336)"/><path d="M1750.5-53.27c0 14.77-11.97 26.73-26.73 26.73s-26.73-11.96-26.73-26.73c0-14.76 11.97-26.73 26.73-26.73s26.73 11.97 26.73 26.73z" stroke="#666" stroke-width="2" fill-opacity="0"/><path d="M1660-72c0-4.42 3.58-8 8-8h111.54c4.42 0 8 3.58 8 8v197.85c0 4.42-3.58 8-8 8H1668c-4.42 0-8-3.58-8-8z" fill="none"/><path d="M1723.77-26.54V40.3c0 4.43 2.14 10.88 4.78 14.43l59 79.12m-63.78-85.54L1660 133.86M1660 .2h127.54" stroke="#666" stroke-width="2" fill="none"/><path d="M1600 128c0-4.42 3.58-8 8-8h224c4.42 0 8 3.58 8 8v44c0 4.42-3.58 8-8 8h-224c-4.42 0-8-3.58-8-8z" stroke="#000" stroke-opacity="0" fill="#fff" fill-opacity="0"/><use xlink:href="#f" transform="matrix(1,0,0,1,1605,125.00000000000003) translate(91.25617283950618 28.11111111111111)"/><use xlink:href="#g" transform="matrix(1,0,0,1,1605,125.00000000000003) translate(130.10185185185185 28.11111111111111)"/><path d="M642.53 248.12h332.04M642.55 248.12h-.52" stroke="#666" fill="none"/><path d="M989.34 248.12l-14.27 4.63v-9.27z" stroke="#666" fill="#666"/><use xlink:href="#h" transform="matrix(1,0,0,1,645.8174891371939,225.4492378228191) translate(0.0049999999999954525 12.444444444444446)"/><use xlink:href="#i" transform="matrix(1,0,0,1,645.8174891371939,225.4492378228191) translate(210.22104938271605 12.444444444444446)"/><use xlink:href="#j" transform="matrix(1,0,0,1,645.8174891371939,225.4492378228191) translate(277.54203703703706 12.444444444444446)"/><path d="M1014.84 168c0-4.42 3.58-8 8-8h9.16c4.42 0 8 3.58 8 8v764c0 4.42-3.58 8-8 8h-9.16c-4.42 0-8-3.58-8-8zM1720 588c0-4.42 3.58-8 8-8h8.33c4.4 0 8 3.58 8 8v326.15c0 4.42-3.6 8-8 8H1728c-4.42 0-8-3.58-8-8z" stroke="#000" stroke-opacity="0" fill="#ffb781"/><path d="M504.88 126.42c0-4.42 3.58-8 8-8h224c4.42 0 8 3.58 8 8v44c0 4.4-3.58 8-8 8h-224c-4.42 0-8-3.6-8-8z" stroke="#000" stroke-opacity="0" fill="#fff" fill-opacity="0"/><use xlink:href="#f" transform="matrix(1,0,0,1,509.8779294197402,123.41578462851021) translate(91.25617283950618 28.11111111111111)"/><use xlink:href="#k" transform="matrix(1,0,0,1,509.8779294197402,123.41578462851021) translate(130.10185185185185 28.11111111111111)"/><path d="M605.75 168c0-4.42 3.58-8 8-8H636c4.42 0 8 3.58 8 8v1524c0 4.42-3.58 8-8 8h-22.25c-4.42 0-8-3.58-8-8z" stroke="#000" stroke-opacity="0" fill="#ffb781"/><path d="M1041 269.47h39v18.06h-21.5" stroke="#000" stroke-width="2" fill="none"/><path d="M1041.03 270.47H1040v-2h1.03z"/><path d="M1043.24 287.53l14.26-4.64v9.27z" stroke="#000" stroke-width="2"/><use xlink:href="#l" transform="matrix(1,0,0,1,1088.0000002226225,267.69933543619965) translate(0 14.4)"/><use xlink:href="#m" transform="matrix(1,0,0,1,1088.0000002226225,267.69933543619965) translate(5 14.4)"/><path d="M1041 389.33h39v64.04h-21.5" stroke="#000" stroke-width="2" fill="none"/><path d="M1041.03 390.33H1040v-2h1.03z"/><path d="M1043.24 453.37l14.26-4.64V458z" stroke="#000" stroke-width="2"/><use xlink:href="#n" transform="matrix(1,0,0,1,1088.0000002226225,410.55021030452633) translate(0 14.4)"/><path d="M416.52 480h100v20l-10 10h-90z" fill="#fe5900"/><path d="M516.52 480v20l-10 10h-90" stroke="#000" stroke-width="2" fill="none"/><path d="M416.52 480H1870.4v562.15H416.52zM416.52 580h20m15 0h20m15 0h20m15 0h20m15 0h20m15 0h20m15 0h20m15 0h20m15 0h20m15 0h20m15 0h20m15 0h20m15 0h20m15 0h20m15 0h20m15 0h20m15 0h20m15 0h20m15 0h20m15 0h20m15 0h20m15 0h20m15 0h20m15 0h20m15 0h20m15 0h20m15 0h20m15 0h20m15 0h20m15 0h20m15 0h20m15 0h20m15 0h20m15 0h20m15 0h20m15 0h20m15 0h20m15 0h20m15 0h20m15 0h20m15 0h20m15 0h18.88" stroke="#000" stroke-width="2" fill="none"/><use xlink:href="#o" transform="matrix(1,0,0,1,424.52122953470314,480) translate(0 18.6)"/><use xlink:href="#p" transform="matrix(1,0,0,1,428.52122953470314,518) translate(0 18.6)"/><use xlink:href="#q" transform="matrix(1,0,0,1,428.52122953470314,518) translate(41.95 18.6)"/><use xlink:href="#r" transform="matrix(1,0,0,1,428.52122953470314,518) translate(80.95 18.6)"/><use xlink:href="#s" transform="matrix(1,0,0,1,428.52122953470314,588) translate(0 18.6)"/><use xlink:href="#t" transform="matrix(1,0,0,1,428.52122953470314,588) translate(60.35 18.6)"/><use xlink:href="#u" transform="matrix(1,0,0,1,428.52122953470314,588) translate(99.35 18.6)"/><path d="M1013.84 532.18H662.5" fill="none"/><path d="M1013.84 532.18h-19.52m-19.52 0h-39.04m-19.52 0H877.2m-19.5 0h-39.05m-19.52 0H760.1m-19.52 0h-39.04m-19.52 0H662.5" stroke="#000" stroke-width="2" fill="none"/><path d="M1014.84 533.18h-1.03v-2h1.04z"/><path d="M647.24 532.18l14.26-4.63v9.27z" stroke="#000" stroke-width="2"/><use xlink:href="#v" transform="matrix(1,0,0,1,776.9944778205586,506.5827858746496) translate(0 14.4)"/><path d="M1269.93-20.78c0-4.42 3.58-8 8-8H1517c4.43 0 8 3.58 8 8v141.24c0 4.42-3.57 8-8 8h-239.07c-4.42 0-8-3.58-8-8z" stroke="#000" stroke-opacity="0" fill="#ff9e56"/><use xlink:href="#w" transform="matrix(1,0,0,1,1274.9261452970554,-23.77754279858675) translate(73.02777777777777 77.1111111111111)"/><use xlink:href="#x" transform="matrix(1,0,0,1,1274.9261452970554,-23.77754279858675) translate(111.78703703703704 77.1111111111111)"/><path d="M1081 607.05h-22.5v-2h20.5v-9.8h-38.84v-2H1081z"/><path d="M1040.2 595.26h-1.04v-2h1.03zM1057.5 610.7l-14.26-4.65 14.26-4.63z"/><path d="M1058.5 612.07l-18.5-6.02 18.5-6zm-12.03-6.02l10.03 3.26v-6.5z"/><use xlink:href="#y" transform="matrix(1,0,0,1,1061.3825549503313,578.9046699650033) translate(0 14.4)"/><use xlink:href="#z" transform="matrix(1,0,0,1,1061.3825549503313,578.9046699650033) translate(329.65 14.4)"/><path d="M1719 693.1h-660.5" stroke="#000" stroke-width="2" fill="none"/><path d="M1720 694.1h-1.03v-2h1.03z"/><path d="M1043.24 693.1l14.26-4.64v9.27z" stroke="#000" stroke-width="2"/><use xlink:href="#A" transform="matrix(1,0,0,1,1138.5606247799803,667.4952653701363) translate(0 14.4)"/><use xlink:href="#B" transform="matrix(1,0,0,1,1138.5606247799803,667.4952653701363) translate(253.85 14.4)"/><path d="M460 640h100v20l-10 10h-90z" fill="#fe5900"/><path d="M560 640v20l-10 10h-90" stroke="#000" stroke-width="2" fill="none"/><path d="M460 640h1357.86v380H460zM460 830h20m15 0h20m15 0h20m15 0h20m15 0h20m15 0h20m15 0h20m15 0h20m15 0h20m15 0h20m15 0h20m15 0h20m15 0h20m15 0h20m15 0h20m15 0h20m15 0h20m15 0h20m15 0h20m15 0h20m15 0h20m15 0h20m15 0h20m15 0h20m15 0h20m15 0h20m15 0h20m15 0h20m15 0h20m15 0h20m15 0h20m15 0h20m15 0h20m15 0h20m15 0h20m15 0h20m15 0h20m15 0h20m15 0h20" stroke="#000" stroke-width="2" fill="none"/><use xlink:href="#o" transform="matrix(1,0,0,1,468,640) translate(0 18.6)"/><use xlink:href="#C" transform="matrix(1,0,0,1,472,678) translate(0 18.6)"/><use xlink:href="#D" transform="matrix(1,0,0,1,472,678) translate(65 18.6)"/><use xlink:href="#E" transform="matrix(1,0,0,1,472,838) translate(0 18.6)"/><use xlink:href="#F" transform="matrix(1,0,0,1,472,838) translate(60.900000000000006 18.6)"/><path d="M1041 714.44h39v47.62h-21.5" stroke="#000" stroke-width="2" fill="none"/><path d="M1041.03 715.44H1040v-2h1.03z"/><path d="M1043.24 762.06l14.26-4.64v9.27z" stroke="#000" stroke-width="2"/><use xlink:href="#G" transform="matrix(1,0,0,1,1088.0000002226225,727.4492775411591) translate(0 14.4)"/><path d="M1013.84 785.05H662.52" fill="none"/><path d="M1013.84 785.05h-19.52m-19.52 0h-39.04m-19.52 0H877.2m-19.5 0h-39.05m-19.52 0H760.1m-19.52 0h-39.04m-19.52 0h-19.5" stroke="#000" stroke-width="2" fill="none"/><path d="M1014.84 786.05h-1.03v-2h1.04z"/><path d="M647.24 785.05l14.27-4.64v9.28z" stroke="#000" stroke-width="2"/><use xlink:href="#v" transform="matrix(1,0,0,1,776.9944778205586,759.4452506085601) translate(0 14.4)"/><path d="M1041 806.4h660.5" fill="none"/><path d="M1041 806.4h20.02m20 0h40.04m20.02 0h40.03m20.02 0h40.03m20.02 0h40.03m20 0h40.04m20.02 0h40.03m20 0h40.03m20.02 0h40.03m20 0h40.04m20.02 0h40.03m20 0h20.03" stroke="#000" stroke-width="2" fill="none"/><path d="M1041.03 807.4H1040v-2h1.03z"/><path d="M1716.76 806.4l-14.26 4.63v-9.27z" stroke="#000" stroke-width="2"/><use xlink:href="#v" transform="matrix(1,0,0,1,1327.5749670668463,780.7907866983327) translate(0 14.4)"/><path d="M1014 568c0-4.42 3.58-8 8-8h9.16c4.42 0 8 3.58 8 8v484c0 4.42-3.58 8-8 8H1022c-4.42 0-8-3.58-8-8zM1720 888c0-4.42 3.58-8 8-8h8.33c4.4 0 8 3.58 8 8v326.15c0 4.42-3.6 8-8 8H1728c-4.42 0-8-3.58-8-8z" stroke="#000" stroke-opacity="0" fill="#ffb781"/><path d="M1719 899.82h-660.5" stroke="#000" stroke-width="2" fill="none"/><path d="M1720 900.82h-1.03v-2h1.03z"/><path d="M1043.24 899.82l14.26-4.63v9.26z" stroke="#000" stroke-width="2"/><use xlink:href="#H" transform="matrix(1,0,0,1,1219.6750001113112,874.2210460584129) translate(0 14.4)"/><use xlink:href="#I" transform="matrix(1,0,0,1,1219.6750001113112,874.2210460584129) translate(239.75 14.4)"/><path d="M1013 950H662.5" fill="none"/><path d="M1013 950h-19.47m-19.48 0H935.1m-19.46 0H876.7m-19.48 0h-38.94m-19.47 0h-38.94m-19.47 0h-38.95m-19.47 0H662.5" stroke="#000" stroke-width="2" fill="none"/><path d="M1014 951h-1.03v-2h1.03z"/><path d="M647.24 950l14.26-4.64v9.28z" stroke="#000" stroke-width="2"/><use xlink:href="#J" transform="matrix(1,0,0,1,764.5755912612494,924.4000000000001) translate(0 14.4)"/><use xlink:href="#K" transform="matrix(1,0,0,1,764.5755912612494,924.4000000000001) translate(55.900000000000006 14.4)"/><path d="M645 1124.22h716.5" stroke="#000" stroke-width="2" fill="none"/><path d="M645.03 1125.22H644v-2h1.03z"/><path d="M1376.76 1124.22l-14.26 4.64v-9.27z" stroke="#000" stroke-width="2"/><use xlink:href="#L" transform="matrix(1,0,0,1,944.1014202092474,1098.6244396359632) translate(0 14.4)"/><path d="M1379 1173.24H662.5" fill="none"/><path d="M1379 1173.24h-19.9m-19.9 0h-39.8m-19.9 0h-39.82m-19.9 0h-39.8m-19.9 0h-39.8m-19.92 0h-39.8m-19.9 0h-39.8m-19.9 0h-39.82m-19.9 0h-39.8m-19.9 0h-39.8m-19.92 0h-39.8m-19.9 0h-39.8m-19.9 0H662.5M1378.97 1173.24h1.03" stroke="#000" stroke-width="2" fill="none"/><path d="M647.24 1173.24l14.26-4.63v9.28z" stroke="#000" stroke-width="2"/><use xlink:href="#M" transform="matrix(1,0,0,1,970.5264202092472,1147.640880553926) translate(0 14.4)"/><path d="M645 1210h716.5" stroke="#000" stroke-width="2" fill="none"/><path d="M645.03 1211H644v-2h1.03z"/><path d="M1376.76 1210l-14.26 4.64v-9.27z" stroke="#000" stroke-width="2"/><use xlink:href="#N" transform="matrix(1,0,0,1,859.7264202092473,1184.4032112423988) translate(0 14.4)"/><use xlink:href="#O" transform="matrix(1,0,0,1,859.7264202092473,1184.4032112423988) translate(156.9 14.4)"/><use xlink:href="#P" transform="matrix(1,0,0,1,859.7264202092473,1184.4032112423988) translate(232.75 14.4)"/><path d="M416.52 1060h100v20l-10 10h-90z" fill="#fe5900"/><path d="M416.52 1060h1401.34v340H416.52z" stroke="#000" stroke-width="2" fill="none"/><path d="M516.52 1060v20l-10 10h-90" stroke="#000" stroke-width="2" fill="#fe5900"/><use xlink:href="#Q" transform="matrix(1,0,0,1,424.52122953470314,1060) translate(0 18.6)"/><use xlink:href="#R" transform="matrix(1,0,0,1,428.52122953470314,1098) translate(0 18.6)"/><use xlink:href="#q" transform="matrix(1,0,0,1,428.52122953470314,1098) translate(42.900000000000006 18.6)"/><use xlink:href="#S" transform="matrix(1,0,0,1,428.52122953470314,1098) translate(81.9 18.6)"/><path d="M1720 1045.85c0-4.42 3.58-8 8-8h8.33c4.4 0 8 3.58 8 8V1372c0 4.42-3.6 8-8 8H1728c-4.42 0-8-3.58-8-8z" stroke="#000" stroke-opacity="0" fill="#ffb781"/><path d="M400 308c0-4.42 3.58-8 8-8h84c4.42 0 8 3.58 8 8v4.93c0 3.9-2.24 9.3-5 12.07-2.76 2.76-8.17 5-12.07 5H408c-4.42 0-8-3.58-8-8z" fill="#fe5900"/><path d="M500 300v20l-10 10h-90" stroke="#666" fill="none"/><path d="M400 308c0-4.42 3.58-8 8-8h1490.42c4.4 0 8 3.58 8 8v1364c0 4.42-3.6 8-8 8H408c-4.42 0-8-3.58-8-8zM400 1505h20m15 0h20m15 0h20m15 0h20m15 0h20m15 0h20m15 0h20m15 0h20m15 0h20m15 0h20m15 0h20m15 0h20m15 0h20m15 0h20m15 0h20m15 0h20m15 0h20m15 0h20m15 0h20m15 0h20m15 0h20m15 0h20m15 0h20m15 0h20m15 0h20m15 0h20m15 0h20m15 0h20m15 0h20m15 0h20m15 0h20m15 0h20m15 0h20m15 0h20m15 0h20m15 0h20m15 0h20m15 0h20m15 0h20m15 0h20m15 0h20m15 0h20m15 0h20m15 0h1.42" stroke="#666" fill="none"/><use xlink:href="#T" transform="matrix(1,0,0,1,408,300) translate(30.67283950617284 18.11111111111111)"/><use xlink:href="#U" transform="matrix(1,0,0,1,412,338) translate(10.898148148148152 18.11111111111111)"/><use xlink:href="#V" transform="matrix(1,0,0,1,412,338) translate(49.65740740740741 18.11111111111111)"/><use xlink:href="#W" transform="matrix(1,0,0,1,412,338) translate(85.86728395061729 18.11111111111111)"/><use xlink:href="#X" transform="matrix(1,0,0,1,412,338) translate(103.97222222222223 18.11111111111111)"/><use xlink:href="#Y" transform="matrix(1,0,0,1,412,338) translate(135.86111111111111 18.11111111111111)"/><use xlink:href="#Z" transform="matrix(1,0,0,1,412,1513) translate(0 18.6)"/><path d="M1719 1242.17h-296.17" stroke="#000" stroke-width="2" fill="none"/><path d="M1720 1243.17h-1.03v-2h1.03z"/><path d="M1407.56 1242.17l14.27-4.64v9.28z" stroke="#000" stroke-width="2"/><use xlink:href="#L" transform="matrix(1,0,0,1,1494.2630559999998,1216.570250594812) translate(0 14.4)"/><path d="M1405.33 1289.65h296.17" fill="none"/><path d="M1405.33 1289.65h19.74m19.75 0h39.5m19.73 0h39.5m19.73 0h39.5m19.74 0h39.5m19.73 0h19.75M1405.35 1289.65h-1.02" stroke="#000" stroke-width="2" fill="none"/><path d="M1716.76 1289.65l-14.26 4.64V1285z" stroke="#000" stroke-width="2"/><g><use xlink:href="#M" transform="matrix(1,0,0,1,1520.688056000011,1264.0549275232809) translate(0 14.4)"/></g><path d="M1719 1340.2h-296.17" stroke="#000" stroke-width="2" fill="none"/><path d="M1720 1341.2h-1.03v-2h1.03z"/><path d="M1407.56 1340.2l14.27-4.63v9.27z" stroke="#000" stroke-width="2"/><g><use xlink:href="#N" transform="matrix(1,0,0,1,1414.6365152037117,1314.6031324307387) translate(0 14.4)"/><use xlink:href="#aa" transform="matrix(1,0,0,1,1414.6365152037117,1314.6031324307387) translate(156.9 14.4)"/><use xlink:href="#z" transform="matrix(1,0,0,1,1414.6365152037117,1314.6031324307387) translate(232.75 14.4)"/></g><path d="M1720 1168c0-4.42 3.58-8 8-8h8.33c4.4 0 8 3.58 8 8v326.15c0 4.42-3.6 8-8 8H1728c-4.42 0-8-3.58-8-8zM1014 1528c0-4.42 3.58-8 8-8h9.16c4.42 0 8 3.58 8 8v164c0 4.42-3.58 8-8 8H1022c-4.42 0-8-3.58-8-8zM1380 1068c0-4.42 3.58-8 8-8h9.16c4.42 0 8 3.58 8 8v426.15c0 4.42-3.58 8-8 8H1388c-4.42 0-8-3.58-8-8z" stroke="#000" stroke-opacity="0" fill="#ffb781"/><path d="M1013 1567.67H662.5" fill="none"/><path d="M1013 1567.67h-19.47m-19.48 0H935.1m-19.46 0H876.7m-19.48 0h-38.94m-19.47 0h-38.94m-19.47 0h-38.95m-19.47 0H662.5" stroke="#000" stroke-width="2" fill="none"/><path d="M1014 1568.67h-1.03v-2h1.03z"/><path d="M647.24 1567.67l14.27-4.64v9.28z" stroke="#000" stroke-width="2"/><g><use xlink:href="#ab" transform="matrix(1,0,0,1,722.1255912612494,1542.070053565662) translate(0 14.4)"/><use xlink:href="#ac" transform="matrix(1,0,0,1,722.1255912612494,1542.070053565662) translate(42.95 14.4)"/><use xlink:href="#ad" transform="matrix(1,0,0,1,722.1255912612494,1542.070053565662) translate(72.95 14.4)"/><use xlink:href="#K" transform="matrix(1,0,0,1,722.1255912612494,1542.070053565662) translate(140.8 14.4)"/></g><path d="M650.7-74.2c0 14.26-11.57 25.8-25.82 25.8-14.26 0-25.8-11.54-25.8-25.8 0-14.25 11.54-25.8 25.8-25.8 14.25 0 25.8 11.55 25.8 25.8z" stroke="#666" stroke-width="2" fill-opacity="0"/><path d="M561.1-92c0-4.42 3.6-8 8-8h111.55c4.42 0 8 3.58 8 8V98.46c0 4.42-3.58 8-8 8H569.1c-4.4 0-8-3.58-8-8z" fill="none"/><path d="M624.88-48.4v64.27c0 4.42 2.2 10.84 4.9 14.34l58.87 76.26m-63.77-82.6l-63.77 82.6m0-129.04h127.55" stroke="#666" stroke-width="2" fill="none"/><path d="M745.88 148.42h55.62" stroke="#000" stroke-width="2" fill="none"/><path d="M745.9 149.42h-1.02v-2h1.02z"/><path d="M816.76 148.42l-14.26 4.63v-9.27z" stroke="#000" stroke-width="2"/><path d="M1324.63 622.87h-284.47v-2h284.47zm376.87 0h-266.97v-2h266.97z"/><path d="M1040.2 622.87h-1.04v-2h1.03zM1716.76 621.87l-14.26 4.63v-9.27z"/><path d="M1720 621.87l-18.5 6v-12.02zm-16.5 3.25l10.03-3.25-10.03-3.26z"/><g><use xlink:href="#ab" transform="matrix(1,0,0,1,1324.631113552002,611.0654924753978) translate(0 14.4)"/><use xlink:href="#ae" transform="matrix(1,0,0,1,1324.631113552002,611.0654924753978) translate(42.95 14.4)"/></g><path d="M1380 1068c0-4.42 3.58-8 8-8h9.16c4.42 0 8 3.58 8 8v426.15c0 4.42-3.58 8-8 8H1388c-4.42 0-8-3.58-8-8z" stroke="#000" stroke-opacity="0" fill="#ffb781"/><defs><path d="M240-174c0 40-23 61-54 70L253 0h-59l-57-94H76V0H24v-248c93 4 217-23 216 74zM76-134c48-2 112 12 112-38 0-48-66-32-112-35v73" id="af"/><path d="M185-48c-13 30-37 53-82 52C43 2 14-33 14-96s30-98 90-98c62 0 83 45 84 108H66c0 31 8 55 39 56 18 0 30-7 34-22zm-45-69c5-46-57-63-70-21-2 6-4 13-4 21h74" id="ag"/><path d="M84 4C32 4 15-41 15-95c0-55 18-99 73-99 29 0 47 12 58 34l2-30h48l-1 265h-49V-32C136-9 114 4 84 4zm21-34c32 0 41-29 41-66 0-36-9-64-40-64-33 0-39 30-40 65 0 43 13 65 39 65" id="ah"/><path d="M85 4C-2 5 27-109 22-190h50c7 57-23 150 33 157 60-5 35-97 40-157h50l1 190h-47c-2-12 1-28-3-38-12 25-28 42-61 42" id="ai"/><path d="M137-138c1-29-70-34-71-4 15 46 118 7 119 86 1 83-164 76-172 9l43-7c4 19 20 25 44 25 33 8 57-30 24-41C81-84 22-81 20-136c-2-80 154-74 161-7" id="aj"/><path d="M115-3C79 11 28 4 28-45v-112H4v-33h27l15-45h31v45h36v33H77v99c-1 23 16 31 38 25v30" id="ak"/><g id="a"><use transform="matrix(0.04320987654320988,0,0,0.04320987654320988,0,0)" xlink:href="#af"/><use transform="matrix(0.04320987654320988,0,0,0.04320987654320988,11.19135802469136,0)" xlink:href="#ag"/><use transform="matrix(0.04320987654320988,0,0,0.04320987654320988,19.833333333333336,0)" xlink:href="#ah"/><use transform="matrix(0.04320987654320988,0,0,0.04320987654320988,29.296296296296298,0)" xlink:href="#ai"/><use transform="matrix(0.04320987654320988,0,0,0.04320987654320988,38.75925925925926,0)" xlink:href="#ag"/><use transform="matrix(0.04320987654320988,0,0,0.04320987654320988,47.40123456790123,0)" xlink:href="#aj"/><use transform="matrix(0.04320987654320988,0,0,0.04320987654320988,56.04320987654321,0)" xlink:href="#ak"/></g><path d="M67-125c0 53 21 87 73 88 37 1 54-22 65-47l45 17C233-25 199 4 140 4 58 4 20-42 15-125 8-235 124-281 211-232c18 10 29 29 36 50l-46 12c-8-25-30-41-62-41-52 0-71 34-72 86" id="al"/><path d="M110-194c64 0 96 36 96 99 0 64-35 99-97 99-61 0-95-36-95-99 0-62 34-99 96-99zm-1 164c35 0 45-28 45-65 0-40-10-65-43-65-34 0-45 26-45 65 0 36 10 65 43 65" id="am"/><path d="M135-194c87-1 58 113 63 194h-50c-7-57 23-157-34-157-59 0-34 97-39 157H25l-1-190h47c2 12-1 28 3 38 12-26 28-41 61-42" id="an"/><path d="M135-150c-39-12-60 13-60 57V0H25l-1-190h47c2 13-1 29 3 40 6-28 27-53 61-41v41" id="ao"/><path d="M25 0v-261h50V0H25" id="ap"/><g id="b"><use transform="matrix(0.04320987654320988,0,0,0.04320987654320988,0,0)" xlink:href="#al"/><use transform="matrix(0.04320987654320988,0,0,0.04320987654320988,11.19135802469136,0)" xlink:href="#am"/><use transform="matrix(0.04320987654320988,0,0,0.04320987654320988,20.654320987654323,0)" xlink:href="#an"/><use transform="matrix(0.04320987654320988,0,0,0.04320987654320988,30.11728395061729,0)" xlink:href="#ak"/><use transform="matrix(0.04320987654320988,0,0,0.04320987654320988,35.25925925925926,0)" xlink:href="#ao"/><use transform="matrix(0.04320987654320988,0,0,0.04320987654320988,41.308641975308646,0)" xlink:href="#am"/><use transform="matrix(0.04320987654320988,0,0,0.04320987654320988,50.77160493827161,0)" xlink:href="#ap"/><use transform="matrix(0.04320987654320988,0,0,0.04320987654320988,55.092592592592595,0)" xlink:href="#ap"/><use transform="matrix(0.04320987654320988,0,0,0.04320987654320988,59.41358024691359,0)" xlink:href="#ag"/><use transform="matrix(0.04320987654320988,0,0,0.04320987654320988,68.05555555555556,0)" xlink:href="#ao"/></g><path d="M114-157C55-157 80-60 75 0H25v-261h50l-1 109c12-26 28-41 61-42 86-1 58 113 63 194h-50c-7-57 23-157-34-157" id="aq"/><path d="M133-34C117-15 103 5 69 4 32 3 11-16 11-54c-1-60 55-63 116-61 1-26-3-47-28-47-18 1-26 9-28 27l-52-2c7-38 36-58 82-57s74 22 75 68l1 82c-1 14 12 18 25 15v27c-30 8-71 5-69-32zm-48 3c29 0 43-24 42-57-32 0-66-3-65 30 0 17 8 27 23 27" id="ar"/><g id="c"><use transform="matrix(0.04320987654320988,0,0,0.04320987654320988,0,0)" xlink:href="#al"/><use transform="matrix(0.04320987654320988,0,0,0.04320987654320988,11.19135802469136,0)" xlink:href="#aq"/><use transform="matrix(0.04320987654320988,0,0,0.04320987654320988,20.654320987654323,0)" xlink:href="#ar"/><use transform="matrix(0.04320987654320988,0,0,0.04320987654320988,29.296296296296298,0)" xlink:href="#ak"/></g><path d="M169-182c-1-43-94-46-97-3 18 66 151 10 154 114 3 95-165 93-204 36-6-8-10-19-12-30l50-8c3 46 112 56 116 5-17-69-150-10-154-114-4-87 153-88 188-35 5 8 8 18 10 28" id="as"/><path d="M190-63c-7 42-38 67-86 67-59 0-84-38-90-98-12-110 154-137 174-36l-49 2c-2-19-15-32-35-32-30 0-35 28-38 64-6 74 65 87 74 30" id="at"/><g id="d"><use transform="matrix(0.07407407407407408,0,0,0.07407407407407408,0,0)" xlink:href="#as"/><use transform="matrix(0.07407407407407408,0,0,0.07407407407407408,17.77777777777778,0)" xlink:href="#ag"/><use transform="matrix(0.07407407407407408,0,0,0.07407407407407408,32.592592592592595,0)" xlink:href="#ah"/><use transform="matrix(0.07407407407407408,0,0,0.07407407407407408,48.814814814814824,0)" xlink:href="#ai"/><use transform="matrix(0.07407407407407408,0,0,0.07407407407407408,65.03703703703705,0)" xlink:href="#ag"/><use transform="matrix(0.07407407407407408,0,0,0.07407407407407408,79.85185185185188,0)" xlink:href="#an"/><use transform="matrix(0.07407407407407408,0,0,0.07407407407407408,96.0740740740741,0)" xlink:href="#at"/><use transform="matrix(0.07407407407407408,0,0,0.07407407407407408,110.88888888888891,0)" xlink:href="#ag"/></g><path d="M24-248c120-7 223 5 221 122C244-46 201 0 124 0H24v-248zM76-40c74 7 117-18 117-86 0-67-45-88-117-82v168" id="au"/><path d="M25-224v-37h50v37H25zM25 0v-190h50V0H25" id="av"/><path d="M195-6C206 82 75 100 31 46c-4-6-6-13-8-21l49-6c3 16 16 24 34 25 40 0 42-37 40-79-11 22-30 35-61 35-53 0-70-43-70-97 0-56 18-96 73-97 30 0 46 14 59 34l2-30h47zm-90-29c32 0 41-27 41-63 0-35-9-62-40-62-32 0-39 29-40 63 0 36 9 62 39 62" id="aw"/><path d="M220-157c-53 9-28 100-34 157h-49v-107c1-27-5-49-29-50C55-147 81-57 75 0H25l-1-190h47c2 12-1 28 3 38 10-53 101-56 108 0 13-22 24-43 59-42 82 1 51 116 57 194h-49v-107c-1-25-5-48-29-50" id="ax"/><path d="M14-72v-43h91v43H14" id="ay"/><g id="e"><use transform="matrix(0.07407407407407408,0,0,0.07407407407407408,0,0)" xlink:href="#au"/><use transform="matrix(0.07407407407407408,0,0,0.07407407407407408,19.185185185185187,0)" xlink:href="#av"/><use transform="matrix(0.07407407407407408,0,0,0.07407407407407408,26.592592592592595,0)" xlink:href="#ar"/><use transform="matrix(0.07407407407407408,0,0,0.07407407407407408,41.40740740740741,0)" xlink:href="#aw"/><use transform="matrix(0.07407407407407408,0,0,0.07407407407407408,57.62962962962964,0)" xlink:href="#ao"/><use transform="matrix(0.07407407407407408,0,0,0.07407407407407408,68,0)" xlink:href="#ar"/><use transform="matrix(0.07407407407407408,0,0,0.07407407407407408,82.81481481481481,0)" xlink:href="#ax"/><use transform="matrix(0.07407407407407408,0,0,0.07407407407407408,106.51851851851852,0)" xlink:href="#ay"/><use transform="matrix(0.07407407407407408,0,0,0.07407407407407408,115.33333333333334,0)" xlink:href="#al"/><use transform="matrix(0.07407407407407408,0,0,0.07407407407407408,134.51851851851853,0)" xlink:href="#aq"/><use transform="matrix(0.07407407407407408,0,0,0.07407407407407408,150.74074074074076,0)" xlink:href="#ar"/><use transform="matrix(0.07407407407407408,0,0,0.07407407407407408,165.55555555555557,0)" xlink:href="#ak"/></g><path d="M238-95c0 69-44 99-111 99C63 4 22-25 22-93v-155h51v151c-1 38 19 59 55 60 90 1 49-130 58-211h52v153" id="az"/><g id="f"><use transform="matrix(0.04320987654320988,0,0,0.04320987654320988,0,0)" xlink:href="#az"/><use transform="matrix(0.04320987654320988,0,0,0.04320987654320988,11.19135802469136,0)" xlink:href="#aj"/><use transform="matrix(0.04320987654320988,0,0,0.04320987654320988,19.833333333333336,0)" xlink:href="#ag"/><use transform="matrix(0.04320987654320988,0,0,0.04320987654320988,28.47530864197531,0)" xlink:href="#ao"/></g><path d="M182-182c0 78-84 86-111 141h115V0H12c-6-101 99-100 120-180 1-22-12-31-33-32-23 0-32 14-35 34l-49-3c5-45 32-70 84-70 51 0 83 22 83 69" id="aA"/><use transform="matrix(0.04320987654320988,0,0,0.04320987654320988,0,0)" xlink:href="#aA" id="g"/><path d="M88-194c31-1 46 15 58 34l-1-101h50l1 261h-48c-2-10 0-23-3-31C134-8 116 4 84 4 32 4 16-41 15-95c0-56 19-97 73-99zm17 164c33 0 40-30 41-66 1-37-9-64-41-64s-38 30-39 65c0 43 13 65 39 65" id="aB"/><path d="M67-93c0 74 22 123 53 168H70C40 30 18-18 18-93s22-123 52-168h50c-32 44-53 94-53 168" id="aC"/><path d="M24 0v-248h52v208h133V0H24" id="aD"/><path d="M76-54c-1 42 2 86-19 110H24C36 42 46 24 48 0H25v-54h51" id="aE"/><g id="h"><use transform="matrix(0.04320987654320988,0,0,0.04320987654320988,0,0)" xlink:href="#aj"/><use transform="matrix(0.04320987654320988,0,0,0.04320987654320988,8.641975308641976,0)" xlink:href="#ag"/><use transform="matrix(0.04320987654320988,0,0,0.04320987654320988,17.283950617283953,0)" xlink:href="#an"/><use transform="matrix(0.04320987654320988,0,0,0.04320987654320988,26.746913580246915,0)" xlink:href="#aB"/><use transform="matrix(0.04320987654320988,0,0,0.04320987654320988,36.20987654320988,0)" xlink:href="#al"/><use transform="matrix(0.04320987654320988,0,0,0.04320987654320988,47.40123456790124,0)" xlink:href="#aq"/><use transform="matrix(0.04320987654320988,0,0,0.04320987654320988,56.8641975308642,0)" xlink:href="#ar"/><use transform="matrix(0.04320987654320988,0,0,0.04320987654320988,65.50617283950618,0)" xlink:href="#ak"/><use transform="matrix(0.04320987654320988,0,0,0.04320987654320988,70.64814814814815,0)" xlink:href="#af"/><use transform="matrix(0.04320987654320988,0,0,0.04320987654320988,81.8395061728395,0)" xlink:href="#ag"/><use transform="matrix(0.04320987654320988,0,0,0.04320987654320988,90.48148148148147,0)" xlink:href="#ah"/><use transform="matrix(0.04320987654320988,0,0,0.04320987654320988,99.94444444444443,0)" xlink:href="#ai"/><use transform="matrix(0.04320987654320988,0,0,0.04320987654320988,109.4074074074074,0)" xlink:href="#ag"/><use transform="matrix(0.04320987654320988,0,0,0.04320987654320988,118.04938271604938,0)" xlink:href="#aj"/><use transform="matrix(0.04320987654320988,0,0,0.04320987654320988,126.69135802469135,0)" xlink:href="#ak"/><use transform="matrix(0.04320987654320988,0,0,0.04320987654320988,131.83333333333334,0)" xlink:href="#aC"/><use transform="matrix(0.04320987654320988,0,0,0.04320987654320988,136.97530864197532,0)" xlink:href="#aD"/><use transform="matrix(0.04320987654320988,0,0,0.04320987654320988,146.43827160493828,0)" xlink:href="#ar"/><use transform="matrix(0.04320987654320988,0,0,0.04320987654320988,155.08024691358025,0)" xlink:href="#an"/><use transform="matrix(0.04320987654320988,0,0,0.04320987654320988,164.54320987654322,0)" xlink:href="#aw"/><use transform="matrix(0.04320987654320988,0,0,0.04320987654320988,174.00617283950618,0)" xlink:href="#ai"/><use transform="matrix(0.04320987654320988,0,0,0.04320987654320988,183.46913580246917,0)" xlink:href="#aw"/><use transform="matrix(0.04320987654320988,0,0,0.04320987654320988,192.93209876543213,0)" xlink:href="#ag"/><use transform="matrix(0.04320987654320988,0,0,0.04320987654320988,201.5740740740741,0)" xlink:href="#aE"/></g><path d="M23 0v-37h61v-169l-59 37v-38l62-41h46v211h57V0H23" id="aF"/><path d="M24 0v-248h52V0H24" id="aG"/><g id="i"><use transform="matrix(0.04320987654320988,0,0,0.04320987654320988,0,0)" xlink:href="#az"/><use transform="matrix(0.04320987654320988,0,0,0.04320987654320988,11.19135802469136,0)" xlink:href="#aj"/><use transform="matrix(0.04320987654320988,0,0,0.04320987654320988,19.833333333333336,0)" xlink:href="#ag"/><use transform="matrix(0.04320987654320988,0,0,0.04320987654320988,28.47530864197531,0)" xlink:href="#ao"/><use transform="matrix(0.04320987654320988,0,0,0.04320987654320988,34.5246913580247,0)" xlink:href="#aF"/><use transform="matrix(0.04320987654320988,0,0,0.04320987654320988,43.16666666666667,0)" xlink:href="#aG"/><use transform="matrix(0.04320987654320988,0,0,0.04320987654320988,47.48765432098766,0)" xlink:href="#au"/><use transform="matrix(0.04320987654320988,0,0,0.04320987654320988,58.67901234567902,0)" xlink:href="#aE"/></g><path d="M102-93c0 74-22 123-52 168H0C30 29 54-18 53-93c0-74-22-123-53-168h50c30 45 52 94 52 168" id="aH"/><g id="j"><use transform="matrix(0.04320987654320988,0,0,0.04320987654320988,0,0)" xlink:href="#az"/><use transform="matrix(0.04320987654320988,0,0,0.04320987654320988,11.19135802469136,0)" xlink:href="#aj"/><use transform="matrix(0.04320987654320988,0,0,0.04320987654320988,19.833333333333336,0)" xlink:href="#ag"/><use transform="matrix(0.04320987654320988,0,0,0.04320987654320988,28.47530864197531,0)" xlink:href="#ao"/><use transform="matrix(0.04320987654320988,0,0,0.04320987654320988,34.5246913580247,0)" xlink:href="#aA"/><use transform="matrix(0.04320987654320988,0,0,0.04320987654320988,43.16666666666667,0)" xlink:href="#aG"/><use transform="matrix(0.04320987654320988,0,0,0.04320987654320988,47.48765432098766,0)" xlink:href="#au"/><use transform="matrix(0.04320987654320988,0,0,0.04320987654320988,58.67901234567902,0)" xlink:href="#aH"/></g><use transform="matrix(0.04320987654320988,0,0,0.04320987654320988,0,0)" xlink:href="#aF" id="k"/><path d="M24 0v-261h32V0H24" id="aI"/><path d="M141-36C126-15 110 5 73 4 37 3 15-17 15-53c-1-64 63-63 125-63 3-35-9-54-41-54-24 1-41 7-42 31l-33-3c5-37 33-52 76-52 45 0 72 20 72 64v82c-1 20 7 32 28 27v20c-31 9-61-2-59-35zM48-53c0 20 12 33 32 33 41-3 63-29 60-74-43 2-92-5-92 41" id="aJ"/><path d="M117-194c89-4 53 116 60 194h-32v-121c0-31-8-49-39-48C34-167 62-67 57 0H25l-1-190h30c1 10-1 24 2 32 11-22 29-35 61-36" id="aK"/><path d="M177-190C167-65 218 103 67 71c-23-6-38-20-44-43l32-5c15 47 100 32 89-28v-30C133-14 115 1 83 1 29 1 15-40 15-95c0-56 16-97 71-98 29-1 48 16 59 35 1-10 0-23 2-32h30zM94-22c36 0 50-32 50-73 0-42-14-75-50-75-39 0-46 34-46 75s6 73 46 73" id="aL"/><path d="M84 4C-5 8 30-112 23-190h32v120c0 31 7 50 39 49 72-2 45-101 50-169h31l1 190h-30c-1-10 1-25-2-33-11 22-28 36-60 37" id="aM"/><path d="M100-194c63 0 86 42 84 106H49c0 40 14 67 53 68 26 1 43-12 49-29l28 8c-11 28-37 45-77 45C44 4 14-33 15-96c1-61 26-98 85-98zm52 81c6-60-76-77-97-28-3 7-6 17-6 28h103" id="aN"/><path d="M212-179c-10-28-35-45-73-45-59 0-87 40-87 99 0 60 29 101 89 101 43 0 62-24 78-52l27 14C228-24 195 4 139 4 59 4 22-46 18-125c-6-104 99-153 187-111 19 9 31 26 39 46" id="aO"/><path d="M100-194c62-1 85 37 85 99 1 63-27 99-86 99S16-35 15-95c0-66 28-99 85-99zM99-20c44 1 53-31 53-75 0-43-8-75-51-75s-53 32-53 75 10 74 51 75" id="aP"/><path d="M59-47c-2 24 18 29 38 22v24C64 9 27 4 27-40v-127H5v-23h24l9-43h21v43h35v23H59v120" id="aQ"/><path d="M114-163C36-179 61-72 57 0H25l-1-190h30c1 12-1 29 2 39 6-27 23-49 58-41v29" id="aR"/><path d="M87 75C49 33 22-17 22-94c0-76 28-126 65-167h31c-38 41-64 92-64 168S80 34 118 75H87" id="aS"/><path d="M33-261c38 41 65 92 65 168S71 34 33 75H2C39 34 66-17 66-93S39-220 2-261h31" id="aT"/><g id="m"><use transform="matrix(0.05,0,0,0.05,0,0)" xlink:href="#aI"/><use transform="matrix(0.05,0,0,0.05,3.95,0)" xlink:href="#aJ"/><use transform="matrix(0.05,0,0,0.05,13.949999999999998,0)" xlink:href="#aK"/><use transform="matrix(0.05,0,0,0.05,23.95,0)" xlink:href="#aL"/><use transform="matrix(0.05,0,0,0.05,33.95,0)" xlink:href="#aM"/><use transform="matrix(0.05,0,0,0.05,43.95,0)" xlink:href="#aJ"/><use transform="matrix(0.05,0,0,0.05,53.95,0)" xlink:href="#aL"/><use transform="matrix(0.05,0,0,0.05,63.95,0)" xlink:href="#aN"/><use transform="matrix(0.05,0,0,0.05,73.95,0)" xlink:href="#aO"/><use transform="matrix(0.05,0,0,0.05,86.9,0)" xlink:href="#aP"/><use transform="matrix(0.05,0,0,0.05,96.9,0)" xlink:href="#aK"/><use transform="matrix(0.05,0,0,0.05,106.9,0)" xlink:href="#aQ"/><use transform="matrix(0.05,0,0,0.05,111.9,0)" xlink:href="#aR"/><use transform="matrix(0.05,0,0,0.05,117.85000000000001,0)" xlink:href="#aP"/><use transform="matrix(0.05,0,0,0.05,127.85000000000001,0)" xlink:href="#aI"/><use transform="matrix(0.05,0,0,0.05,131.8,0)" xlink:href="#aS"/><use transform="matrix(0.05,0,0,0.05,137.75,0)" xlink:href="#aT"/></g><path d="M106-169C34-169 62-67 57 0H25v-261h32l-1 103c12-21 28-36 61-36 89 0 53 116 60 194h-32v-121c2-32-8-49-39-48" id="aU"/><path d="M135-143c-3-34-86-38-87 0 15 53 115 12 119 90S17 21 10-45l28-5c4 36 97 45 98 0-10-56-113-15-118-90-4-57 82-63 122-42 12 7 21 19 24 35" id="aV"/><g id="n"><use transform="matrix(0.05,0,0,0.05,0,0)" xlink:href="#aU"/><use transform="matrix(0.05,0,0,0.05,10,0)" xlink:href="#aJ"/><use transform="matrix(0.05,0,0,0.05,20,0)" xlink:href="#aV"/><use transform="matrix(0.05,0,0,0.05,29,0)" xlink:href="#aO"/><use transform="matrix(0.05,0,0,0.05,41.95,0)" xlink:href="#aU"/><use transform="matrix(0.05,0,0,0.05,51.95,0)" xlink:href="#aJ"/><use transform="matrix(0.05,0,0,0.05,61.95,0)" xlink:href="#aQ"/><use transform="matrix(0.05,0,0,0.05,66.95,0)" xlink:href="#aO"/><use transform="matrix(0.05,0,0,0.05,79.9,0)" xlink:href="#aU"/><use transform="matrix(0.05,0,0,0.05,89.9,0)" xlink:href="#aJ"/><use transform="matrix(0.05,0,0,0.05,99.9,0)" xlink:href="#aK"/><use transform="matrix(0.05,0,0,0.05,109.9,0)" xlink:href="#aK"/><use transform="matrix(0.05,0,0,0.05,119.9,0)" xlink:href="#aN"/><use transform="matrix(0.05,0,0,0.05,129.9,0)" xlink:href="#aI"/><use transform="matrix(0.05,0,0,0.05,133.85,0)" xlink:href="#aS"/><use transform="matrix(0.05,0,0,0.05,139.79999999999998,0)" xlink:href="#aT"/></g><path d="M205 0l-28-72H64L36 0H1l101-248h38L239 0h-34zm-38-99l-47-123c-12 45-31 82-46 123h93" id="aW"/><g id="o"><use transform="matrix(0.05,0,0,0.05,0,0)" xlink:href="#aW"/><use transform="matrix(0.05,0,0,0.05,12,0)" xlink:href="#aI"/><use transform="matrix(0.05,0,0,0.05,15.949999999999998,0)" xlink:href="#aQ"/></g><path d="M26 75v-336h71v23H56V52h41v23H26" id="aX"/><path d="M197 0v-115H63V0H30v-248h33v105h134v-105h34V0h-34" id="aY"/><g id="p"><use transform="matrix(0.05,0,0,0.05,0,0)" xlink:href="#aX"/><use transform="matrix(0.05,0,0,0.05,5,0)" xlink:href="#aY"/><use transform="matrix(0.05,0,0,0.05,17.950000000000003,0)" xlink:href="#aJ"/><use transform="matrix(0.05,0,0,0.05,27.950000000000003,0)" xlink:href="#aV"/></g><path d="M96-169c-40 0-48 33-48 73s9 75 48 75c24 0 41-14 43-38l32 2c-6 37-31 61-74 61-59 0-76-41-82-99-10-93 101-131 147-64 4 7 5 14 7 22l-32 3c-4-21-16-35-41-35" id="aZ"/><g id="q"><use transform="matrix(0.05,0,0,0.05,0,0)" xlink:href="#aZ"/><use transform="matrix(0.05,0,0,0.05,9,0)" xlink:href="#aU"/><use transform="matrix(0.05,0,0,0.05,19,0)" xlink:href="#aJ"/><use transform="matrix(0.05,0,0,0.05,29,0)" xlink:href="#aQ"/></g><path d="M3 75V52h41v-290H3v-23h71V75H3" id="ba"/><g id="r"><use transform="matrix(0.05,0,0,0.05,0,0)" xlink:href="#aZ"/><use transform="matrix(0.05,0,0,0.05,9,0)" xlink:href="#aU"/><use transform="matrix(0.05,0,0,0.05,19,0)" xlink:href="#aJ"/><use transform="matrix(0.05,0,0,0.05,29,0)" xlink:href="#aK"/><use transform="matrix(0.05,0,0,0.05,39,0)" xlink:href="#aK"/><use transform="matrix(0.05,0,0,0.05,49,0)" xlink:href="#aN"/><use transform="matrix(0.05,0,0,0.05,59,0)" xlink:href="#aI"/><use transform="matrix(0.05,0,0,0.05,62.95,0)" xlink:href="#ba"/></g><path d="M47-170H22l-4-78h33" id="bb"/><g id="s"><use transform="matrix(0.05,0,0,0.05,0,0)" xlink:href="#aX"/><use transform="matrix(0.05,0,0,0.05,5,0)" xlink:href="#aY"/><use transform="matrix(0.05,0,0,0.05,17.950000000000003,0)" xlink:href="#aJ"/><use transform="matrix(0.05,0,0,0.05,27.950000000000003,0)" xlink:href="#aV"/><use transform="matrix(0.05,0,0,0.05,36.95,0)" xlink:href="#aK"/><use transform="matrix(0.05,0,0,0.05,46.95,0)" xlink:href="#bb"/><use transform="matrix(0.05,0,0,0.05,50.35,0)" xlink:href="#aQ"/></g><g id="t"><use transform="matrix(0.05,0,0,0.05,0,0)" xlink:href="#aZ"/><use transform="matrix(0.05,0,0,0.05,9,0)" xlink:href="#aU"/><use transform="matrix(0.05,0,0,0.05,19,0)" xlink:href="#aJ"/><use transform="matrix(0.05,0,0,0.05,29,0)" xlink:href="#aQ"/></g><g id="u"><use transform="matrix(0.05,0,0,0.05,0,0)" xlink:href="#aZ"/><use transform="matrix(0.05,0,0,0.05,9,0)" xlink:href="#aU"/><use transform="matrix(0.05,0,0,0.05,19,0)" xlink:href="#aJ"/><use transform="matrix(0.05,0,0,0.05,29,0)" xlink:href="#aK"/><use transform="matrix(0.05,0,0,0.05,39,0)" xlink:href="#aK"/><use transform="matrix(0.05,0,0,0.05,49,0)" xlink:href="#aN"/><use transform="matrix(0.05,0,0,0.05,59,0)" xlink:href="#aI"/><use transform="matrix(0.05,0,0,0.05,62.95,0)" xlink:href="#ba"/></g><g id="v"><use transform="matrix(0.05,0,0,0.05,0,0)" xlink:href="#aO"/><use transform="matrix(0.05,0,0,0.05,12.950000000000001,0)" xlink:href="#aU"/><use transform="matrix(0.05,0,0,0.05,22.950000000000003,0)" xlink:href="#aJ"/><use transform="matrix(0.05,0,0,0.05,32.95,0)" xlink:href="#aQ"/><use transform="matrix(0.05,0,0,0.05,37.95,0)" xlink:href="#aO"/><use transform="matrix(0.05,0,0,0.05,50.900000000000006,0)" xlink:href="#aU"/><use transform="matrix(0.05,0,0,0.05,60.900000000000006,0)" xlink:href="#aJ"/><use transform="matrix(0.05,0,0,0.05,70.9,0)" xlink:href="#aK"/><use transform="matrix(0.05,0,0,0.05,80.9,0)" xlink:href="#aK"/><use transform="matrix(0.05,0,0,0.05,90.9,0)" xlink:href="#aN"/><use transform="matrix(0.05,0,0,0.05,100.9,0)" xlink:href="#aI"/></g><g id="w"><use transform="matrix(0.04320987654320988,0,0,0.04320987654320988,0,0)" xlink:href="#al"/><use transform="matrix(0.04320987654320988,0,0,0.04320987654320988,11.19135802469136,0)" xlink:href="#aq"/><use transform="matrix(0.04320987654320988,0,0,0.04320987654320988,20.654320987654323,0)" xlink:href="#ar"/><use transform="matrix(0.04320987654320988,0,0,0.04320987654320988,29.296296296296298,0)" xlink:href="#ak"/></g><g id="x"><use transform="matrix(0.04320987654320988,0,0,0.04320987654320988,0,0)" xlink:href="#al"/><use transform="matrix(0.04320987654320988,0,0,0.04320987654320988,11.19135802469136,0)" xlink:href="#aq"/><use transform="matrix(0.04320987654320988,0,0,0.04320987654320988,20.654320987654323,0)" xlink:href="#ar"/><use transform="matrix(0.04320987654320988,0,0,0.04320987654320988,29.296296296296298,0)" xlink:href="#an"/><use transform="matrix(0.04320987654320988,0,0,0.04320987654320988,38.75925925925926,0)" xlink:href="#an"/><use transform="matrix(0.04320987654320988,0,0,0.04320987654320988,48.222222222222214,0)" xlink:href="#ag"/><use transform="matrix(0.04320987654320988,0,0,0.04320987654320988,56.864197530864196,0)" xlink:href="#ap"/></g><path d="M85-194c31 0 48 13 60 33l-1-100h32l1 261h-30c-2-10 0-23-3-31C134-8 116 4 85 4 32 4 16-35 15-94c0-66 23-100 70-100zm9 24c-40 0-46 34-46 75 0 40 6 74 45 74 42 0 51-32 51-76 0-42-9-74-50-73" id="bc"/><path d="M233-177c-1 41-23 64-60 70L243 0h-38l-65-103H63V0H30v-248c88 3 205-21 203 71zM63-129c60-2 137 13 137-47 0-61-80-42-137-45v92" id="bd"/><path d="M145-31C134-9 116 4 85 4 32 4 16-35 15-94c0-59 17-99 70-100 32-1 48 14 60 33 0-11-1-24 2-32h30l-1 268h-32zM93-21c41 0 51-33 51-76s-8-73-50-73c-40 0-46 35-46 75s5 74 45 74" id="be"/><path d="M127-220V0H93v-220H8v-28h204v28h-85" id="bf"/><path d="M24-231v-30h32v30H24zM24 0v-190h32V0H24" id="bg"/><path d="M108 0H70L1-190h34L89-25l56-165h34" id="bh"/><path d="M30 0v-248h33v221h125V0H30" id="bi"/><path d="M68-38c1 34 0 65-14 84H32c9-13 17-26 17-46H33v-38h35" id="bj"/><g id="y"><use transform="matrix(0.05,0,0,0.05,0,0)" xlink:href="#aV"/><use transform="matrix(0.05,0,0,0.05,9,0)" xlink:href="#aN"/><use transform="matrix(0.05,0,0,0.05,19,0)" xlink:href="#aK"/><use transform="matrix(0.05,0,0,0.05,29,0)" xlink:href="#bc"/><use transform="matrix(0.05,0,0,0.05,39,0)" xlink:href="#aO"/><use transform="matrix(0.05,0,0,0.05,51.95,0)" xlink:href="#aU"/><use transform="matrix(0.05,0,0,0.05,61.95,0)" xlink:href="#aJ"/><use transform="matrix(0.05,0,0,0.05,71.95,0)" xlink:href="#aQ"/><use transform="matrix(0.05,0,0,0.05,76.95,0)" xlink:href="#bd"/><use transform="matrix(0.05,0,0,0.05,89.9,0)" xlink:href="#aN"/><use transform="matrix(0.05,0,0,0.05,99.9,0)" xlink:href="#be"/><use transform="matrix(0.05,0,0,0.05,109.9,0)" xlink:href="#aM"/><use transform="matrix(0.05,0,0,0.05,119.9,0)" xlink:href="#aN"/><use transform="matrix(0.05,0,0,0.05,129.9,0)" xlink:href="#aV"/><use transform="matrix(0.05,0,0,0.05,138.9,0)" xlink:href="#aQ"/><use transform="matrix(0.05,0,0,0.05,143.9,0)" xlink:href="#bf"/><use transform="matrix(0.05,0,0,0.05,152.85,0)" xlink:href="#aP"/><use transform="matrix(0.05,0,0,0.05,162.85,0)" xlink:href="#bd"/><use transform="matrix(0.05,0,0,0.05,175.79999999999998,0)" xlink:href="#aN"/><use transform="matrix(0.05,0,0,0.05,185.79999999999998,0)" xlink:href="#aZ"/><use transform="matrix(0.05,0,0,0.05,194.79999999999998,0)" xlink:href="#aN"/><use transform="matrix(0.05,0,0,0.05,204.79999999999998,0)" xlink:href="#bg"/><use transform="matrix(0.05,0,0,0.05,208.74999999999997,0)" xlink:href="#bh"/><use transform="matrix(0.05,0,0,0.05,217.74999999999997,0)" xlink:href="#aN"/><use transform="matrix(0.05,0,0,0.05,227.74999999999997,0)" xlink:href="#aR"/><use transform="matrix(0.05,0,0,0.05,233.69999999999996,0)" xlink:href="#aS"/><use transform="matrix(0.05,0,0,0.05,239.64999999999998,0)" xlink:href="#bi"/><use transform="matrix(0.05,0,0,0.05,249.64999999999998,0)" xlink:href="#aJ"/><use transform="matrix(0.05,0,0,0.05,259.65,0)" xlink:href="#aK"/><use transform="matrix(0.05,0,0,0.05,269.65,0)" xlink:href="#aL"/><use transform="matrix(0.05,0,0,0.05,279.65,0)" xlink:href="#aM"/><use transform="matrix(0.05,0,0,0.05,289.65,0)" xlink:href="#aJ"/><use transform="matrix(0.05,0,0,0.05,299.65,0)" xlink:href="#aL"/><use transform="matrix(0.05,0,0,0.05,309.65,0)" xlink:href="#aN"/><use transform="matrix(0.05,0,0,0.05,319.65,0)" xlink:href="#bj"/></g><path d="M232-93c-1 65-40 97-104 97C67 4 28-28 28-90v-158h33c8 89-33 224 67 224 102 0 64-133 71-224h33v155" id="bk"/><path d="M27 0v-27h64v-190l-56 39v-29l58-41h29v221h61V0H27" id="bl"/><path d="M33 0v-248h34V0H33" id="bm"/><path d="M30-248c118-7 216 8 213 122C240-48 200 0 122 0H30v-248zM63-27c89 8 146-16 146-99s-60-101-146-95v194" id="bn"/><g id="z"><use transform="matrix(0.05,0,0,0.05,0,0)" xlink:href="#bk"/><use transform="matrix(0.05,0,0,0.05,12.950000000000001,0)" xlink:href="#aV"/><use transform="matrix(0.05,0,0,0.05,21.950000000000003,0)" xlink:href="#aN"/><use transform="matrix(0.05,0,0,0.05,31.950000000000003,0)" xlink:href="#aR"/><use transform="matrix(0.05,0,0,0.05,37.900000000000006,0)" xlink:href="#bl"/><use transform="matrix(0.05,0,0,0.05,47.900000000000006,0)" xlink:href="#bm"/><use transform="matrix(0.05,0,0,0.05,52.900000000000006,0)" xlink:href="#bn"/><use transform="matrix(0.05,0,0,0.05,65.85000000000001,0)" xlink:href="#aT"/></g><path d="M115-194c55 1 70 41 70 98S169 2 115 4C84 4 66-9 55-30l1 105H24l-1-265h31l2 30c10-21 28-34 59-34zm-8 174c40 0 45-34 45-75s-6-73-45-74c-42 0-51 32-51 76 0 43 10 73 51 73" id="bo"/><g id="A"><use transform="matrix(0.05,0,0,0.05,0,0)" xlink:href="#aJ"/><use transform="matrix(0.05,0,0,0.05,10,0)" xlink:href="#aZ"/><use transform="matrix(0.05,0,0,0.05,19,0)" xlink:href="#aZ"/><use transform="matrix(0.05,0,0,0.05,28,0)" xlink:href="#aN"/><use transform="matrix(0.05,0,0,0.05,38,0)" xlink:href="#bo"/><use transform="matrix(0.05,0,0,0.05,48,0)" xlink:href="#aQ"/><use transform="matrix(0.05,0,0,0.05,53,0)" xlink:href="#aO"/><use transform="matrix(0.05,0,0,0.05,65.95,0)" xlink:href="#aU"/><use transform="matrix(0.05,0,0,0.05,75.95,0)" xlink:href="#aJ"/><use transform="matrix(0.05,0,0,0.05,85.95,0)" xlink:href="#aQ"/><use transform="matrix(0.05,0,0,0.05,90.95,0)" xlink:href="#bd"/><use transform="matrix(0.05,0,0,0.05,103.9,0)" xlink:href="#aN"/><use transform="matrix(0.05,0,0,0.05,113.9,0)" xlink:href="#be"/><use transform="matrix(0.05,0,0,0.05,123.9,0)" xlink:href="#aM"/><use transform="matrix(0.05,0,0,0.05,133.9,0)" xlink:href="#aN"/><use transform="matrix(0.05,0,0,0.05,143.9,0)" xlink:href="#aV"/><use transform="matrix(0.05,0,0,0.05,152.9,0)" xlink:href="#aQ"/><use transform="matrix(0.05,0,0,0.05,157.9,0)" xlink:href="#aS"/><use transform="matrix(0.05,0,0,0.05,163.85,0)" xlink:href="#bi"/><use transform="matrix(0.05,0,0,0.05,173.85,0)" xlink:href="#aJ"/><use transform="matrix(0.05,0,0,0.05,183.85,0)" xlink:href="#aK"/><use transform="matrix(0.05,0,0,0.05,193.85,0)" xlink:href="#aL"/><use transform="matrix(0.05,0,0,0.05,203.85,0)" xlink:href="#aM"/><use transform="matrix(0.05,0,0,0.05,213.85000000000002,0)" xlink:href="#aJ"/><use transform="matrix(0.05,0,0,0.05,223.85000000000002,0)" xlink:href="#aL"/><use transform="matrix(0.05,0,0,0.05,233.85000000000002,0)" xlink:href="#aN"/><use transform="matrix(0.05,0,0,0.05,243.85000000000002,0)" xlink:href="#bj"/></g><g id="B"><use transform="matrix(0.05,0,0,0.05,0,0)" xlink:href="#aR"/><use transform="matrix(0.05,0,0,0.05,5.95,0)" xlink:href="#aN"/><use transform="matrix(0.05,0,0,0.05,15.949999999999998,0)" xlink:href="#be"/><use transform="matrix(0.05,0,0,0.05,25.950000000000003,0)" xlink:href="#aM"/><use transform="matrix(0.05,0,0,0.05,35.95,0)" xlink:href="#aN"/><use transform="matrix(0.05,0,0,0.05,45.95,0)" xlink:href="#aV"/><use transform="matrix(0.05,0,0,0.05,54.95,0)" xlink:href="#aQ"/><use transform="matrix(0.05,0,0,0.05,59.95,0)" xlink:href="#bm"/><use transform="matrix(0.05,0,0,0.05,64.95,0)" xlink:href="#bn"/><use transform="matrix(0.05,0,0,0.05,77.9,0)" xlink:href="#aT"/></g><g id="C"><use transform="matrix(0.05,0,0,0.05,0,0)" xlink:href="#aX"/><use transform="matrix(0.05,0,0,0.05,5,0)" xlink:href="#aW"/><use transform="matrix(0.05,0,0,0.05,17,0)" xlink:href="#aZ"/><use transform="matrix(0.05,0,0,0.05,26,0)" xlink:href="#aZ"/><use transform="matrix(0.05,0,0,0.05,35,0)" xlink:href="#aN"/><use transform="matrix(0.05,0,0,0.05,45,0)" xlink:href="#bo"/><use transform="matrix(0.05,0,0,0.05,55,0)" xlink:href="#aQ"/></g><g id="D"><use transform="matrix(0.05,0,0,0.05,0,0)" xlink:href="#aO"/><use transform="matrix(0.05,0,0,0.05,12.950000000000001,0)" xlink:href="#aU"/><use transform="matrix(0.05,0,0,0.05,22.950000000000003,0)" xlink:href="#aJ"/><use transform="matrix(0.05,0,0,0.05,32.95,0)" xlink:href="#aQ"/><use transform="matrix(0.05,0,0,0.05,37.95,0)" xlink:href="#ba"/></g><path d="M24-231v-30h32v30H24zM-9 49c24 4 33-6 33-30v-209h32V24c2 40-23 58-65 49V49" id="bp"/><g id="E"><use transform="matrix(0.05,0,0,0.05,0,0)" xlink:href="#aX"/><use transform="matrix(0.05,0,0,0.05,5,0)" xlink:href="#bd"/><use transform="matrix(0.05,0,0,0.05,17.950000000000003,0)" xlink:href="#aN"/><use transform="matrix(0.05,0,0,0.05,27.950000000000003,0)" xlink:href="#bp"/><use transform="matrix(0.05,0,0,0.05,31.900000000000002,0)" xlink:href="#aN"/><use transform="matrix(0.05,0,0,0.05,41.900000000000006,0)" xlink:href="#aZ"/><use transform="matrix(0.05,0,0,0.05,50.900000000000006,0)" xlink:href="#aQ"/></g><g id="F"><use transform="matrix(0.05,0,0,0.05,0,0)" xlink:href="#aO"/><use transform="matrix(0.05,0,0,0.05,12.950000000000001,0)" xlink:href="#aU"/><use transform="matrix(0.05,0,0,0.05,22.950000000000003,0)" xlink:href="#aJ"/><use transform="matrix(0.05,0,0,0.05,32.95,0)" xlink:href="#aQ"/><use transform="matrix(0.05,0,0,0.05,37.95,0)" xlink:href="#ba"/></g><g id="G"><use transform="matrix(0.05,0,0,0.05,0,0)" xlink:href="#aO"/><use transform="matrix(0.05,0,0,0.05,12.950000000000001,0)" xlink:href="#aR"/><use transform="matrix(0.05,0,0,0.05,18.900000000000002,0)" xlink:href="#aN"/><use transform="matrix(0.05,0,0,0.05,28.900000000000002,0)" xlink:href="#aJ"/><use transform="matrix(0.05,0,0,0.05,38.900000000000006,0)" xlink:href="#aQ"/><use transform="matrix(0.05,0,0,0.05,43.900000000000006,0)" xlink:href="#aN"/><use transform="matrix(0.05,0,0,0.05,53.900000000000006,0)" xlink:href="#aO"/><use transform="matrix(0.05,0,0,0.05,66.85000000000001,0)" xlink:href="#aU"/><use transform="matrix(0.05,0,0,0.05,76.85000000000001,0)" xlink:href="#aJ"/><use transform="matrix(0.05,0,0,0.05,86.85000000000001,0)" xlink:href="#aQ"/><use transform="matrix(0.05,0,0,0.05,91.85000000000001,0)" xlink:href="#aO"/><use transform="matrix(0.05,0,0,0.05,104.80000000000001,0)" xlink:href="#aU"/><use transform="matrix(0.05,0,0,0.05,114.80000000000001,0)" xlink:href="#aJ"/><use transform="matrix(0.05,0,0,0.05,124.80000000000001,0)" xlink:href="#aK"/><use transform="matrix(0.05,0,0,0.05,134.8,0)" xlink:href="#aK"/><use transform="matrix(0.05,0,0,0.05,144.8,0)" xlink:href="#aN"/><use transform="matrix(0.05,0,0,0.05,154.8,0)" xlink:href="#aI"/><use transform="matrix(0.05,0,0,0.05,158.75,0)" xlink:href="#aS"/><use transform="matrix(0.05,0,0,0.05,164.7,0)" xlink:href="#aT"/></g><g id="H"><use transform="matrix(0.05,0,0,0.05,0,0)" xlink:href="#aR"/><use transform="matrix(0.05,0,0,0.05,5.95,0)" xlink:href="#aN"/><use transform="matrix(0.05,0,0,0.05,15.949999999999998,0)" xlink:href="#bp"/><use transform="matrix(0.05,0,0,0.05,19.9,0)" xlink:href="#aN"/><use transform="matrix(0.05,0,0,0.05,29.899999999999995,0)" xlink:href="#aZ"/><use transform="matrix(0.05,0,0,0.05,38.9,0)" xlink:href="#aQ"/><use transform="matrix(0.05,0,0,0.05,43.9,0)" xlink:href="#aO"/><use transform="matrix(0.05,0,0,0.05,56.85,0)" xlink:href="#aU"/><use transform="matrix(0.05,0,0,0.05,66.85,0)" xlink:href="#aJ"/><use transform="matrix(0.05,0,0,0.05,76.85,0)" xlink:href="#bd"/><use transform="matrix(0.05,0,0,0.05,89.8,0)" xlink:href="#aN"/><use transform="matrix(0.05,0,0,0.05,99.8,0)" xlink:href="#be"/><use transform="matrix(0.05,0,0,0.05,109.80000000000001,0)" xlink:href="#aM"/><use transform="matrix(0.05,0,0,0.05,119.80000000000001,0)" xlink:href="#aN"/><use transform="matrix(0.05,0,0,0.05,129.8,0)" xlink:href="#aV"/><use transform="matrix(0.05,0,0,0.05,138.8,0)" xlink:href="#aQ"/><use transform="matrix(0.05,0,0,0.05,143.8,0)" xlink:href="#aS"/><use transform="matrix(0.05,0,0,0.05,149.75,0)" xlink:href="#bi"/><use transform="matrix(0.05,0,0,0.05,159.75,0)" xlink:href="#aJ"/><use transform="matrix(0.05,0,0,0.05,169.75,0)" xlink:href="#aK"/><use transform="matrix(0.05,0,0,0.05,179.75,0)" xlink:href="#aL"/><use transform="matrix(0.05,0,0,0.05,189.75,0)" xlink:href="#aM"/><use transform="matrix(0.05,0,0,0.05,199.75,0)" xlink:href="#aJ"/><use transform="matrix(0.05,0,0,0.05,209.75,0)" xlink:href="#aL"/><use transform="matrix(0.05,0,0,0.05,219.75,0)" xlink:href="#aN"/><use transform="matrix(0.05,0,0,0.05,229.75,0)" xlink:href="#bj"/></g><g id="I"><use transform="matrix(0.05,0,0,0.05,0,0)" xlink:href="#aR"/><use transform="matrix(0.05,0,0,0.05,5.95,0)" xlink:href="#aN"/><use transform="matrix(0.05,0,0,0.05,15.949999999999998,0)" xlink:href="#be"/><use transform="matrix(0.05,0,0,0.05,25.950000000000003,0)" xlink:href="#aM"/><use transform="matrix(0.05,0,0,0.05,35.95,0)" xlink:href="#aN"/><use transform="matrix(0.05,0,0,0.05,45.95,0)" xlink:href="#aV"/><use transform="matrix(0.05,0,0,0.05,54.95,0)" xlink:href="#aQ"/><use transform="matrix(0.05,0,0,0.05,59.95,0)" xlink:href="#bm"/><use transform="matrix(0.05,0,0,0.05,64.95,0)" xlink:href="#bc"/><use transform="matrix(0.05,0,0,0.05,74.95,0)" xlink:href="#aT"/></g><g id="J"><use transform="matrix(0.05,0,0,0.05,0,0)" xlink:href="#bd"/><use transform="matrix(0.05,0,0,0.05,12.950000000000001,0)" xlink:href="#aN"/><use transform="matrix(0.05,0,0,0.05,22.950000000000003,0)" xlink:href="#bp"/><use transform="matrix(0.05,0,0,0.05,26.900000000000002,0)" xlink:href="#aN"/><use transform="matrix(0.05,0,0,0.05,36.900000000000006,0)" xlink:href="#aZ"/><use transform="matrix(0.05,0,0,0.05,45.900000000000006,0)" xlink:href="#aQ"/></g><path d="M240 0l2-218c-23 76-54 145-80 218h-23L58-218 59 0H30v-248h44l77 211c21-75 51-140 76-211h43V0h-30" id="bq"/><g id="K"><use transform="matrix(0.05,0,0,0.05,0,0)" xlink:href="#bq"/><use transform="matrix(0.05,0,0,0.05,14.950000000000001,0)" xlink:href="#aN"/><use transform="matrix(0.05,0,0,0.05,24.950000000000003,0)" xlink:href="#aV"/><use transform="matrix(0.05,0,0,0.05,33.95,0)" xlink:href="#aV"/><use transform="matrix(0.05,0,0,0.05,42.95,0)" xlink:href="#aJ"/><use transform="matrix(0.05,0,0,0.05,52.95,0)" xlink:href="#aL"/><use transform="matrix(0.05,0,0,0.05,62.95,0)" xlink:href="#aN"/></g><path d="M206 0h-36l-40-164L89 0H53L-1-190h32L70-26l43-164h34l41 164 42-164h31" id="br"/><g id="L"><use transform="matrix(0.05,0,0,0.05,0,0)" xlink:href="#aV"/><use transform="matrix(0.05,0,0,0.05,9,0)" xlink:href="#aU"/><use transform="matrix(0.05,0,0,0.05,19,0)" xlink:href="#aP"/><use transform="matrix(0.05,0,0,0.05,29,0)" xlink:href="#br"/><use transform="matrix(0.05,0,0,0.05,41.95,0)" xlink:href="#bq"/><use transform="matrix(0.05,0,0,0.05,56.900000000000006,0)" xlink:href="#aN"/><use transform="matrix(0.05,0,0,0.05,66.9,0)" xlink:href="#aV"/><use transform="matrix(0.05,0,0,0.05,75.9,0)" xlink:href="#aV"/><use transform="matrix(0.05,0,0,0.05,84.9,0)" xlink:href="#aJ"/><use transform="matrix(0.05,0,0,0.05,94.9,0)" xlink:href="#aL"/><use transform="matrix(0.05,0,0,0.05,104.9,0)" xlink:href="#aN"/><use transform="matrix(0.05,0,0,0.05,114.9,0)" xlink:href="#aV"/><use transform="matrix(0.05,0,0,0.05,123.9,0)" xlink:href="#aS"/><use transform="matrix(0.05,0,0,0.05,129.85,0)" xlink:href="#aT"/></g><path d="M210-169c-67 3-38 105-44 169h-31v-121c0-29-5-50-35-48C34-165 62-65 56 0H25l-1-190h30c1 10-1 24 2 32 10-44 99-50 107 0 11-21 27-35 58-36 85-2 47 119 55 194h-31v-121c0-29-5-49-35-48" id="bs"/><g id="M"><use transform="matrix(0.05,0,0,0.05,0,0)" xlink:href="#bs"/><use transform="matrix(0.05,0,0,0.05,14.950000000000001,0)" xlink:href="#aN"/><use transform="matrix(0.05,0,0,0.05,24.950000000000003,0)" xlink:href="#aV"/><use transform="matrix(0.05,0,0,0.05,33.95,0)" xlink:href="#aV"/><use transform="matrix(0.05,0,0,0.05,42.95,0)" xlink:href="#aJ"/><use transform="matrix(0.05,0,0,0.05,52.95,0)" xlink:href="#aL"/><use transform="matrix(0.05,0,0,0.05,62.95,0)" xlink:href="#aN"/><use transform="matrix(0.05,0,0,0.05,72.95,0)" xlink:href="#aX"/><use transform="matrix(0.05,0,0,0.05,77.95,0)" xlink:href="#ba"/></g><path d="M141 0L90-78 38 0H4l68-98-65-92h35l48 74 47-74h35l-64 92 68 98h-35" id="bt"/><g id="N"><use transform="matrix(0.05,0,0,0.05,0,0)" xlink:href="#aV"/><use transform="matrix(0.05,0,0,0.05,9,0)" xlink:href="#aN"/><use transform="matrix(0.05,0,0,0.05,19,0)" xlink:href="#aK"/><use transform="matrix(0.05,0,0,0.05,29,0)" xlink:href="#bc"/><use transform="matrix(0.05,0,0,0.05,39,0)" xlink:href="#bq"/><use transform="matrix(0.05,0,0,0.05,53.95,0)" xlink:href="#aN"/><use transform="matrix(0.05,0,0,0.05,63.95,0)" xlink:href="#aV"/><use transform="matrix(0.05,0,0,0.05,72.95,0)" xlink:href="#aV"/><use transform="matrix(0.05,0,0,0.05,81.95,0)" xlink:href="#aJ"/><use transform="matrix(0.05,0,0,0.05,91.95,0)" xlink:href="#aL"/><use transform="matrix(0.05,0,0,0.05,101.95,0)" xlink:href="#aN"/><use transform="matrix(0.05,0,0,0.05,111.95,0)" xlink:href="#aS"/><use transform="matrix(0.05,0,0,0.05,117.9,0)" xlink:href="#aQ"/><use transform="matrix(0.05,0,0,0.05,122.9,0)" xlink:href="#aN"/><use transform="matrix(0.05,0,0,0.05,132.9,0)" xlink:href="#bt"/><use transform="matrix(0.05,0,0,0.05,141.9,0)" xlink:href="#aQ"/><use transform="matrix(0.05,0,0,0.05,146.9,0)" xlink:href="#bj"/></g><g id="O"><use transform="matrix(0.05,0,0,0.05,0,0)" xlink:href="#bk"/><use transform="matrix(0.05,0,0,0.05,12.950000000000001,0)" xlink:href="#aV"/><use transform="matrix(0.05,0,0,0.05,21.950000000000003,0)" xlink:href="#aN"/><use transform="matrix(0.05,0,0,0.05,31.950000000000003,0)" xlink:href="#aR"/><use transform="matrix(0.05,0,0,0.05,37.900000000000006,0)" xlink:href="#bl"/><use transform="matrix(0.05,0,0,0.05,47.900000000000006,0)" xlink:href="#bm"/><use transform="matrix(0.05,0,0,0.05,52.900000000000006,0)" xlink:href="#bn"/><use transform="matrix(0.05,0,0,0.05,65.85000000000001,0)" xlink:href="#bj"/></g><path d="M101-251c82-7 93 87 43 132L82-64C71-53 59-42 53-27h129V0H18c2-99 128-94 128-182 0-28-16-43-45-43s-46 15-49 41l-32-3c6-41 34-60 81-64" id="bu"/><g id="P"><use transform="matrix(0.05,0,0,0.05,0,0)" xlink:href="#bk"/><use transform="matrix(0.05,0,0,0.05,12.950000000000001,0)" xlink:href="#aV"/><use transform="matrix(0.05,0,0,0.05,21.950000000000003,0)" xlink:href="#aN"/><use transform="matrix(0.05,0,0,0.05,31.950000000000003,0)" xlink:href="#aR"/><use transform="matrix(0.05,0,0,0.05,37.900000000000006,0)" xlink:href="#bu"/><use transform="matrix(0.05,0,0,0.05,47.900000000000006,0)" xlink:href="#bm"/><use transform="matrix(0.05,0,0,0.05,52.900000000000006,0)" xlink:href="#bn"/><use transform="matrix(0.05,0,0,0.05,65.85000000000001,0)" xlink:href="#aT"/></g><g id="Q"><use transform="matrix(0.05,0,0,0.05,0,0)" xlink:href="#bi"/><use transform="matrix(0.05,0,0,0.05,10,0)" xlink:href="#aP"/><use transform="matrix(0.05,0,0,0.05,20,0)" xlink:href="#aP"/><use transform="matrix(0.05,0,0,0.05,30,0)" xlink:href="#bo"/></g><g id="R"><use transform="matrix(0.05,0,0,0.05,0,0)" xlink:href="#aX"/><use transform="matrix(0.05,0,0,0.05,5,0)" xlink:href="#aM"/><use transform="matrix(0.05,0,0,0.05,15,0)" xlink:href="#aK"/><use transform="matrix(0.05,0,0,0.05,25,0)" xlink:href="#aQ"/><use transform="matrix(0.05,0,0,0.05,30,0)" xlink:href="#bg"/><use transform="matrix(0.05,0,0,0.05,33.95,0)" xlink:href="#aI"/></g><g id="S"><use transform="matrix(0.05,0,0,0.05,0,0)" xlink:href="#aZ"/><use transform="matrix(0.05,0,0,0.05,9,0)" xlink:href="#aI"/><use transform="matrix(0.05,0,0,0.05,12.949999999999998,0)" xlink:href="#aP"/><use transform="matrix(0.05,0,0,0.05,22.95,0)" xlink:href="#aV"/><use transform="matrix(0.05,0,0,0.05,31.950000000000003,0)" xlink:href="#aN"/><use transform="matrix(0.05,0,0,0.05,41.95,0)" xlink:href="#bc"/><use transform="matrix(0.05,0,0,0.05,51.95,0)" xlink:href="#ba"/></g><path d="M199 0l-22-63H83L61 0H9l90-248h61L250 0h-51zm-33-102l-36-108c-10 38-24 72-36 108h72" id="bv"/><g id="T"><use transform="matrix(0.04320987654320988,0,0,0.04320987654320988,0,0)" xlink:href="#bv"/><use transform="matrix(0.04320987654320988,0,0,0.04320987654320988,11.19135802469136,0)" xlink:href="#ap"/><use transform="matrix(0.04320987654320988,0,0,0.04320987654320988,15.512345679012347,0)" xlink:href="#ak"/></g><path d="M20 75v-336h95v34H67V41h48v34H20" id="bw"/><g id="U"><use transform="matrix(0.04320987654320988,0,0,0.04320987654320988,0,0)" xlink:href="#bw"/><use transform="matrix(0.04320987654320988,0,0,0.04320987654320988,5.1419753086419755,0)" xlink:href="#al"/><use transform="matrix(0.04320987654320988,0,0,0.04320987654320988,16.333333333333336,0)" xlink:href="#ar"/><use transform="matrix(0.04320987654320988,0,0,0.04320987654320988,24.97530864197531,0)" xlink:href="#an"/></g><g id="V"><use transform="matrix(0.04320987654320988,0,0,0.04320987654320988,0,0)" xlink:href="#at"/><use transform="matrix(0.04320987654320988,0,0,0.04320987654320988,8.641975308641976,0)" xlink:href="#aq"/><use transform="matrix(0.04320987654320988,0,0,0.04320987654320988,18.10493827160494,0)" xlink:href="#ar"/><use transform="matrix(0.04320987654320988,0,0,0.04320987654320988,26.746913580246915,0)" xlink:href="#ak"/></g><g id="W"><use transform="matrix(0.04320987654320988,0,0,0.04320987654320988,0,0)" xlink:href="#av"/><use transform="matrix(0.04320987654320988,0,0,0.04320987654320988,4.320987654320988,0)" xlink:href="#an"/></g><g id="X"><use transform="matrix(0.04320987654320988,0,0,0.04320987654320988,0,0)" xlink:href="#ak"/><use transform="matrix(0.04320987654320988,0,0,0.04320987654320988,5.1419753086419755,0)" xlink:href="#aq"/><use transform="matrix(0.04320987654320988,0,0,0.04320987654320988,14.60493827160494,0)" xlink:href="#av"/><use transform="matrix(0.04320987654320988,0,0,0.04320987654320988,18.925925925925927,0)" xlink:href="#aj"/></g><path d="M4 75V41h49v-268H4v-34h96V75H4" id="bx"/><g id="Y"><use transform="matrix(0.04320987654320988,0,0,0.04320987654320988,0,0)" xlink:href="#ap"/><use transform="matrix(0.04320987654320988,0,0,0.04320987654320988,4.320987654320988,0)" xlink:href="#ar"/><use transform="matrix(0.04320987654320988,0,0,0.04320987654320988,12.962962962962964,0)" xlink:href="#an"/><use transform="matrix(0.04320987654320988,0,0,0.04320987654320988,22.425925925925934,0)" xlink:href="#aw"/><use transform="matrix(0.04320987654320988,0,0,0.04320987654320988,31.888888888888893,0)" xlink:href="#ai"/><use transform="matrix(0.04320987654320988,0,0,0.04320987654320988,41.351851851851855,0)" xlink:href="#ar"/><use transform="matrix(0.04320987654320988,0,0,0.04320987654320988,49.99382716049383,0)" xlink:href="#aw"/><use transform="matrix(0.04320987654320988,0,0,0.04320987654320988,59.456790123456784,0)" xlink:href="#ag"/><use transform="matrix(0.04320987654320988,0,0,0.04320987654320988,68.09876543209877,0)" xlink:href="#bx"/></g><path d="M30 0v-248h187v28H63v79h144v27H63v87h162V0H30" id="by"/><g id="Z"><use transform="matrix(0.05,0,0,0.05,0,0)" xlink:href="#aX"/><use transform="matrix(0.05,0,0,0.05,5,0)" xlink:href="#by"/><use transform="matrix(0.05,0,0,0.05,17,0)" xlink:href="#aI"/><use transform="matrix(0.05,0,0,0.05,20.95,0)" xlink:href="#aV"/><use transform="matrix(0.05,0,0,0.05,29.950000000000003,0)" xlink:href="#aN"/><use transform="matrix(0.05,0,0,0.05,39.95,0)" xlink:href="#ba"/></g><g id="aa"><use transform="matrix(0.05,0,0,0.05,0,0)" xlink:href="#bk"/><use transform="matrix(0.05,0,0,0.05,12.950000000000001,0)" xlink:href="#aV"/><use transform="matrix(0.05,0,0,0.05,21.950000000000003,0)" xlink:href="#aN"/><use transform="matrix(0.05,0,0,0.05,31.950000000000003,0)" xlink:href="#aR"/><use transform="matrix(0.05,0,0,0.05,37.900000000000006,0)" xlink:href="#bu"/><use transform="matrix(0.05,0,0,0.05,47.900000000000006,0)" xlink:href="#bm"/><use transform="matrix(0.05,0,0,0.05,52.900000000000006,0)" xlink:href="#bn"/><use transform="matrix(0.05,0,0,0.05,65.85000000000001,0)" xlink:href="#bj"/></g><g id="ab"><use transform="matrix(0.05,0,0,0.05,0,0)" xlink:href="#aO"/><use transform="matrix(0.05,0,0,0.05,12.950000000000001,0)" xlink:href="#aU"/><use transform="matrix(0.05,0,0,0.05,22.950000000000003,0)" xlink:href="#aJ"/><use transform="matrix(0.05,0,0,0.05,32.95,0)" xlink:href="#aQ"/></g><g id="ac"><use transform="matrix(0.05,0,0,0.05,0,0)" xlink:href="#aK"/><use transform="matrix(0.05,0,0,0.05,10,0)" xlink:href="#aP"/><use transform="matrix(0.05,0,0,0.05,20,0)" xlink:href="#aQ"/></g><g id="ad"><use transform="matrix(0.05,0,0,0.05,0,0)" xlink:href="#aW"/><use transform="matrix(0.05,0,0,0.05,12,0)" xlink:href="#aI"/><use transform="matrix(0.05,0,0,0.05,15.949999999999998,0)" xlink:href="#aI"/><use transform="matrix(0.05,0,0,0.05,19.9,0)" xlink:href="#aP"/><use transform="matrix(0.05,0,0,0.05,29.899999999999995,0)" xlink:href="#br"/><use transform="matrix(0.05,0,0,0.05,42.85,0)" xlink:href="#aN"/><use transform="matrix(0.05,0,0,0.05,52.85,0)" xlink:href="#bc"/></g><g id="ae"><use transform="matrix(0.05,0,0,0.05,0,0)" xlink:href="#bd"/><use transform="matrix(0.05,0,0,0.05,12.950000000000001,0)" xlink:href="#aN"/><use transform="matrix(0.05,0,0,0.05,22.950000000000003,0)" xlink:href="#be"/><use transform="matrix(0.05,0,0,0.05,32.95,0)" xlink:href="#aM"/><use transform="matrix(0.05,0,0,0.05,42.95,0)" xlink:href="#aN"/><use transform="matrix(0.05,0,0,0.05,52.95,0)" xlink:href="#aV"/><use transform="matrix(0.05,0,0,0.05,61.95,0)" xlink:href="#aQ"/></g></defs></g></svg>
