
<svg xmlns="http://www.w3.org/2000/svg" xmlns:xlink="http://www.w3.org/1999/xlink" xmlns:lucid="lucid" width="3360.84" height="4122.22"><g transform="translate(0 0)" lucid:page-tab-id="0_0"><path d="M0 0h3360.84v4122.22H0z" fill="#fff"/><path d="M873.57 2200.1l2.12 2.92.3 1.9v19.92l.82 2.5 2 1.46 1.26.2h17.12v2h-17.28l-1.9-.3-2.9-2.13-1.12-3.4v-20.1l-.2-1.25-1.46-2-2.5-.82H751.82v-2h118.34zM999 2229v2h-18.84v-2z" fill="#7ab648"/><path d="M769.7 2190.68l-15.77 9.32 15.76 9.32-1.03 1.72L750 2200l18.67-11.04zM1000 2230l.04 1h-1.07v-2h1.08z" fill="#7ab648"/><use xlink:href="#a" transform="matrix(1,0,0,1,897.1961432997432,2220.6666666666665) translate(-5.705499999999994 12.444444444444446)"/><path d="M873.57 2200.1l2.12 2.92.3 1.9v139.92l.82 2.5 2 1.46 1.26.2h15.1v2h-15.26l-1.9-.3-2.9-2.13-1.12-3.4v-140.1l-.2-1.25-1.46-2-2.5-.82H751.82v-2h118.34zM999 2349v2h-20.86v-2z" fill="#7ab648"/><path d="M769.7 2190.68l-15.77 9.32 15.76 9.32-1.03 1.72L750 2200l18.67-11.04zM1000 2350l.04 1h-1.07v-2h1.08z" fill="#7ab648"/><use xlink:href="#a" transform="matrix(1,0,0,1,895.1787564997614,2340.6666666666665) translate(-5.705499999999994 12.444444444444446)"/><path d="M145.33 259.14c0 10.6-11.93 19.14-26.63 19.14-14.77 0-26.7-8.55-26.7-19.14 0-10.58 11.93-19.14 26.7-19.14 14.7 0 26.63 8.56 26.63 19.14zM95.83 280.17h46.27c14.25 0 14.25 0 14.25 10.3 0 10.28 0 10.28-14.25 10.28H95.83c-14.25 0-14.25 0-14.25-10.3 0-10.28 0-10.28 14.25-10.28z" fill="#dedffc"/><path d="M98.98 297.42h39.37v42.48H98.98v-42.48z" fill="#dedffc"/><path d="M98.98 338.3h17.77v46.84H98.98V338.3zM121.85 338.75h16.5v46.1h-16.5v-46.1zM81.73 287.85h13.5v41.03h-13.5v-41.03zM142.63 288.43h13.65v41.04h-13.65v-41.04z" fill="#dedffc"/><use xlink:href="#b" transform="matrix(1,0,0,1,51.577464155855196,385) translate(11.471598765432091 18.11111111111111)"/><use xlink:href="#c" transform="matrix(1,0,0,1,51.577464155855196,385) translate(68.98394444444445 18.11111111111111)"/><path d="M540 120c0 33.14-35.82 60-80 60s-80-26.86-80-60 35.82-60 80-60 80 26.86 80 60z" stroke="#000" stroke-opacity="0" fill="#dedffc"/><use xlink:href="#d" transform="matrix(1,0,0,1,380,60) translate(26.279999999999994 51.9)"/><use xlink:href="#e" transform="matrix(1,0,0,1,380,60) translate(69.83 51.9)"/><use xlink:href="#f" transform="matrix(1,0,0,1,380,60) translate(41.05499999999999 73.5)"/><path d="M540 480c0 33.14-35.82 60-80 60s-80-26.86-80-60 35.82-60 80-60 80 26.86 80 60z" stroke="#000" stroke-opacity="0" fill="#dedffc"/><use xlink:href="#g" transform="matrix(1,0,0,1,380,420) translate(46.57999999999999 63.15)"/><path d="M379 120H273.14c-2.76 0-5 2.24-5 5v182.5c0 2.76-2.24 5-5 5H157.28" stroke="#7ab648" stroke-width="2" fill="none"/><path d="M380 120v.38l.03.62h-1.06v-2h1.06zM157.3 313.5h-1.02v-2h1.02z" fill="#7ab648"/><path d="M379 480H273.14c-2.76 0-5-2.24-5-5V334.47c0-2.77-2.24-5-5-5H157.28" stroke="#7ab648" stroke-width="2" fill="none"/><path d="M380 480v.38l.03.62h-1.06v-2h1.06zM157.3 330.46h-4.02v-1h3v-1h1.02z" fill="#7ab648"/><path d="M143.75 1419.14c0 10.58-11.93 19.14-26.63 19.14-14.77 0-26.7-8.56-26.7-19.14 0-10.6 11.93-19.14 26.7-19.14 14.7 0 26.63 8.56 26.63 19.14zM94.25 1440.16h46.28c14.25 0 14.25 0 14.25 10.3s0 10.3-14.25 10.3H94.25c-14.25 0-14.25 0-14.25-10.3s0-10.3 14.25-10.3z" fill="#dedffc"/><path d="M97.4 1457.42h39.38v42.48H97.4v-42.48z" fill="#dedffc"/><path d="M97.4 1498.3h17.77v46.85H97.4v-46.84zM120.28 1498.74h16.5v46.12h-16.5v-46.12zM80.15 1447.85h13.5V1488.87h-13.5v-41.03zM141.05 1448.43h13.65v41.03h-13.65v-41.03z" fill="#dedffc"/><use xlink:href="#h" transform="matrix(1,0,0,1,50,1545) translate(40.22777160493827 18.11111111111111)"/><path d="M145.33 259.14c0 10.6-11.93 19.14-26.63 19.14-14.77 0-26.7-8.55-26.7-19.14 0-10.58 11.93-19.14 26.7-19.14 14.7 0 26.63 8.56 26.63 19.14zM95.83 280.17h46.27c14.25 0 14.25 0 14.25 10.3 0 10.28 0 10.28-14.25 10.28H95.83c-14.25 0-14.25 0-14.25-10.3 0-10.28 0-10.28 14.25-10.28z" fill="#dedffc"/><path d="M98.98 297.42h39.37v42.48H98.98v-42.48z" fill="#dedffc"/><path d="M98.98 338.3h17.77v46.84H98.98V338.3zM121.85 338.75h16.5v46.1h-16.5v-46.1zM81.73 287.85h13.5v41.03h-13.5v-41.03zM142.63 288.43h13.65v41.04h-13.65v-41.04z" fill="#dedffc"/><use xlink:href="#i" transform="matrix(1,0,0,1,51.577464155855196,385) translate(11.320364197530864 18.11111111111111)"/><use xlink:href="#j" transform="matrix(1,0,0,1,51.577464155855196,385) translate(69.13517901234569 18.11111111111111)"/><path d="M540 840c0 33.14-35.82 60-80 60s-80-26.86-80-60 35.82-60 80-60 80 26.86 80 60z" stroke="#000" stroke-opacity="0" fill="#dedffc"/><use xlink:href="#d" transform="matrix(1,0,0,1,380,780) translate(11.354999999999999 63.15)"/><use xlink:href="#k" transform="matrix(1,0,0,1,380,780) translate(54.905 63.15)"/><use xlink:href="#l" transform="matrix(1,0,0,1,380,780) translate(97.805 63.15)"/><path d="M540 1200c0 33.14-35.82 60-80 60s-80-26.86-80-60 35.82-60 80-60 80 26.86 80 60z" stroke="#000" stroke-opacity="0" fill="#dedffc"/><use xlink:href="#d" transform="matrix(1,0,0,1,380,1140) translate(23.779999999999994 63.15)"/><use xlink:href="#m" transform="matrix(1,0,0,1,380,1140) translate(67.33 63.15)"/><path d="M540 1880c0 33.14-35.82 60-80 60s-80-26.86-80-60 35.82-60 80-60 80 26.86 80 60z" stroke="#000" stroke-opacity="0" fill="#dedffc"/><use xlink:href="#n" transform="matrix(1,0,0,1,380,1820) translate(61.029999999999994 63.15)"/><path d="M540 2360c0 33.14-35.82 60-80 60s-80-26.86-80-60 35.82-60 80-60 80 26.86 80 60z" stroke="#000" stroke-opacity="0" fill="#dedffc"/><use xlink:href="#o" transform="matrix(1,0,0,1,380,2300) translate(51.529999999999994 63.15)"/><path d="M540 3038.73c0 33.14-35.82 60-80 60s-80-26.86-80-60c0-33.13 35.82-60 80-60s80 26.87 80 60z" stroke="#000" stroke-opacity="0" fill="#dedffc"/><use xlink:href="#p" transform="matrix(1,0,0,1,380,2978.734400000001) translate(53.055 63.15)"/><path d="M379 2360H141.25c-2.76 0-5-2.24-5-5v-810.8" stroke="#7ab648" stroke-width="2" fill="none"/><path d="M380 2360v.38l.03.62h-1.06v-2h1.06z" fill="#7ab648"/><path d="M136.25 1544.23v-4.03M379 840H104.56c-2.76 0-5 2.24-5 5v558.84" stroke="#7ab648" stroke-width="2" fill="none"/><path d="M380 840v.38l.03.62h-1.06v-2h1.06zM100.56 1404.25l-2 1.2v-1.63h2z" fill="#7ab648"/><path d="M379 1880H272.35c-2.76 0-5-2.24-5-5v-397.5c0-2.76-2.24-5-5-5H155.7" stroke="#7ab648" stroke-width="2" fill="none"/><path d="M380 1880v.38l.03.62h-1.06v-2h1.06zM155.73 1473.5h-1.03v-2h1.03z" fill="#7ab648"/><path d="M379 1200H140.34c-2.77 0-5 2.24-5 5v199.25" stroke="#7ab648" stroke-width="2" fill="none"/><path d="M380 1200v.38l.03.62h-1.06v-2h1.06zM136.34 1406l-1.64-1.24-.36-.2v-.34h2z" fill="#7ab648"/><path d="M379 3038.73H103.75c-2.76 0-5-2.23-5-5V1544.2" stroke="#7ab648" stroke-width="2" fill="none"/><path d="M380 3038.73v.4l.03.6h-1.06v-2h1.06z" fill="#7ab648"/><path d="M98.75 1544.23v-4.03" stroke="#7ab648" stroke-width="2" fill="none"/><path d="M940 760c0 33.14-35.82 60-80 60s-80-26.86-80-60 35.82-60 80-60 80 26.86 80 60z" stroke="#000" stroke-opacity="0" fill="#dedffc"/><use xlink:href="#d" transform="matrix(1,0,0,1,780,700) translate(11.829999999999993 63.15)"/><use xlink:href="#q" transform="matrix(1,0,0,1,780,700) translate(55.379999999999995 63.15)"/><use xlink:href="#l" transform="matrix(1,0,0,1,780,700) translate(97.33 63.15)"/><path d="M940 940c0 33.14-35.82 60-80 60s-80-26.86-80-60 35.82-60 80-60 80 26.86 80 60z" stroke="#000" stroke-opacity="0" fill="#dedffc"/><use xlink:href="#d" transform="matrix(1,0,0,1,780,880) translate(29.555 51.9)"/><use xlink:href="#r" transform="matrix(1,0,0,1,780,880) translate(73.105 51.9)"/><use xlink:href="#s" transform="matrix(1,0,0,1,780,880) translate(50.07999999999999 73.5)"/><path d="M661 835.16l-1.1 3.4-2.92 2.13-1.9.3H541.82v-2h113.1l1.26-.2 2-1.46.82-2.5v-25.5h2zM779 761H665.16l-2.5.82-1.46 2-.2 1.26v25.6h-2V764.9l.3-1.9 2.13-2.9 3.4-1.12H779z" fill="#7ab648"/><path d="M780 760v.38l.03.62h-1.06v-2h1.06zM559.7 830.68L543.92 840l15.76 9.32-1.03 1.72L540 840l18.67-11.04z" fill="#7ab648"/><use xlink:href="#a" transform="matrix(1,0,0,1,618.5185185185185,790.6666666666666) translate(-5.705499999999994 12.444444444444446)"/><path d="M660.3 934.92l.2 1.26 1.47 2 2.5.82H779v2H664.14l-3.4-1.1-2.13-2.92-.3-1.9v-30.15h2zm-4.02-84.4l2.9 2.1 1.12 3.42v30.23h-2v-29.9l-.8-2.5-2-1.46-1.28-.2h-113.8v-2h113.96z" fill="#7ab648"/><path d="M780 940v.38l.03.62h-1.06v-2h1.06zM558.3 841.88l-15.77 9.32 15.76 9.32-1.03 1.72-18.67-11.04 18.67-11.04z" fill="#7ab648"/><use xlink:href="#a" transform="matrix(1,0,0,1,617.8203330472845,886.2672173463951) translate(-5.705499999999994 12.444444444444446)"/><path d="M740 1070c0 16.57-22.4 30-50 30s-50-13.43-50-30 22.4-30 50-30 50 13.43 50 30z" stroke="#000" stroke-opacity="0" fill="#dedffc"/><use xlink:href="#t" transform="matrix(1,0,0,1,640,1040) translate(22.28 33.15)"/><path d="M740 1150c0 16.57-22.4 30-50 30s-50-13.43-50-30 22.4-30 50-30 50 13.43 50 30z" stroke="#000" stroke-opacity="0" fill="#dedffc"/><use xlink:href="#u" transform="matrix(1,0,0,1,640,1120) translate(14.054999999999994 31.410000000000004)"/><path d="M740 1230c0 16.57-22.4 30-50 30s-50-13.43-50-30 22.4-30 50-30 50 13.43 50 30z" stroke="#000" stroke-opacity="0" fill="#dedffc"/><use xlink:href="#v" transform="matrix(1,0,0,1,640,1200) translate(12.529999999999996 33.410000000000004)"/><path d="M740 1310c0 16.57-22.4 30-50 30s-50-13.43-50-30 22.4-30 50-30 50 13.43 50 30z" stroke="#000" stroke-opacity="0" fill="#dedffc"/><use xlink:href="#w" transform="matrix(1,0,0,1,640,1280) translate(12.104999999999999 33.410000000000004)"/><path d="M740 1391.25c0 16.57-22.4 30-50 30s-50-13.43-50-30 22.4-30 50-30 50 13.43 50 30z" stroke="#000" stroke-opacity="0" fill="#dedffc"/><use xlink:href="#x" transform="matrix(1,0,0,1,640,1361.25) translate(16.554999999999993 33.15)"/><path d="M532.45 1071h-67.3l-2.5.82-1.45 2-.2 1.26v63.1h-2v-63.26l.3-1.9 2.13-2.9 3.4-1.12h67.62zm106.55 0h-23.6v-2H639z" fill="#7ab648"/><path d="M640 1070l.04 1h-1.07v-2h1.08zM471.04 1121.33L460 1140l-11.04-18.67 1.72-1.02 9.32 15.77 9.32-15.76z" fill="#7ab648"/><use xlink:href="#a" transform="matrix(1,0,0,1,532.4456026412978,1060.6666666666667) translate(-5.705499999999994 12.444444444444446)"/><path d="M639 1149v2h-23.6v-2zm-92.02-14.73l2.9 2.13 1.12 3.4v.87h-2v-.54l-.82-2.5-2-1.46-1.26-.2h-83.1v-2h83.26z" fill="#7ab648"/><path d="M640 1150l.04 1h-1.07v-2h1.08zM479.7 1125.65l-15.77 9.32 15.76 9.32-1.03 1.7-18.67-11.03 18.67-11.04z" fill="#7ab648"/><use xlink:href="#a" transform="matrix(1,0,0,1,532.4456026412978,1140.6666666666667) translate(-5.705499999999994 12.444444444444446)"/><path d="M591 1224.92l.2 1.26 1.46 2 2.5.82H639v2h-44.16l-3.4-1.1-2.13-2.92-.3-1.9v-.75h2zm-4.02-25.6l2.9 2.1 1.12 3.42v.83h-2v-.5l-.82-2.5-2-1.47-1.26-.2h-43.1v-2h43.26z" fill="#7ab648"/><path d="M640 1230l.04 1h-1.07v-2h1.08zM559.7 1190.68l-15.77 9.32 9.58 5.67h-3.92L540 1200l18.67-11.04z" fill="#7ab648"/><use xlink:href="#a" transform="matrix(1,0,0,1,548.5185185185185,1205.6666666666667) translate(-5.705499999999994 12.444444444444446)"/><path d="M461 1304.92l.2 1.26 1.46 2 2.5.82h73.23v2h-73.56l-3.4-1.1-2.13-2.92-.3-1.9v-43.26h2zm178 4.08v2h-17.64v-2z" fill="#7ab648"/><path d="M640 1310l.04 1h-1.07v-2h1.08zM471.04 1278.67l-1.72 1.02-9.32-15.77-9.32 15.76-1.72-1.03L460 1260z" fill="#7ab648"/><use xlink:href="#a" transform="matrix(1,0,0,1,538.3930335648499,1300.6666666666667) translate(-5.705499999999994 12.444444444444446)"/><path d="M403.4 1386.17l.2 1.26 1.46 2 2.5.82h120.7v2H407.23l-3.4-1.1-2.14-2.92-.3-1.9V1243.4h2zm235.6 4.08v2h-27.78v-2z" fill="#7ab648"/><path d="M640 1391.25l.04 1h-1.07v-2h1.08zM413.44 1260.26l-1.72 1.02-9.32-15.76-9.32 15.76-1.73-1.02 11.05-18.67z" fill="#7ab648"/><use xlink:href="#a" transform="matrix(1,0,0,1,528.2538498193034,1381.9166666666667) translate(-5.705499999999994 12.444444444444446)"/><path d="M630 1550c0-2.76 2.24-5 5-5h110c2.76 0 5 2.24 5 5v50c0 2.76-2.24 5-5 5H635c-2.76 0-5-2.24-5-5z" stroke="#000" stroke-opacity="0" fill="#dedffc"/><use xlink:href="#y" transform="matrix(1,0,0,1,638,1553) translate(12 14.799999999999999)"/><use xlink:href="#z" transform="matrix(1,0,0,1,638,1553) translate(15.049999999999997 36.4)"/><path d="M740 1481.25c0 21.4-22.4 38.75-50 38.75s-50-17.35-50-38.75 22.4-38.75 50-38.75 50 17.35 50 38.75z" stroke="#000" stroke-opacity="0" fill="#dedffc"/><use xlink:href="#A" transform="matrix(1,0,0,1,640,1442.5) translate(19.7911243867203 32.81449522078069)"/><use xlink:href="#B" transform="matrix(1,0,0,1,640,1442.5) translate(26.23045662680054 49.129988051951734)"/><path d="M438.64 1476.17l.2 1.26 1.47 2 2.5.82h87.66v2h-87.98l-3.4-1.1-2.13-2.92-.3-1.9V1259.4h2zm200.36 4.08v2h-25.57v-2z" fill="#7ab648"/><path d="M640 1481.25l.04 1h-1.07v-2h1.08zM448.68 1276.25l-1.72 1-9.32-15.74-9.32 15.76-1.72-1 11.04-18.68z" fill="#7ab648"/><use xlink:href="#a" transform="matrix(1,0,0,1,530.4631256667805,1471.9166666666667) translate(-5.705499999999994 12.444444444444446)"/><path d="M496.14 1569.84l.8 2.5 2 1.46 1.28.2h27v2h-27.16l-1.9-.3-2.9-2.13-1.12-3.4v-315.3h2zm132.04 4.16v2H612.7v-2z" fill="#7ab648"/><path d="M496.14 1254.9h-2v-.66l2-.74zM630 1575l-18.67 11.04-1-1.7h2.37v-1.43l13.37-7.9-13.37-7.9v-1.43h-2.38l1-1.7z" fill="#7ab648"/><use xlink:href="#C" transform="matrix(1,0,0,1,527.2275622725101,1565.6666666666667) translate(-5.705500000000001 12.444444444444446)"/><path d="M860 1385c0-2.76 2.24-5 5-5h110c2.76 0 5 2.24 5 5v50c0 2.76-2.24 5-5 5H865c-2.76 0-5-2.24-5-5z" stroke="#000" stroke-opacity="0" fill="#dedffc"/><use xlink:href="#D" transform="matrix(1,0,0,1,868,1388) translate(4 25.6)"/><use xlink:href="#E" transform="matrix(1,0,0,1,868,1388) translate(51 25.6)"/><path d="M801 1404.84l.82 2.5 2 1.46 1.26.2h53.1v2h-53.26l-1.9-.3-2.9-2.13-1.12-3.4v-29.5h2zm-2.43-334.73l2.12 2.92.3 1.9V1357h-2v-281.92l-.2-1.26-1.46-2-2.5-.82H741v-2h54.16z" fill="#7ab648"/><path d="M741.03 1071h-1.08l.05-1-.04-1h1.07zM860 1410l-18.67 11.04-1.02-1.72 15.77-9.32-15.76-9.32 1.03-1.72z" fill="#7ab648"/><use xlink:href="#C" transform="matrix(1,0,0,1,757.2654320987655,1356.9965246428715) translate(-5.705500000000001 12.444444444444446)"/><path d="M750 1780c0 22.1-24.62 40-55 40s-55-17.9-55-40 24.62-40 55-40 55 17.9 55 40z" stroke="#000" stroke-opacity="0" fill="#dedffc"/><use xlink:href="#F" transform="matrix(1,0,0,1,640,1740) translate(28.054999999999996 29.4)"/><use xlink:href="#G" transform="matrix(1,0,0,1,640,1740) translate(15.579999999999993 51)"/><use xlink:href="#H" transform="matrix(1,0,0,1,640,1740) translate(56.48 51)"/><path d="M750 1980c0 22.1-24.62 40-55 40s-55-17.9-55-40 24.62-40 55-40 55 17.9 55 40z" stroke="#000" stroke-opacity="0" fill="#dedffc"/><use xlink:href="#I" transform="matrix(1,0,0,1,640,1940) translate(35.730000000000004 31.9)"/><use xlink:href="#J" transform="matrix(1,0,0,1,640,1940) translate(31.529999999999998 53.5)"/><path d="M591 1875.16l-1.1 3.4-2.92 2.13-1.9.3h-43.26v-2h43.1l1.26-.2 2-1.46.82-2.5v-74.15h2zm48-94.16h-43.84l-2.5.82-.15.2h-2.46l1.4-1.9 3.4-1.12H639z" fill="#7ab648"/><path d="M640 1780v.75l.03.25h-1.06v-2h1.08zM559.7 1870.68l-15.77 9.32 15.76 9.32-1.03 1.72L540 1880l18.67-11.04z" fill="#7ab648"/><use xlink:href="#a" transform="matrix(1,0,0,1,548.5185185185185,1782.022795058771) translate(-5.705499999999994 12.444444444444446)"/><path d="M591 1974.92l.2 1.26 1.46 2 2.5.82H639v2h-44.16l-3.4-1.1-2.13-2.92-.3-1.9v-12.55h2zm-4.02-95.6l2.9 2.1 1.12 3.42v59.03h-2v-58.7l-.82-2.5-2-1.47-1.26-.2h-43.1v-2h43.26z" fill="#7ab648"/><path d="M640 1980v.75l.03.25h-1.06v-2h1.08zM559.7 1870.68l-15.77 9.32 15.76 9.32-1.03 1.72L540 1880l18.67-11.04z" fill="#7ab648"/><use xlink:href="#a" transform="matrix(1,0,0,1,548.5185185185185,1943.865561132191) translate(-5.705499999999994 12.444444444444446)"/><path d="M880 1755c0-2.76 2.24-5 5-5h110c2.76 0 5 2.24 5 5v50c0 2.76-2.24 5-5 5H885c-2.76 0-5-2.24-5-5z" stroke="#000" stroke-opacity="0" fill="#dedffc"/><use xlink:href="#K" transform="matrix(1,0,0,1,888,1758) translate(13.099999999999994 25.6)"/><use xlink:href="#L" transform="matrix(1,0,0,1,888,1758) translate(53 25.6)"/><path d="M1220 1730c0 27.6-26.86 50-60 50s-60-22.4-60-50 26.86-50 60-50 60 22.4 60 50z" stroke="#000" stroke-opacity="0" fill="#dedffc"/><use xlink:href="#M" transform="matrix(1,0,0,1,1100,1680) translate(15.127952878150483 43.939827757577476)"/><use xlink:href="#N" transform="matrix(1,0,0,1,1100,1680) translate(16.868398004623792 62.97456939394369)"/><use xlink:href="#O" transform="matrix(1,0,0,1,1100,1680) translate(66.12960436910856 62.97456939394369)"/><path d="M1220 1840c0 27.6-26.86 50-60 50s-60-22.4-60-50 26.86-50 60-50 60 22.4 60 50z" stroke="#000" stroke-opacity="0" fill="#dedffc"/><use xlink:href="#P" transform="matrix(1,0,0,1,1100,1790) translate(10.079999999999993 55.025)"/><use xlink:href="#Q" transform="matrix(1,0,0,1,1100,1790) translate(72.03 55.025)"/><path d="M1051 1775.16l-1.1 3.4-2.92 2.13-1.9.3h-43.26v-2h43.1l1.26-.2 2-1.46.82-2.5v-33h2zm48-44.16h-7.52v-2h7.52z" fill="#7ab648"/><path d="M1100 1730l.04 1h-1.07v-2h1.07zM1019.7 1770.68l-15.77 9.32 15.76 9.32-1.03 1.72L1000 1780l18.67-11.04z" fill="#7ab648"/><use xlink:href="#a" transform="matrix(1,0,0,1,1008.5185185185185,1723.1849005168106) translate(-5.705499999999994 12.444444444444446)"/><path d="M1099 1839v2h-3.66v-2zm-52.02-59.7l2.9 2.13 1.12 3.4v45.84h-2v-45.5l-.82-2.5-2-1.47-1.26-.2h-43.1v-2h43.26z" fill="#7ab648"/><path d="M1100 1840l.04 1h-1.07v-2h1.07zM1019.7 1770.68l-15.77 9.32 15.76 9.32-1.03 1.72L1000 1780l18.67-11.04z" fill="#7ab648"/><use xlink:href="#a" transform="matrix(1,0,0,1,1012.3802607293283,1830.6666666666667) translate(-5.705499999999994 12.444444444444446)"/><path d="M762.2 1781H751v-2h11.2zm115.98 0h-30.5v-2h30.5z" fill="#7ab648"/><path d="M751.03 1781h-1.08l.05-1v-.75l-.03-.25h1.06zM880 1780l-18.67 11.04-1.02-1.72 15.77-9.32-15.76-9.32 1.03-1.72z" fill="#7ab648"/><use xlink:href="#C" transform="matrix(1,0,0,1,762.2042949674901,1770.6666666666667) translate(-5.705500000000001 12.444444444444446)"/><path d="M750 2200c0 22.1-24.62 40-55 40s-55-17.9-55-40 24.62-40 55-40 55 17.9 55 40z" stroke="#000" stroke-opacity="0" fill="#dedffc"/><use xlink:href="#R" transform="matrix(1,0,0,1,640,2160) translate(15.004999999999997 37.410000000000004)"/><use xlink:href="#S" transform="matrix(1,0,0,1,640,2160) translate(26.529999999999998 59.01)"/><path d="M745 2540c0 22.1-24.62 40-55 40s-55-17.9-55-40 24.62-40 55-40 55 17.9 55 40z" stroke="#000" stroke-opacity="0" fill="#dedffc"/><use xlink:href="#T" transform="matrix(1,0,0,1,635,2500) translate(17.554999999999996 33.410000000000004)"/><use xlink:href="#S" transform="matrix(1,0,0,1,635,2500) translate(26.529999999999998 55.01)"/><path d="M591 2355.16l-1.1 3.4-2.92 2.13-1.9.3h-43.26v-2h43.1l1.26-.2 2-1.46.82-2.5v-128.7h2zM639 2201h-43.84l-2.5.82-1.46 2-.2 1.26v2.4h-2v-2.56l.3-1.9 2.13-2.9 3.4-1.12H639z" fill="#7ab648"/><path d="M640 2200v.75l.03.25h-1.06v-2h1.08zM559.7 2350.68l-15.77 9.32 15.76 9.32-1.03 1.72L540 2360l18.67-11.04z" fill="#7ab648"/><use xlink:href="#a" transform="matrix(1,0,0,1,548.5185185185185,2207.4695444129566) translate(-5.705499999999994 12.444444444444446)"/><path d="M588.5 2534.92l.2 1.26 1.46 2 2.5.82H634v2h-41.66l-3.4-1.1-2.13-2.92-.3-1.9v-29h2zm-4.02-175.6l2.9 2.1 1.12 3.42v122.58h-2v-122.26l-.82-2.5-2-1.46-1.26-.2h-40.6v-2h40.76z" fill="#7ab648"/><path d="M635 2540v.75l.03.25h-1.06v-2h1.08zM559.7 2350.68l-15.77 9.32 15.76 9.32-1.03 1.72L540 2360l18.67-11.04z" fill="#7ab648"/><use xlink:href="#a" transform="matrix(1,0,0,1,546.0185185185185,2487.4150955627892) translate(-5.705499999999994 12.444444444444446)"/><path d="M905.7 2111H880.1l-1.26.2-2 1.46-.82 2.5v79.92l-.3 1.9-2.13 2.9-3.4 1.12H751.8v-2h118.02l2.5-.82 1.46-2 .2-1.26v-80.08l1.1-3.4 2.92-2.13 1.9-.3h25.8zm93.3 0h-10.33v-2H999z" fill="#7ab648"/><path d="M769.7 2190.68l-15.77 9.32 15.76 9.32-1.03 1.72L750 2200l18.67-11.04zM1000 2110l.04 1h-1.07v-2h1.08z" fill="#7ab648"/><use xlink:href="#a" transform="matrix(1,0,0,1,905.7103772289911,2100.6666666666665) translate(-5.705499999999994 12.444444444444446)"/><path d="M880 1755c0-2.76 2.24-5 5-5h110c2.76 0 5 2.24 5 5v50c0 2.76-2.24 5-5 5H885c-2.76 0-5-2.24-5-5z" stroke="#000" stroke-opacity="0" fill="#dedffc"/><use xlink:href="#K" transform="matrix(1,0,0,1,888,1758) translate(13.099999999999994 25.6)"/><use xlink:href="#L" transform="matrix(1,0,0,1,888,1758) translate(53 25.6)"/><path d="M980 2465c0-2.76 2.24-5 5-5h110c2.76 0 5 2.24 5 5v50c0 2.76-2.24 5-5 5H985c-2.76 0-5-2.24-5-5z" stroke="#000" stroke-opacity="0" fill="#dedffc"/><use xlink:href="#U" transform="matrix(1,0,0,1,988,2468) translate(11.524999999999999 14.799999999999999)"/><use xlink:href="#V" transform="matrix(1,0,0,1,988,2468) translate(73.475 14.799999999999999)"/><use xlink:href="#W" transform="matrix(1,0,0,1,988,2468) translate(17.049999999999997 36.4)"/><path d="M980 2585c0-2.76 2.24-5 5-5h110c2.76 0 5 2.24 5 5v50c0 2.76-2.24 5-5 5H985c-2.76 0-5-2.24-5-5z" stroke="#000" stroke-opacity="0" fill="#dedffc"/><use xlink:href="#U" transform="matrix(1,0,0,1,988,2588) translate(11.524999999999999 14.799999999999999)"/><use xlink:href="#V" transform="matrix(1,0,0,1,988,2588) translate(73.475 14.799999999999999)"/><use xlink:href="#X" transform="matrix(1,0,0,1,988,2588) translate(37.525 36.4)"/><path d="M863.5 2535.08l-.3 1.9-2.13 2.9-3.4 1.12H746v-2h111.34l2.5-.82 1.46-2 .2-1.26v-35.6h2zM978.18 2491H943.2v-2h34.98z" fill="#7ab648"/><path d="M746.03 2541h-1.08l.05-1v-.75l-.03-.25h1.06zM980 2490l-18.67 11.04-1.02-1.72 15.77-9.32-15.76-9.32 1.03-1.72z" fill="#7ab648"/><use xlink:href="#C" transform="matrix(1,0,0,1,857.7381074202071,2480.6666666666665) translate(-5.705500000000001 12.444444444444446)"/><path d="M978.18 2609v2h-40.65v-2zm-117.1-68.9l2.1 2.92.32 1.9v55.75h-2v-55.6l-.2-1.25-1.46-2-2.5-.82H746v-2h111.66z" fill="#7ab648"/><path d="M746.03 2541h-1.08l.05-1v-.75l-.03-.25h1.06zM980 2610l-18.67 11.04-1.02-1.72 15.77-9.32-15.76-9.32 1.03-1.72z" fill="#7ab648"/><use xlink:href="#C" transform="matrix(1,0,0,1,852.0658385992846,2600.6666666666665) translate(-5.705500000000001 12.444444444444446)"/><path d="M745 2958.73c0 22.1-24.62 40-55 40s-55-17.9-55-40 24.62-40 55-40 55 17.9 55 40z" stroke="#000" stroke-opacity="0" fill="#dedffc"/><use xlink:href="#Y" transform="matrix(1,0,0,1,635,2918.734400000001) translate(23.029999999999998 31.9)"/><use xlink:href="#Z" transform="matrix(1,0,0,1,635,2918.734400000001) translate(23.529999999999998 53.5)"/><path d="M745 3118.73c0 22.1-24.62 40-55 40s-55-17.9-55-40 24.62-40 55-40 55 17.9 55 40z" stroke="#000" stroke-opacity="0" fill="#dedffc"/><use xlink:href="#Y" transform="matrix(1,0,0,1,635,3078.734400000001) translate(23.029999999999998 31.9)"/><use xlink:href="#Q" transform="matrix(1,0,0,1,635,3078.734400000001) translate(36.05499999999999 53.5)"/><path d="M588.5 3033.9l-1.1 3.4-2.92 2.13-1.9.3h-40.76v-2h40.6l1.26-.2 2-1.46.82-2.5v-25.5h2zm45.5-74.17h-41.34l-2.5.82-1.46 2-.2 1.26v25.6h-2v-25.75l.3-1.9 2.13-2.9 3.4-1.12H634z" fill="#7ab648"/><path d="M635 2958.73v.76l.03.23h-1.06v-2h1.08zM559.7 3029.4l-15.77 9.33 15.76 9.32-1.03 1.73-18.67-11.05 18.67-11.04z" fill="#7ab648"/><use xlink:href="#a" transform="matrix(1,0,0,1,546.0185185185185,2989.4010666666677) translate(-5.705499999999994 12.444444444444446)"/><path d="M588.5 3113.65l.2 1.27 1.46 2 2.5.8H634v2h-41.66l-3.4-1.1-2.13-2.9-.3-1.9v-25.75h2zm-4.02-75.6l2.9 2.1 1.12 3.43v25.82h-2v-25.5l-.82-2.5-2-1.46-1.26-.2h-40.6v-2h40.76z" fill="#7ab648"/><path d="M635 3118.73v.76l.03.23h-1.06v-2h1.08zM559.7 3029.4l-15.77 9.33 15.76 9.32-1.03 1.73-18.67-11.05 18.67-11.04z" fill="#7ab648"/><use xlink:href="#a" transform="matrix(1,0,0,1,546.0185185185185,3069.4010666666677) translate(-5.705499999999994 12.444444444444446)"/><path d="M143.75 3464.14c0 10.6-11.93 19.14-26.63 19.14-14.77 0-26.7-8.56-26.7-19.14 0-10.6 11.93-19.14 26.7-19.14 14.7 0 26.63 8.55 26.63 19.14zM94.25 3485.16h46.28c14.25 0 14.25 0 14.25 10.3s0 10.3-14.25 10.3H94.25c-14.25 0-14.25 0-14.25-10.3s0-10.3 14.25-10.3z" fill="#dedffc"/><path d="M97.4 3502.42h39.38v42.5H97.4v-42.5z" fill="#dedffc"/><path d="M97.4 3543.3h17.77v46.84H97.4v-46.83zM120.28 3543.74h16.5v46.12h-16.5v-46.12zM80.15 3492.85h13.5v41.04h-13.5v-41.05zM141.05 3493.43h13.65v41.04h-13.65v-41.04z" fill="#dedffc"/><use xlink:href="#aa" transform="matrix(1,0,0,1,50,3590) translate(36.38209259259259 18.11111111111111)"/><path d="M99.56 3446.34v-31.5c0-2.76-2.24-5-5-5h-49.4c-2.77 0-5-2.24-5-5V1477.5c0-2.76 2.23-5 5-5h28.63" stroke="#000" stroke-width="7" fill="none"/><path d="M103.06 3447.93l-.78.3-4.3 2.55-1.92 1.7v-6.23h7z"/><path d="M56.06 1482.68l17.2-10.18-17.2-10.18" stroke="#000" stroke-width="7" fill="none"/><path d="M860 3415c0 27.6-31.34 50-70 50s-70-22.4-70-50 31.34-50 70-50 70 22.4 70 50z" stroke="#000" stroke-opacity="0" fill="#dedffc"/><use xlink:href="#ab" transform="matrix(1,0,0,1,720,3365) translate(36.555 27.41)"/><use xlink:href="#ac" transform="matrix(1,0,0,1,720,3365) translate(38.029999999999994 49.01)"/><use xlink:href="#Z" transform="matrix(1,0,0,1,720,3365) translate(38.53 70.61)"/><path d="M560 3517.5c0 27.6-31.34 50-70 50s-70-22.4-70-50 31.34-50 70-50 70 22.4 70 50z" stroke="#000" stroke-opacity="0" fill="#dedffc"/><use xlink:href="#d" transform="matrix(1,0,0,1,420,3467.5) translate(23.079999999999995 42.525)"/><use xlink:href="#ad" transform="matrix(1,0,0,1,420,3467.5) translate(66.63 42.525)"/><use xlink:href="#ae" transform="matrix(1,0,0,1,420,3467.5) translate(38.55499999999999 64.125)"/><path d="M860 3635c0 27.6-31.34 50-70 50s-70-22.4-70-50 31.34-50 70-50 70 22.4 70 50z" stroke="#000" stroke-opacity="0" fill="#dedffc"/><use xlink:href="#ab" transform="matrix(1,0,0,1,720,3585) translate(36.55499999999999 42.525)"/><use xlink:href="#af" transform="matrix(1,0,0,1,720,3585) translate(16.579999999999995 64.125)"/><use xlink:href="#Q" transform="matrix(1,0,0,1,720,3585) translate(85.53 64.125)"/><path d="M155.7 3517.5H419" stroke="#7ab648" stroke-width="2" fill="none"/><path d="M155.73 3518.5h-1.03v-2h1.03zM420 3517.5l.04 1h-1.07v-2h1.07zM641 3512.66l-1.1 3.4-2.92 2.13-1.9.3h-73.26v-2h73.1l1.26-.2 2-1.46.82-2.5v-87.3h2zm78-96.66h-37.52v-2H719z" fill="#7ab648"/><path d="M720 3415l.04 1h-1.07v-2h1.07zM579.7 3508.18l-15.77 9.32 15.76 9.32-1.03 1.72L560 3517.5l18.67-11.04z" fill="#7ab648"/><use xlink:href="#a" transform="matrix(1,0,0,1,598.5185185185185,3406.3858955669134) translate(-5.705499999999994 12.444444444444446)"/><path d="M719 3634v2h-36.07v-2zm-82.02-117.2l2.9 2.13 1.12 3.4v103.34h-2v-103l-.82-2.5-2-1.47-1.26-.2h-73.1v-2h73.26z" fill="#7ab648"/><path d="M720 3635l.04 1h-1.07v-2h1.07zM579.7 3508.18l-15.77 9.32 15.76 9.32-1.03 1.72L560 3517.5l18.67-11.04z" fill="#7ab648"/><use xlink:href="#a" transform="matrix(1,0,0,1,599.9665760169247,3625.6666666666665) translate(-5.705499999999994 12.444444444444446)"/><path d="M1362.53 1746h-17.45l-1.26.2-2 1.46-.82 2.5v84.92l-.3 1.9-2.13 2.9-3.4 1.12H1221.8v-2h113.02l2.5-.82 1.46-2 .2-1.26v-85.08l1.1-3.4 2.92-2.13 1.9-.3h17.6zm96.47 0h-13.5v-2h13.5z" fill="#7ab648"/><path d="M1239.7 1830.68l-15.77 9.32 15.76 9.32-1.03 1.72L1220 1840l18.67-11.04zM1460 1745v.95l-1.03.05v-2h1.08z" fill="#7ab648"/><use xlink:href="#a" transform="matrix(1,0,0,1,1362.5315659381963,1735.6666666666667) translate(-5.705499999999994 12.444444444444446)"/><path d="M1340.03 1839.97l1.47 3.53 1.2.5h21.22v2h-21.62l-2.33-.97-1.47-3.53-1.2-.5h-115.48v-2h115.88zM1459 1844v2h-12.1v-2z" fill="#7ab648"/><path d="M1239.7 1830.68l-15.77 9.32 15.76 9.32-1.03 1.72L1220 1840l18.67-11.04zM1460 1845v.95l-1.03.05v-2h1.08z" fill="#7ab648"/><use xlink:href="#a" transform="matrix(1,0,0,1,1363.9242762013882,1835.6666666666667) translate(-5.705499999999994 12.444444444444446)"/><path d="M1333.57 1840.1l2.12 2.92.3 1.9v114.92l.82 2.5 2 1.46 1.26.2h14.2v2h-14.36l-1.9-.3-2.9-2.13-1.12-3.4v-115.1l-.2-1.25-1.46-2-2.5-.82h-108.02v-2h108.34zM1449 1964v2h-11.76v-2z" fill="#7ab648"/><path d="M1239.7 1830.68l-15.77 9.32 15.76 9.32-1.03 1.72L1220 1840l18.67-11.04zM1450 1965l.04 1h-1.07v-2h1.07z" fill="#7ab648"/><use xlink:href="#a" transform="matrix(1,0,0,1,1354.2744433532766,1955.6666666666667) translate(-5.705499999999994 12.444444444444446)"/><path d="M1240 760c0 33.14-35.82 60-80 60s-80-26.86-80-60 35.82-60 80-60 80 26.86 80 60z" stroke="#000" stroke-opacity="0" fill="#dedffc"/><use xlink:href="#ag" transform="matrix(1,0,0,1,1080,700) translate(57.88 29.4)"/><use xlink:href="#ah" transform="matrix(1,0,0,1,1080,700) translate(18.404999999999994 51)"/><use xlink:href="#ai" transform="matrix(1,0,0,1,1080,700) translate(59.705 51)"/><use xlink:href="#aj" transform="matrix(1,0,0,1,1080,700) translate(36.779999999999994 72.60000000000001)"/><use xlink:href="#ak" transform="matrix(1,0,0,1,1080,700) translate(55.73 72.60000000000001)"/><use xlink:href="#al" transform="matrix(1,0,0,1,1080,700) translate(35.505 94.20000000000002)"/><path d="M977.48 761h-35.66v-2h35.66zm101.52 0h-18.55v-2H1079z" fill="#7ab648"/><path d="M1080 760v.38l.03.62h-1.06v-2h1.06zM959.7 750.68L943.92 760l15.76 9.32-1.03 1.72L940 760l18.67-11.04z" fill="#7ab648"/><use xlink:href="#am" transform="matrix(1,0,0,1,977.4846702840732,750.6666666666666) translate(-5.705499999999994 12.444444444444446)"/><path d="M540 3332.5c0 33.14-35.82 60-80 60s-80-26.86-80-60 35.82-60 80-60 80 26.86 80 60z" stroke="#000" stroke-opacity="0" fill="#dedffc"/><use xlink:href="#an" transform="matrix(1,0,0,1,380,3272.5) translate(36.08 40.65)"/><use xlink:href="#ao" transform="matrix(1,0,0,1,380,3272.5) translate(20.554999999999993 62.25)"/><use xlink:href="#ap" transform="matrix(1,0,0,1,380,3272.5) translate(71.505 62.25)"/><use xlink:href="#aq" transform="matrix(1,0,0,1,380,3272.5) translate(118.505 62.25)"/><use xlink:href="#G" transform="matrix(1,0,0,1,380,3272.5) translate(28.129999999999992 83.85000000000001)"/><use xlink:href="#ar" transform="matrix(1,0,0,1,380,3272.5) translate(69.03 83.85000000000001)"/><path d="M379 3332.5H83.66c-2.76 0-5-2.24-5-5v-1854" stroke="#7ab648" stroke-width="2" fill="none"/><path d="M380 3332.5v.38l.03.62h-1.06v-2h1.06z" fill="#7ab648"/><path d="M78.66 1473.53v-1.03" stroke="#7ab648" stroke-width="2" fill="none"/><path d="M1570 1745c0 24.85-24.62 45-55 45s-55-20.15-55-45 24.62-45 55-45 55 20.15 55 45z" stroke="#000" stroke-opacity="0" fill="#dedffc"/><use xlink:href="#as" transform="matrix(1,0,0,1,1460,1700) translate(26.529999999999998 36.9)"/><use xlink:href="#at" transform="matrix(1,0,0,1,1460,1700) translate(19.055 58.5)"/><use xlink:href="#au" transform="matrix(1,0,0,1,1460,1700) translate(43.055 58.5)"/><path d="M1570 1845c0 24.85-24.62 45-55 45s-55-20.15-55-45 24.62-45 55-45 55 20.15 55 45z" stroke="#000" stroke-opacity="0" fill="#dedffc"/><g><use xlink:href="#as" transform="matrix(1,0,0,1,1460,1800) translate(26.529999999999998 29.41)"/><use xlink:href="#at" transform="matrix(1,0,0,1,1460,1800) translate(13.029999999999996 51.01)"/><use xlink:href="#av" transform="matrix(1,0,0,1,1460,1800) translate(37.029999999999994 51.01)"/></g><path d="M1570 1965c0 24.85-26.86 45-60 45s-60-20.15-60-45 26.86-45 60-45 60 20.15 60 45z" stroke="#000" stroke-opacity="0" fill="#dedffc"/><g><use xlink:href="#P" transform="matrix(1,0,0,1,1450,1920) translate(19.529999999999998 36.9)"/><use xlink:href="#aw" transform="matrix(1,0,0,1,1450,1920) translate(81.48 36.9)"/><use xlink:href="#ax" transform="matrix(1,0,0,1,1450,1920) translate(20.005 58.5)"/></g><path d="M1100 2110c0 27.6-22.4 50-50 50s-50-22.4-50-50 22.4-50 50-50 50 22.4 50 50z" stroke="#000" stroke-opacity="0" fill="#dedffc"/><g><use xlink:href="#as" transform="matrix(1,0,0,1,1000,2060) translate(21.529999999999994 42.525)"/><use xlink:href="#at" transform="matrix(1,0,0,1,1000,2060) translate(18.529999999999994 64.125)"/><use xlink:href="#ay" transform="matrix(1,0,0,1,1000,2060) translate(42.529999999999994 64.125)"/></g><path d="M1100 2230c0 27.6-22.4 50-50 50s-50-22.4-50-50 22.4-50 50-50 50 22.4 50 50z" stroke="#000" stroke-opacity="0" fill="#dedffc"/><g><use xlink:href="#as" transform="matrix(1,0,0,1,1000,2180) translate(21.529999999999994 42.525)"/><use xlink:href="#at" transform="matrix(1,0,0,1,1000,2180) translate(17.055 64.125)"/><use xlink:href="#az" transform="matrix(1,0,0,1,1000,2180) translate(41.055 64.125)"/></g><path d="M1100 2350c0 27.6-22.4 50-50 50s-50-22.4-50-50 22.4-50 50-50 50 22.4 50 50z" stroke="#000" stroke-opacity="0" fill="#dedffc"/><g><use xlink:href="#aA" transform="matrix(1,0,0,1,1000,2300) translate(14.336890382781357 43.939827757577476)"/><use xlink:href="#aB" transform="matrix(1,0,0,1,1000,2300) translate(68.92958688152613 43.939827757577476)"/><use xlink:href="#aC" transform="matrix(1,0,0,1,1000,2300) translate(20.285247144145806 62.97456939394369)"/></g><path d="M520 2750c0 27.6-26.86 50-60 50s-60-22.4-60-50 26.86-50 60-50 60 22.4 60 50z" stroke="#000" stroke-opacity="0" fill="#dedffc"/><g><use xlink:href="#aD" transform="matrix(1,0,0,1,400,2700) translate(17.029999999999994 55.025)"/></g><path d="M1580 1350c0 27.6-26.86 50-60 50s-60-22.4-60-50 26.86-50 60-50 60 22.4 60 50z" stroke="#000" stroke-opacity="0" fill="#dedffc"/><g><use xlink:href="#aE" transform="matrix(1,0,0,1,1460,1300) translate(23.08 42.525)"/><use xlink:href="#aF" transform="matrix(1,0,0,1,1460,1300) translate(66.03 42.525)"/><use xlink:href="#aG" transform="matrix(1,0,0,1,1460,1300) translate(33.529999999999994 64.125)"/></g><path d="M1580 1470c0 27.6-26.86 50-60 50s-60-22.4-60-50 26.86-50 60-50 60 22.4 60 50z" stroke="#000" stroke-opacity="0" fill="#dedffc"/><g><use xlink:href="#d" transform="matrix(1,0,0,1,1460,1420) translate(14.279999999999996 55.025)"/><use xlink:href="#aH" transform="matrix(1,0,0,1,1460,1420) translate(57.83 55.025)"/></g><path d="M1364.05 1351.36l-1.4.46-1.45 2-.2 1.26v51.33l-1.1 3.42-2.92 2.12-1.9.3h-93.26v-2h93.1l1.26-.2 2-1.45.82-2.5v-51.18l.3-1.9 2.13-2.9 2.62-.86zm94.95-.36h-11.98v-2H1459z" fill="#7ab648"/><path d="M1460 1350l.04 1h-1.07v-2h1.07zM1279.7 1401.93l-15.77 9.32 15.76 9.32-1.03 1.72-18.67-11.05 18.67-11.04z" fill="#7ab648"/><g><use xlink:href="#a" transform="matrix(1,0,0,1,1364.0549398606092,1340.6666666666667) translate(-5.705499999999994 12.444444444444446)"/></g><path d="M1356.98 1409.3l2.9 2.13 1.12 3.4v50.1l.2 1.25 1.46 2 2.5.82h11.5v2h-11.82l-3.4-1.1-2.13-2.92-.3-1.9v-49.92l-.82-2.5-2-1.46-1.26-.2h-93.1v-2h93.26zM1460 1470l.04 1h-.43v-2h.44z" fill="#7ab648"/><path d="M1279.7 1400.68l-15.77 9.32 15.76 9.32-1.03 1.72L1260 1410l18.67-11.04z" fill="#7ab648"/><g><use xlink:href="#a" transform="matrix(1,0,0,1,1376.6452729663813,1460.6666666666667) translate(-5.705499999999994 12.444444444444446)"/></g><path d="M1017.27 1411H981v-2h36.27zm120.9 0h-35.44v-2h35.45z" fill="#7ab648"/><path d="M981.03 1411H980v-2h1.03zM1140 1410l-18.67 11.04-1.02-1.72 15.77-9.32-15.76-9.32 1.03-1.72z" fill="#7ab648"/><g><use xlink:href="#aI" transform="matrix(1,0,0,1,1017.2654320987655,1400.6666666666667) translate(-5.705500000000001 12.444444444444446)"/></g><path d="M1140 1385c0-2.76 2.24-5 5-5h110c2.76 0 5 2.24 5 5v50c0 2.76-2.24 5-5 5h-110c-2.76 0-5-2.24-5-5z" stroke="#000" stroke-opacity="0" fill="#dedffc"/><g><use xlink:href="#aJ" transform="matrix(1,0,0,1,1148,1388) translate(1.0749999999999957 14.799999999999999)"/><use xlink:href="#aK" transform="matrix(1,0,0,1,1148,1388) translate(2.5249999999999986 36.4)"/><use xlink:href="#aL" transform="matrix(1,0,0,1,1148,1388) translate(59.475 36.4)"/></g><path d="M720 2700c0 22.1-22.4 40-50 40s-50-17.9-50-40 22.4-40 50-40 50 17.9 50 40z" stroke="#000" stroke-opacity="0" fill="#dedffc"/><g><use xlink:href="#aM" transform="matrix(1,0,0,1,620,2660) translate(14.004999999999997 37.410000000000004)"/><use xlink:href="#aN" transform="matrix(1,0,0,1,620,2660) translate(33.53 59.01)"/></g><path d="M720 2800c0 22.1-22.4 40-50 40s-50-17.9-50-40 22.4-40 50-40 50 17.9 50 40z" stroke="#000" stroke-opacity="0" fill="#dedffc"/><g><use xlink:href="#aM" transform="matrix(1,0,0,1,620,2760) translate(14.004999999999997 37.410000000000004)"/><use xlink:href="#aO" transform="matrix(1,0,0,1,620,2760) translate(25.029999999999998 59.01)"/></g><path d="M571 2745.08l-.3 1.9-2.13 2.9-3.4 1.12H521.8v-2h43.02l2.5-.82 1.46-2 .2-1.26v-35.6h2zm48-44.08h-7.17v-2H619z" fill="#7ab648"/><path d="M539.7 2740.68l-15.77 9.32 15.76 9.32-1.03 1.72L520 2750l18.67-11.04zM620 2700l.04 1h-1.07v-2h1.08z" fill="#7ab648"/><g><use xlink:href="#am" transform="matrix(1,0,0,1,528.864361343406,2690.6666666666665) translate(-5.705499999999994 12.444444444444446)"/></g><path d="M619 2799v2h-7.52v-2zm-52.02-49.7l2.9 2.13 1.12 3.4v35.84h-2v-35.5l-.82-2.5-2-1.47-1.26-.2h-43.1v-2h43.26z" fill="#7ab648"/><path d="M620 2800l.04 1h-1.07v-2h1.08zM539.7 2740.68l-15.77 9.32 15.76 9.32-1.03 1.72L520 2750l18.67-11.04z" fill="#7ab648"/><g><use xlink:href="#am" transform="matrix(1,0,0,1,528.5185185185185,2790.6666666666665) translate(-5.705499999999994 12.444444444444446)"/></g><path d="M399 2750H103.75c-2.76 0-5-2.24-5-5V1544.2" stroke="#7ab648" stroke-width="2" fill="none"/><path d="M400 2750l.04 1h-1.07v-2h1.07z" fill="#7ab648"/><path d="M98.75 1544.23v-4.03" stroke="#7ab648" stroke-width="2" fill="none"/><defs><path fill="#c92d39" d="M18-100v-36l175-74v27L42-118l151 64v27" id="aP"/><path fill="#c92d39" d="M100-194c63 0 86 42 84 106H49c0 40 14 67 53 68 26 1 43-12 49-29l28 8c-11 28-37 45-77 45C44 4 14-33 15-96c1-61 26-98 85-98zm52 81c6-60-76-77-97-28-3 7-6 17-6 28h103" id="aQ"/><path fill="#c92d39" d="M141 0L90-78 38 0H4l68-98-65-92h35l48 74 47-74h35l-64 92 68 98h-35" id="aR"/><path fill="#c92d39" d="M59-47c-2 24 18 29 38 22v24C64 9 27 4 27-40v-127H5v-23h24l9-43h21v43h35v23H59v120" id="aS"/><path fill="#c92d39" d="M117-194c89-4 53 116 60 194h-32v-121c0-31-8-49-39-48C34-167 62-67 57 0H25l-1-190h30c1 10-1 24 2 32 11-22 29-35 61-36" id="aT"/><path fill="#c92d39" d="M85-194c31 0 48 13 60 33l-1-100h32l1 261h-30c-2-10 0-23-3-31C134-8 116 4 85 4 32 4 16-35 15-94c0-66 23-100 70-100zm9 24c-40 0-46 34-46 75 0 40 6 74 45 74 42 0 51-32 51-76 0-42-9-74-50-73" id="aU"/><path fill="#c92d39" d="M18-27v-27l151-64-151-65v-27l175 74v36" id="aV"/><g id="a"><use transform="matrix(0.04320987654320988,0,0,0.04320987654320988,0,0)" xlink:href="#aP"/><use transform="matrix(0.04320987654320988,0,0,0.04320987654320988,9.074074074074074,0)" xlink:href="#aP"/><use transform="matrix(0.04320987654320988,0,0,0.04320987654320988,18.14814814814815,0)" xlink:href="#aQ"/><use transform="matrix(0.04320987654320988,0,0,0.04320987654320988,26.790123456790127,0)" xlink:href="#aR"/><use transform="matrix(0.04320987654320988,0,0,0.04320987654320988,34.567901234567906,0)" xlink:href="#aS"/><use transform="matrix(0.04320987654320988,0,0,0.04320987654320988,38.88888888888889,0)" xlink:href="#aQ"/><use transform="matrix(0.04320987654320988,0,0,0.04320987654320988,47.53086419753087,0)" xlink:href="#aT"/><use transform="matrix(0.04320987654320988,0,0,0.04320987654320988,56.17283950617284,0)" xlink:href="#aU"/><use transform="matrix(0.04320987654320988,0,0,0.04320987654320988,64.81481481481482,0)" xlink:href="#aV"/><use transform="matrix(0.04320987654320988,0,0,0.04320987654320988,73.8888888888889,0)" xlink:href="#aV"/></g><path fill="#666" d="M143 4C61 4 22-44 18-125c-5-107 100-154 193-111 17 8 29 25 37 43l-32 9c-13-25-37-40-76-40-61 0-88 39-88 99 0 61 29 100 91 101 35 0 62-11 79-27v-45h-74v-28h105v86C228-13 192 4 143 4" id="aW"/><path fill="#666" d="M232-93c-1 65-40 97-104 97C67 4 28-28 28-90v-158h33c8 89-33 224 67 224 102 0 64-133 71-224h33v155" id="aX"/><path fill="#666" d="M30 0v-248h187v28H63v79h144v27H63v87h162V0H30" id="aY"/><path fill="#666" d="M185-189c-5-48-123-54-124 2 14 75 158 14 163 119 3 78-121 87-175 55-17-10-28-26-33-46l33-7c5 56 141 63 141-1 0-78-155-14-162-118-5-82 145-84 179-34 5 7 8 16 11 25" id="aZ"/><path fill="#666" d="M127-220V0H93v-220H8v-28h204v28h-85" id="ba"/><g id="b"><use transform="matrix(0.04320987654320988,0,0,0.04320987654320988,0,0)" xlink:href="#aW"/><use transform="matrix(0.04320987654320988,0,0,0.04320987654320988,12.098765432098766,0)" xlink:href="#aX"/><use transform="matrix(0.04320987654320988,0,0,0.04320987654320988,23.290123456790127,0)" xlink:href="#aY"/><use transform="matrix(0.04320987654320988,0,0,0.04320987654320988,33.6604938271605,0)" xlink:href="#aZ"/><use transform="matrix(0.04320987654320988,0,0,0.04320987654320988,44.030864197530875,0)" xlink:href="#ba"/></g><path fill="#666" d="M233-177c-1 41-23 64-60 70L243 0h-38l-65-103H63V0H30v-248c88 3 205-21 203 71zM63-129c60-2 137 13 137-47 0-61-80-42-137-45v92" id="bb"/><g id="c"><use transform="matrix(0.04320987654320988,0,0,0.04320987654320988,0,0)" xlink:href="#aX"/><use transform="matrix(0.04320987654320988,0,0,0.04320987654320988,11.19135802469136,0)" xlink:href="#aZ"/><use transform="matrix(0.04320987654320988,0,0,0.04320987654320988,21.56172839506173,0)" xlink:href="#aY"/><use transform="matrix(0.04320987654320988,0,0,0.04320987654320988,31.9320987654321,0)" xlink:href="#bb"/></g><path d="M137 0h-34L2-248h35l83 218 83-218h36" id="bc"/><path d="M24-231v-30h32v30H24zM24 0v-190h32V0H24" id="bd"/><path d="M100-194c63 0 86 42 84 106H49c0 40 14 67 53 68 26 1 43-12 49-29l28 8c-11 28-37 45-77 45C44 4 14-33 15-96c1-61 26-98 85-98zm52 81c6-60-76-77-97-28-3 7-6 17-6 28h103" id="be"/><path d="M206 0h-36l-40-164L89 0H53L-1-190h32L70-26l43-164h34l41 164 42-164h31" id="bf"/><g id="d"><use transform="matrix(0.05,0,0,0.05,0,0)" xlink:href="#bc"/><use transform="matrix(0.05,0,0,0.05,11.65,0)" xlink:href="#bd"/><use transform="matrix(0.05,0,0,0.05,15.600000000000001,0)" xlink:href="#be"/><use transform="matrix(0.05,0,0,0.05,25.6,0)" xlink:href="#bf"/></g><path d="M30 0v-248h33v221h125V0H30" id="bg"/><path d="M210-169c-67 3-38 105-44 169h-31v-121c0-29-5-50-35-48C34-165 62-65 56 0H25l-1-190h30c1 10-1 24 2 32 10-44 99-50 107 0 11-21 27-35 58-36 85-2 47 119 55 194h-31v-121c0-29-5-49-35-48" id="bh"/><path d="M59-47c-2 24 18 29 38 22v24C64 9 27 4 27-40v-127H5v-23h24l9-43h21v43h35v23H59v120" id="bi"/><path d="M85-194c31 0 48 13 60 33l-1-100h32l1 261h-30c-2-10 0-23-3-31C134-8 116 4 85 4 32 4 16-35 15-94c0-66 23-100 70-100zm9 24c-40 0-46 34-46 75 0 40 6 74 45 74 42 0 51-32 51-76 0-42-9-74-50-73" id="bj"/><g id="e"><use transform="matrix(0.05,0,0,0.05,0,0)" xlink:href="#bg"/><use transform="matrix(0.05,0,0,0.05,10,0)" xlink:href="#bd"/><use transform="matrix(0.05,0,0,0.05,13.949999999999998,0)" xlink:href="#bh"/><use transform="matrix(0.05,0,0,0.05,28.899999999999995,0)" xlink:href="#be"/><use transform="matrix(0.05,0,0,0.05,38.9,0)" xlink:href="#bi"/><use transform="matrix(0.05,0,0,0.05,43.9,0)" xlink:href="#be"/><use transform="matrix(0.05,0,0,0.05,53.900000000000006,0)" xlink:href="#bj"/></g><path d="M30 0v-248h187v28H63v79h144v27H63v87h162V0H30" id="bk"/><path d="M141 0L90-78 38 0H4l68-98-65-92h35l48 74 47-74h35l-64 92 68 98h-35" id="bl"/><path d="M114-163C36-179 61-72 57 0H25l-1-190h30c1 12-1 29 2 39 6-27 23-49 58-41v29" id="bm"/><path d="M96-169c-40 0-48 33-48 73s9 75 48 75c24 0 41-14 43-38l32 2c-6 37-31 61-74 61-59 0-76-41-82-99-10-93 101-131 147-64 4 7 5 14 7 22l-32 3c-4-21-16-35-41-35" id="bn"/><path d="M135-143c-3-34-86-38-87 0 15 53 115 12 119 90S17 21 10-45l28-5c4 36 97 45 98 0-10-56-113-15-118-90-4-57 82-63 122-42 12 7 21 19 24 35" id="bo"/><g id="f"><use transform="matrix(0.05,0,0,0.05,0,0)" xlink:href="#bk"/><use transform="matrix(0.05,0,0,0.05,12,0)" xlink:href="#bl"/><use transform="matrix(0.05,0,0,0.05,21,0)" xlink:href="#be"/><use transform="matrix(0.05,0,0,0.05,31,0)" xlink:href="#bm"/><use transform="matrix(0.05,0,0,0.05,36.95,0)" xlink:href="#bn"/><use transform="matrix(0.05,0,0,0.05,45.95,0)" xlink:href="#bd"/><use transform="matrix(0.05,0,0,0.05,49.900000000000006,0)" xlink:href="#bo"/><use transform="matrix(0.05,0,0,0.05,58.900000000000006,0)" xlink:href="#be"/><use transform="matrix(0.05,0,0,0.05,68.9,0)" xlink:href="#bo"/></g><path d="M233-177c-1 41-23 64-60 70L243 0h-38l-65-103H63V0H30v-248c88 3 205-21 203 71zM63-129c60-2 137 13 137-47 0-61-80-42-137-45v92" id="bp"/><path d="M177-190C167-65 218 103 67 71c-23-6-38-20-44-43l32-5c15 47 100 32 89-28v-30C133-14 115 1 83 1 29 1 15-40 15-95c0-56 16-97 71-98 29-1 48 16 59 35 1-10 0-23 2-32h30zM94-22c36 0 50-32 50-73 0-42-14-75-50-75-39 0-46 34-46 75s6 73 46 73" id="bq"/><g id="g"><use transform="matrix(0.05,0,0,0.05,0,0)" xlink:href="#bp"/><use transform="matrix(0.05,0,0,0.05,12.950000000000001,0)" xlink:href="#be"/><use transform="matrix(0.05,0,0,0.05,22.950000000000003,0)" xlink:href="#bq"/><use transform="matrix(0.05,0,0,0.05,32.95,0)" xlink:href="#bd"/><use transform="matrix(0.05,0,0,0.05,36.900000000000006,0)" xlink:href="#bo"/><use transform="matrix(0.05,0,0,0.05,45.900000000000006,0)" xlink:href="#bi"/><use transform="matrix(0.05,0,0,0.05,50.900000000000006,0)" xlink:href="#be"/><use transform="matrix(0.05,0,0,0.05,60.900000000000006,0)" xlink:href="#bm"/></g><path fill="#666" d="M76-105c-23 59 45 89 88 55 12-10 18-24 22-45l30-153h51C238-143 259 4 118 4 48 4 11-39 25-112l26-136h52" id="br"/><path fill="#666" d="M178-136c88 48 22 151-73 140C49-3 12-15 4-64l51-9c1 50 111 53 115 3-16-63-132-20-133-112 0-93 190-91 199-10l-50 12c-4-41-93-50-97-4 7 38 59 32 89 48" id="bs"/><path fill="#666" d="M6 0l48-248h195l-8 40H98l-12 63h132l-7 40H79L66-40h150l-8 40H6" id="bt"/><path fill="#666" d="M258-177c0 46-32 67-71 75L235 0h-57l-41-94H76L58 0H6l48-248c89 2 204-19 204 71zm-53 3c0-46-63-30-107-33l-14 73c51-2 120 13 121-40" id="bu"/><g id="h"><use transform="matrix(0.04320987654320988,0,0,0.04320987654320988,0,0)" xlink:href="#br"/><use transform="matrix(0.04320987654320988,0,0,0.04320987654320988,11.19135802469136,0)" xlink:href="#bs"/><use transform="matrix(0.04320987654320988,0,0,0.04320987654320988,21.56172839506173,0)" xlink:href="#bt"/><use transform="matrix(0.04320987654320988,0,0,0.04320987654320988,31.9320987654321,0)" xlink:href="#bu"/></g><path fill="#666" d="M70-104c-4 71 81 81 132 50l8-40h-60l7-37h108L246-31C216-10 181 3 130 3 60 2 18-32 18-102c-1-106 79-169 188-144 33 8 53 31 63 63l-50 14c-6-26-25-42-56-42-62 0-89 43-93 107" id="bv"/><path fill="#666" d="M157-208L117 0H65l40-208H25l8-40h212l-8 40h-80" id="bw"/><g id="i"><use transform="matrix(0.04320987654320988,0,0,0.04320987654320988,0,0)" xlink:href="#bv"/><use transform="matrix(0.04320987654320988,0,0,0.04320987654320988,12.098765432098766,0)" xlink:href="#br"/><use transform="matrix(0.04320987654320988,0,0,0.04320987654320988,23.290123456790127,0)" xlink:href="#bt"/><use transform="matrix(0.04320987654320988,0,0,0.04320987654320988,33.6604938271605,0)" xlink:href="#bs"/><use transform="matrix(0.04320987654320988,0,0,0.04320987654320988,44.030864197530875,0)" xlink:href="#bw"/></g><g id="j"><use transform="matrix(0.04320987654320988,0,0,0.04320987654320988,0,0)" xlink:href="#br"/><use transform="matrix(0.04320987654320988,0,0,0.04320987654320988,11.19135802469136,0)" xlink:href="#bs"/><use transform="matrix(0.04320987654320988,0,0,0.04320987654320988,21.56172839506173,0)" xlink:href="#bt"/><use transform="matrix(0.04320987654320988,0,0,0.04320987654320988,31.9320987654321,0)" xlink:href="#bu"/></g><path d="M232-93c-1 65-40 97-104 97C67 4 28-28 28-90v-158h33c8 89-33 224 67 224 102 0 64-133 71-224h33v155" id="bx"/><g id="k"><use transform="matrix(0.05,0,0,0.05,0,0)" xlink:href="#bx"/><use transform="matrix(0.05,0,0,0.05,12.950000000000001,0)" xlink:href="#bo"/><use transform="matrix(0.05,0,0,0.05,21.950000000000003,0)" xlink:href="#be"/><use transform="matrix(0.05,0,0,0.05,31.950000000000003,0)" xlink:href="#bm"/></g><path d="M30-248c87 1 191-15 191 75 0 78-77 80-158 76V0H30v-248zm33 125c57 0 124 11 124-50 0-59-68-47-124-48v98" id="by"/><path d="M100-194c62-1 85 37 85 99 1 63-27 99-86 99S16-35 15-95c0-66 28-99 85-99zM99-20c44 1 53-31 53-75 0-43-8-75-51-75s-53 32-53 75 10 74 51 75" id="bz"/><path d="M101-234c-31-9-42 10-38 44h38v23H63V0H32v-167H5v-23h27c-7-52 17-82 69-68v24" id="bA"/><path d="M24 0v-261h32V0H24" id="bB"/><g id="l"><use transform="matrix(0.05,0,0,0.05,0,0)" xlink:href="#by"/><use transform="matrix(0.05,0,0,0.05,12,0)" xlink:href="#bm"/><use transform="matrix(0.05,0,0,0.05,17.95,0)" xlink:href="#bz"/><use transform="matrix(0.05,0,0,0.05,27.950000000000003,0)" xlink:href="#bA"/><use transform="matrix(0.05,0,0,0.05,32.95,0)" xlink:href="#bd"/><use transform="matrix(0.05,0,0,0.05,36.900000000000006,0)" xlink:href="#bB"/><use transform="matrix(0.05,0,0,0.05,40.85000000000001,0)" xlink:href="#be"/></g><g id="m"><use transform="matrix(0.05,0,0,0.05,0,0)" xlink:href="#bk"/><use transform="matrix(0.05,0,0,0.05,12,0)" xlink:href="#bl"/><use transform="matrix(0.05,0,0,0.05,21,0)" xlink:href="#be"/><use transform="matrix(0.05,0,0,0.05,31,0)" xlink:href="#bm"/><use transform="matrix(0.05,0,0,0.05,36.95,0)" xlink:href="#bn"/><use transform="matrix(0.05,0,0,0.05,45.95,0)" xlink:href="#bd"/><use transform="matrix(0.05,0,0,0.05,49.900000000000006,0)" xlink:href="#bo"/><use transform="matrix(0.05,0,0,0.05,58.900000000000006,0)" xlink:href="#be"/></g><path d="M212-179c-10-28-35-45-73-45-59 0-87 40-87 99 0 60 29 101 89 101 43 0 62-24 78-52l27 14C228-24 195 4 139 4 59 4 22-46 18-125c-6-104 99-153 187-111 19 9 31 26 39 46" id="bC"/><path d="M106-169C34-169 62-67 57 0H25v-261h32l-1 103c12-21 28-36 61-36 89 0 53 116 60 194h-32v-121c2-32-8-49-39-48" id="bD"/><path d="M141-36C126-15 110 5 73 4 37 3 15-17 15-53c-1-64 63-63 125-63 3-35-9-54-41-54-24 1-41 7-42 31l-33-3c5-37 33-52 76-52 45 0 72 20 72 64v82c-1 20 7 32 28 27v20c-31 9-61-2-59-35zM48-53c0 20 12 33 32 33 41-3 63-29 60-74-43 2-92-5-92 41" id="bE"/><g id="n"><use transform="matrix(0.05,0,0,0.05,0,0)" xlink:href="#bC"/><use transform="matrix(0.05,0,0,0.05,12.950000000000001,0)" xlink:href="#bD"/><use transform="matrix(0.05,0,0,0.05,22.950000000000003,0)" xlink:href="#bE"/><use transform="matrix(0.05,0,0,0.05,32.95,0)" xlink:href="#bi"/></g><path d="M185-189c-5-48-123-54-124 2 14 75 158 14 163 119 3 78-121 87-175 55-17-10-28-26-33-46l33-7c5 56 141 63 141-1 0-78-155-14-162-118-5-82 145-84 179-34 5 7 8 16 11 25" id="bF"/><g id="o"><use transform="matrix(0.05,0,0,0.05,0,0)" xlink:href="#bF"/><use transform="matrix(0.05,0,0,0.05,12,0)" xlink:href="#be"/><use transform="matrix(0.05,0,0,0.05,22,0)" xlink:href="#bE"/><use transform="matrix(0.05,0,0,0.05,32,0)" xlink:href="#bm"/><use transform="matrix(0.05,0,0,0.05,37.95,0)" xlink:href="#bn"/><use transform="matrix(0.05,0,0,0.05,46.95,0)" xlink:href="#bD"/></g><path d="M115-194c55 1 70 41 70 98S169 2 115 4C84 4 66-9 55-30l1 105H24l-1-265h31l2 30c10-21 28-34 59-34zm-8 174c40 0 45-34 45-75s-6-73-45-74c-42 0-51 32-51 76 0 43 10 73 51 73" id="bG"/><g id="p"><use transform="matrix(0.05,0,0,0.05,0,0)" xlink:href="#bp"/><use transform="matrix(0.05,0,0,0.05,12.950000000000001,0)" xlink:href="#be"/><use transform="matrix(0.05,0,0,0.05,22.950000000000003,0)" xlink:href="#bG"/><use transform="matrix(0.05,0,0,0.05,32.95,0)" xlink:href="#bz"/><use transform="matrix(0.05,0,0,0.05,42.95,0)" xlink:href="#bm"/><use transform="matrix(0.05,0,0,0.05,48.900000000000006,0)" xlink:href="#bi"/></g><path d="M140-251c81 0 123 46 123 126C263-46 219 4 140 4 59 4 17-45 17-125s42-126 123-126zm0 227c63 0 89-41 89-101s-29-99-89-99c-61 0-89 39-89 99S79-25 140-24" id="bH"/><path d="M117-194c89-4 53 116 60 194h-32v-121c0-31-8-49-39-48C34-167 62-67 57 0H25l-1-190h30c1 10-1 24 2 32 11-22 29-35 61-36" id="bI"/><g id="q"><use transform="matrix(0.05,0,0,0.05,0,0)" xlink:href="#bH"/><use transform="matrix(0.05,0,0,0.05,14,0)" xlink:href="#bf"/><use transform="matrix(0.05,0,0,0.05,26.950000000000003,0)" xlink:href="#bI"/></g><path d="M47-170H22l-4-78h33" id="bJ"/><g id="r"><use transform="matrix(0.05,0,0,0.05,0,0)" xlink:href="#bH"/><use transform="matrix(0.05,0,0,0.05,14,0)" xlink:href="#bi"/><use transform="matrix(0.05,0,0,0.05,19,0)" xlink:href="#bD"/><use transform="matrix(0.05,0,0,0.05,29,0)" xlink:href="#be"/><use transform="matrix(0.05,0,0,0.05,39,0)" xlink:href="#bm"/><use transform="matrix(0.05,0,0,0.05,44.95,0)" xlink:href="#bo"/><use transform="matrix(0.05,0,0,0.05,53.95,0)" xlink:href="#bJ"/></g><g id="s"><use transform="matrix(0.05,0,0,0.05,0,0)" xlink:href="#by"/><use transform="matrix(0.05,0,0,0.05,12,0)" xlink:href="#bm"/><use transform="matrix(0.05,0,0,0.05,17.95,0)" xlink:href="#bz"/><use transform="matrix(0.05,0,0,0.05,27.950000000000003,0)" xlink:href="#bA"/><use transform="matrix(0.05,0,0,0.05,32.95,0)" xlink:href="#bd"/><use transform="matrix(0.05,0,0,0.05,36.900000000000006,0)" xlink:href="#bB"/><use transform="matrix(0.05,0,0,0.05,40.85000000000001,0)" xlink:href="#be"/><use transform="matrix(0.05,0,0,0.05,50.85000000000001,0)" xlink:href="#bo"/></g><path d="M266 0h-40l-56-210L115 0H75L2-248h35L96-30l15-64 43-154h32l59 218 59-218h35" id="bK"/><g id="t"><use transform="matrix(0.05,0,0,0.05,0,0)" xlink:href="#bK"/><use transform="matrix(0.05,0,0,0.05,16.599999999999998,0)" xlink:href="#bm"/><use transform="matrix(0.05,0,0,0.05,22.549999999999997,0)" xlink:href="#bd"/><use transform="matrix(0.05,0,0,0.05,26.499999999999996,0)" xlink:href="#bi"/><use transform="matrix(0.05,0,0,0.05,31.499999999999996,0)" xlink:href="#bd"/><use transform="matrix(0.05,0,0,0.05,35.449999999999996,0)" xlink:href="#bI"/><use transform="matrix(0.05,0,0,0.05,45.449999999999996,0)" xlink:href="#bq"/></g><g id="u"><use transform="matrix(0.05,0,0,0.05,0,0)" xlink:href="#bg"/><use transform="matrix(0.05,0,0,0.05,10,0)" xlink:href="#bd"/><use transform="matrix(0.05,0,0,0.05,13.949999999999998,0)" xlink:href="#bo"/><use transform="matrix(0.05,0,0,0.05,22.95,0)" xlink:href="#bi"/><use transform="matrix(0.05,0,0,0.05,27.950000000000003,0)" xlink:href="#be"/><use transform="matrix(0.05,0,0,0.05,37.95,0)" xlink:href="#bI"/><use transform="matrix(0.05,0,0,0.05,47.95,0)" xlink:href="#bd"/><use transform="matrix(0.05,0,0,0.05,51.900000000000006,0)" xlink:href="#bI"/><use transform="matrix(0.05,0,0,0.05,61.900000000000006,0)" xlink:href="#bq"/></g><path d="M143 0L79-87 56-68V0H24v-261h32v163l83-92h37l-77 82L181 0h-38" id="bL"/><g id="v"><use transform="matrix(0.05,0,0,0.05,0,0)" xlink:href="#bF"/><use transform="matrix(0.05,0,0,0.05,12,0)" xlink:href="#bG"/><use transform="matrix(0.05,0,0,0.05,22,0)" xlink:href="#be"/><use transform="matrix(0.05,0,0,0.05,32,0)" xlink:href="#bE"/><use transform="matrix(0.05,0,0,0.05,42,0)" xlink:href="#bL"/><use transform="matrix(0.05,0,0,0.05,51,0)" xlink:href="#bd"/><use transform="matrix(0.05,0,0,0.05,54.95,0)" xlink:href="#bI"/><use transform="matrix(0.05,0,0,0.05,64.95,0)" xlink:href="#bq"/></g><path d="M143 4C61 4 22-44 18-125c-5-107 100-154 193-111 17 8 29 25 37 43l-32 9c-13-25-37-40-76-40-61 0-88 39-88 99 0 61 29 100 91 101 35 0 62-11 79-27v-45h-74v-28h105v86C228-13 192 4 143 4" id="bM"/><g id="w"><use transform="matrix(0.05,0,0,0.05,0,0)" xlink:href="#bM"/><use transform="matrix(0.05,0,0,0.05,14,0)" xlink:href="#bm"/><use transform="matrix(0.05,0,0,0.05,19.95,0)" xlink:href="#bE"/><use transform="matrix(0.05,0,0,0.05,29.950000000000003,0)" xlink:href="#bh"/><use transform="matrix(0.05,0,0,0.05,44.9,0)" xlink:href="#bh"/><use transform="matrix(0.05,0,0,0.05,59.85,0)" xlink:href="#be"/><use transform="matrix(0.05,0,0,0.05,69.85,0)" xlink:href="#bm"/></g><g id="x"><use transform="matrix(0.05,0,0,0.05,0,0)" xlink:href="#bp"/><use transform="matrix(0.05,0,0,0.05,12.950000000000001,0)" xlink:href="#be"/><use transform="matrix(0.05,0,0,0.05,22.950000000000003,0)" xlink:href="#bE"/><use transform="matrix(0.05,0,0,0.05,32.95,0)" xlink:href="#bj"/><use transform="matrix(0.05,0,0,0.05,42.95,0)" xlink:href="#bd"/><use transform="matrix(0.05,0,0,0.05,46.900000000000006,0)" xlink:href="#bI"/><use transform="matrix(0.05,0,0,0.05,56.900000000000006,0)" xlink:href="#bq"/></g><path d="M84 4C-5 8 30-112 23-190h32v120c0 31 7 50 39 49 72-2 45-101 50-169h31l1 190h-30c-1-10 1-25-2-33-11 22-28 36-60 37" id="bN"/><g id="y"><use transform="matrix(0.05,0,0,0.05,0,0)" xlink:href="#bg"/><use transform="matrix(0.05,0,0,0.05,10,0)" xlink:href="#bE"/><use transform="matrix(0.05,0,0,0.05,20,0)" xlink:href="#bI"/><use transform="matrix(0.05,0,0,0.05,30,0)" xlink:href="#bq"/><use transform="matrix(0.05,0,0,0.05,40,0)" xlink:href="#bN"/><use transform="matrix(0.05,0,0,0.05,50,0)" xlink:href="#bE"/><use transform="matrix(0.05,0,0,0.05,60,0)" xlink:href="#bq"/><use transform="matrix(0.05,0,0,0.05,70,0)" xlink:href="#be"/></g><g id="z"><use transform="matrix(0.05,0,0,0.05,0,0)" xlink:href="#bF"/><use transform="matrix(0.05,0,0,0.05,12,0)" xlink:href="#be"/><use transform="matrix(0.05,0,0,0.05,22,0)" xlink:href="#bB"/><use transform="matrix(0.05,0,0,0.05,25.950000000000003,0)" xlink:href="#be"/><use transform="matrix(0.05,0,0,0.05,35.95,0)" xlink:href="#bn"/><use transform="matrix(0.05,0,0,0.05,44.95,0)" xlink:href="#bi"/><use transform="matrix(0.05,0,0,0.05,49.95,0)" xlink:href="#bd"/><use transform="matrix(0.05,0,0,0.05,53.900000000000006,0)" xlink:href="#bz"/><use transform="matrix(0.05,0,0,0.05,63.900000000000006,0)" xlink:href="#bI"/></g><g id="A"><use transform="matrix(0.03776734451659963,0,0,0.03776734451659963,0,0)" xlink:href="#bg"/><use transform="matrix(0.03776734451659963,0,0,0.03776734451659963,7.553468903319926,0)" xlink:href="#bE"/><use transform="matrix(0.03776734451659963,0,0,0.03776734451659963,15.106937806639852,0)" xlink:href="#bI"/><use transform="matrix(0.03776734451659963,0,0,0.03776734451659963,22.66040670995978,0)" xlink:href="#bq"/><use transform="matrix(0.03776734451659963,0,0,0.03776734451659963,30.213875613279704,0)" xlink:href="#bN"/><use transform="matrix(0.03776734451659963,0,0,0.03776734451659963,37.76734451659963,0)" xlink:href="#bE"/><use transform="matrix(0.03776734451659963,0,0,0.03776734451659963,45.32081341991955,0)" xlink:href="#bq"/><use transform="matrix(0.03776734451659963,0,0,0.03776734451659963,52.87428232323948,0)" xlink:href="#be"/></g><g id="B"><use transform="matrix(0.03776734451659963,0,0,0.03776734451659963,0,0)" xlink:href="#bC"/><use transform="matrix(0.03776734451659963,0,0,0.03776734451659963,9.781742229799304,0)" xlink:href="#bD"/><use transform="matrix(0.03776734451659963,0,0,0.03776734451659963,17.33521113311923,0)" xlink:href="#bE"/><use transform="matrix(0.03776734451659963,0,0,0.03776734451659963,24.888680036439155,0)" xlink:href="#bI"/><use transform="matrix(0.03776734451659963,0,0,0.03776734451659963,32.44214893975908,0)" xlink:href="#bq"/><use transform="matrix(0.03776734451659963,0,0,0.03776734451659963,39.995617843079,0)" xlink:href="#be"/></g><path fill="#c92d39" d="M24-231v-30h32v30H24zM24 0v-190h32V0H24" id="bO"/><path fill="#c92d39" d="M96-169c-40 0-48 33-48 73s9 75 48 75c24 0 41-14 43-38l32 2c-6 37-31 61-74 61-59 0-76-41-82-99-10-93 101-131 147-64 4 7 5 14 7 22l-32 3c-4-21-16-35-41-35" id="bP"/><path fill="#c92d39" d="M24 0v-261h32V0H24" id="bQ"/><path fill="#c92d39" d="M84 4C-5 8 30-112 23-190h32v120c0 31 7 50 39 49 72-2 45-101 50-169h31l1 190h-30c-1-10 1-25-2-33-11 22-28 36-60 37" id="bR"/><g id="C"><use transform="matrix(0.04320987654320988,0,0,0.04320987654320988,0,0)" xlink:href="#aP"/><use transform="matrix(0.04320987654320988,0,0,0.04320987654320988,9.074074074074074,0)" xlink:href="#aP"/><use transform="matrix(0.04320987654320988,0,0,0.04320987654320988,18.14814814814815,0)" xlink:href="#bO"/><use transform="matrix(0.04320987654320988,0,0,0.04320987654320988,21.561728395061728,0)" xlink:href="#aT"/><use transform="matrix(0.04320987654320988,0,0,0.04320987654320988,30.203703703703702,0)" xlink:href="#bP"/><use transform="matrix(0.04320987654320988,0,0,0.04320987654320988,37.98148148148148,0)" xlink:href="#bQ"/><use transform="matrix(0.04320987654320988,0,0,0.04320987654320988,41.39506172839506,0)" xlink:href="#bR"/><use transform="matrix(0.04320987654320988,0,0,0.04320987654320988,50.037037037037045,0)" xlink:href="#aU"/><use transform="matrix(0.04320987654320988,0,0,0.04320987654320988,58.679012345679006,0)" xlink:href="#aQ"/><use transform="matrix(0.04320987654320988,0,0,0.04320987654320988,67.32098765432099,0)" xlink:href="#aV"/><use transform="matrix(0.04320987654320988,0,0,0.04320987654320988,76.39506172839506,0)" xlink:href="#aV"/></g><g id="D"><use transform="matrix(0.05,0,0,0.05,0,0)" xlink:href="#bF"/><use transform="matrix(0.05,0,0,0.05,12,0)" xlink:href="#be"/><use transform="matrix(0.05,0,0,0.05,22,0)" xlink:href="#bI"/><use transform="matrix(0.05,0,0,0.05,32,0)" xlink:href="#bj"/></g><path d="M179-190L93 31C79 59 56 82 12 73V49c39 6 53-20 64-50L1-190h34L92-34l54-156h33" id="bS"/><g id="E"><use transform="matrix(0.05,0,0,0.05,0,0)" xlink:href="#bk"/><use transform="matrix(0.05,0,0,0.05,12,0)" xlink:href="#bo"/><use transform="matrix(0.05,0,0,0.05,21,0)" xlink:href="#bo"/><use transform="matrix(0.05,0,0,0.05,30,0)" xlink:href="#bE"/><use transform="matrix(0.05,0,0,0.05,40,0)" xlink:href="#bS"/></g><g id="F"><use transform="matrix(0.05,0,0,0.05,0,0)" xlink:href="#bC"/><use transform="matrix(0.05,0,0,0.05,12.950000000000001,0)" xlink:href="#bm"/><use transform="matrix(0.05,0,0,0.05,18.900000000000002,0)" xlink:href="#be"/><use transform="matrix(0.05,0,0,0.05,28.900000000000002,0)" xlink:href="#bE"/><use transform="matrix(0.05,0,0,0.05,38.900000000000006,0)" xlink:href="#bi"/><use transform="matrix(0.05,0,0,0.05,43.900000000000006,0)" xlink:href="#be"/></g><path d="M190 0L58-211 59 0H30v-248h39L202-35l-2-213h31V0h-41" id="bT"/><g id="G"><use transform="matrix(0.05,0,0,0.05,0,0)" xlink:href="#bT"/><use transform="matrix(0.05,0,0,0.05,12.950000000000001,0)" xlink:href="#be"/><use transform="matrix(0.05,0,0,0.05,22.950000000000003,0)" xlink:href="#bf"/></g><g id="H"><use transform="matrix(0.05,0,0,0.05,0,0)" xlink:href="#bC"/><use transform="matrix(0.05,0,0,0.05,12.950000000000001,0)" xlink:href="#bD"/><use transform="matrix(0.05,0,0,0.05,22.950000000000003,0)" xlink:href="#bE"/><use transform="matrix(0.05,0,0,0.05,32.95,0)" xlink:href="#bi"/></g><g id="I"><use transform="matrix(0.05,0,0,0.05,0,0)" xlink:href="#bc"/><use transform="matrix(0.05,0,0,0.05,11.65,0)" xlink:href="#bd"/><use transform="matrix(0.05,0,0,0.05,15.600000000000001,0)" xlink:href="#be"/><use transform="matrix(0.05,0,0,0.05,25.6,0)" xlink:href="#bf"/></g><g id="J"><use transform="matrix(0.05,0,0,0.05,0,0)" xlink:href="#bC"/><use transform="matrix(0.05,0,0,0.05,12.950000000000001,0)" xlink:href="#bD"/><use transform="matrix(0.05,0,0,0.05,22.950000000000003,0)" xlink:href="#bE"/><use transform="matrix(0.05,0,0,0.05,32.95,0)" xlink:href="#bi"/><use transform="matrix(0.05,0,0,0.05,37.95,0)" xlink:href="#bo"/></g><path d="M63-220v92h138v28H63V0H30v-248h175v28H63" id="bU"/><g id="K"><use transform="matrix(0.05,0,0,0.05,0,0)" xlink:href="#bU"/><use transform="matrix(0.05,0,0,0.05,10.950000000000001,0)" xlink:href="#bd"/><use transform="matrix(0.05,0,0,0.05,14.9,0)" xlink:href="#bI"/><use transform="matrix(0.05,0,0,0.05,24.900000000000002,0)" xlink:href="#bj"/></g><g id="L"><use transform="matrix(0.05,0,0,0.05,0,0)" xlink:href="#bx"/><use transform="matrix(0.05,0,0,0.05,12.950000000000001,0)" xlink:href="#bo"/><use transform="matrix(0.05,0,0,0.05,21.950000000000003,0)" xlink:href="#be"/><use transform="matrix(0.05,0,0,0.05,31.950000000000003,0)" xlink:href="#bm"/></g><g id="M"><use transform="matrix(0.044061901936032905,0,0,0.044061901936032905,0,0)" xlink:href="#bp"/><use transform="matrix(0.044061901936032905,0,0,0.044061901936032905,11.412032601432522,0)" xlink:href="#be"/><use transform="matrix(0.044061901936032905,0,0,0.044061901936032905,20.224412988639102,0)" xlink:href="#bn"/><use transform="matrix(0.044061901936032905,0,0,0.044061901936032905,28.155555337125026,0)" xlink:href="#bz"/><use transform="matrix(0.044061901936032905,0,0,0.044061901936032905,36.96793572433161,0)" xlink:href="#bh"/><use transform="matrix(0.044061901936032905,0,0,0.044061901936032905,50.142444403205445,0)" xlink:href="#bh"/><use transform="matrix(0.044061901936032905,0,0,0.044061901936032905,63.31695308207929,0)" xlink:href="#be"/><use transform="matrix(0.044061901936032905,0,0,0.044061901936032905,72.12933346928585,0)" xlink:href="#bI"/><use transform="matrix(0.044061901936032905,0,0,0.044061901936032905,80.94171385649244,0)" xlink:href="#bj"/></g><path d="M108 0H70L1-190h34L89-25l56-165h34" id="bV"/><g id="N"><use transform="matrix(0.044061901936032905,0,0,0.044061901936032905,0,0)" xlink:href="#bT"/><use transform="matrix(0.044061901936032905,0,0,0.044061901936032905,11.412032601432522,0)" xlink:href="#bE"/><use transform="matrix(0.044061901936032905,0,0,0.044061901936032905,20.224412988639102,0)" xlink:href="#bi"/><use transform="matrix(0.044061901936032905,0,0,0.044061901936032905,24.630603182242393,0)" xlink:href="#bd"/><use transform="matrix(0.044061901936032905,0,0,0.044061901936032905,28.111493435188986,0)" xlink:href="#bV"/><use transform="matrix(0.044061901936032905,0,0,0.044061901936032905,36.04263578367491,0)" xlink:href="#be"/></g><g id="O"><use transform="matrix(0.044061901936032905,0,0,0.044061901936032905,0,0)" xlink:href="#by"/><use transform="matrix(0.044061901936032905,0,0,0.044061901936032905,10.574856464647898,0)" xlink:href="#bE"/><use transform="matrix(0.044061901936032905,0,0,0.044061901936032905,19.387236851854478,0)" xlink:href="#bq"/><use transform="matrix(0.044061901936032905,0,0,0.044061901936032905,28.19961723906106,0)" xlink:href="#be"/></g><g id="P"><use transform="matrix(0.05,0,0,0.05,0,0)" xlink:href="#bF"/><use transform="matrix(0.05,0,0,0.05,12,0)" xlink:href="#be"/><use transform="matrix(0.05,0,0,0.05,22,0)" xlink:href="#bE"/><use transform="matrix(0.05,0,0,0.05,32,0)" xlink:href="#bm"/><use transform="matrix(0.05,0,0,0.05,37.95,0)" xlink:href="#bn"/><use transform="matrix(0.05,0,0,0.05,46.95,0)" xlink:href="#bD"/></g><g id="Q"><use transform="matrix(0.05,0,0,0.05,0,0)" xlink:href="#bx"/><use transform="matrix(0.05,0,0,0.05,12.950000000000001,0)" xlink:href="#bo"/><use transform="matrix(0.05,0,0,0.05,21.950000000000003,0)" xlink:href="#be"/><use transform="matrix(0.05,0,0,0.05,31.950000000000003,0)" xlink:href="#bm"/></g><path d="M205 0l-28-72H64L36 0H1l101-248h38L239 0h-34zm-38-99l-47-123c-12 45-31 82-46 123h93" id="bW"/><g id="R"><use transform="matrix(0.05,0,0,0.05,0,0)" xlink:href="#bW"/><use transform="matrix(0.05,0,0,0.05,12,0)" xlink:href="#bj"/><use transform="matrix(0.05,0,0,0.05,22,0)" xlink:href="#bV"/><use transform="matrix(0.05,0,0,0.05,31,0)" xlink:href="#bE"/><use transform="matrix(0.05,0,0,0.05,41,0)" xlink:href="#bI"/><use transform="matrix(0.05,0,0,0.05,51,0)" xlink:href="#bn"/><use transform="matrix(0.05,0,0,0.05,60,0)" xlink:href="#be"/><use transform="matrix(0.05,0,0,0.05,70,0)" xlink:href="#bj"/></g><g id="S"><use transform="matrix(0.05,0,0,0.05,0,0)" xlink:href="#bF"/><use transform="matrix(0.05,0,0,0.05,12,0)" xlink:href="#be"/><use transform="matrix(0.05,0,0,0.05,22,0)" xlink:href="#bE"/><use transform="matrix(0.05,0,0,0.05,32,0)" xlink:href="#bm"/><use transform="matrix(0.05,0,0,0.05,37.95,0)" xlink:href="#bn"/><use transform="matrix(0.05,0,0,0.05,46.95,0)" xlink:href="#bD"/></g><g id="T"><use transform="matrix(0.05,0,0,0.05,0,0)" xlink:href="#bF"/><use transform="matrix(0.05,0,0,0.05,12,0)" xlink:href="#be"/><use transform="matrix(0.05,0,0,0.05,22,0)" xlink:href="#bh"/><use transform="matrix(0.05,0,0,0.05,36.95,0)" xlink:href="#bE"/><use transform="matrix(0.05,0,0,0.05,46.95,0)" xlink:href="#bI"/><use transform="matrix(0.05,0,0,0.05,56.95,0)" xlink:href="#bi"/><use transform="matrix(0.05,0,0,0.05,61.95,0)" xlink:href="#bd"/><use transform="matrix(0.05,0,0,0.05,65.9,0)" xlink:href="#bn"/></g><g id="U"><use transform="matrix(0.05,0,0,0.05,0,0)" xlink:href="#bF"/><use transform="matrix(0.05,0,0,0.05,12,0)" xlink:href="#be"/><use transform="matrix(0.05,0,0,0.05,22,0)" xlink:href="#bE"/><use transform="matrix(0.05,0,0,0.05,32,0)" xlink:href="#bm"/><use transform="matrix(0.05,0,0,0.05,37.95,0)" xlink:href="#bn"/><use transform="matrix(0.05,0,0,0.05,46.95,0)" xlink:href="#bD"/></g><path d="M115-194c53 0 69 39 70 98 0 66-23 100-70 100C84 3 66-7 56-30L54 0H23l1-261h32v101c10-23 28-34 59-34zm-8 174c40 0 45-34 45-75 0-40-5-75-45-74-42 0-51 32-51 76 0 43 10 73 51 73" id="bX"/><g id="V"><use transform="matrix(0.05,0,0,0.05,0,0)" xlink:href="#bX"/><use transform="matrix(0.05,0,0,0.05,10,0)" xlink:href="#bS"/></g><path d="M194 0L95-120 63-95V0H30v-248h33v124l119-124h40L117-140 236 0h-42" id="bY"/><g id="W"><use transform="matrix(0.05,0,0,0.05,0,0)" xlink:href="#bY"/><use transform="matrix(0.05,0,0,0.05,12,0)" xlink:href="#be"/><use transform="matrix(0.05,0,0,0.05,22,0)" xlink:href="#bS"/><use transform="matrix(0.05,0,0,0.05,31,0)" xlink:href="#bf"/><use transform="matrix(0.05,0,0,0.05,43.95,0)" xlink:href="#bz"/><use transform="matrix(0.05,0,0,0.05,53.95,0)" xlink:href="#bm"/><use transform="matrix(0.05,0,0,0.05,59.900000000000006,0)" xlink:href="#bj"/></g><path d="M127-220V0H93v-220H8v-28h204v28h-85" id="bZ"/><g id="X"><use transform="matrix(0.05,0,0,0.05,0,0)" xlink:href="#bZ"/><use transform="matrix(0.05,0,0,0.05,8.950000000000001,0)" xlink:href="#bE"/><use transform="matrix(0.05,0,0,0.05,18.950000000000003,0)" xlink:href="#bq"/></g><g id="Y"><use transform="matrix(0.05,0,0,0.05,0,0)" xlink:href="#bW"/><use transform="matrix(0.05,0,0,0.05,12,0)" xlink:href="#bX"/><use transform="matrix(0.05,0,0,0.05,22,0)" xlink:href="#bN"/><use transform="matrix(0.05,0,0,0.05,32,0)" xlink:href="#bo"/><use transform="matrix(0.05,0,0,0.05,41,0)" xlink:href="#bd"/><use transform="matrix(0.05,0,0,0.05,44.95,0)" xlink:href="#bV"/><use transform="matrix(0.05,0,0,0.05,53.95,0)" xlink:href="#be"/></g><g id="Z"><use transform="matrix(0.05,0,0,0.05,0,0)" xlink:href="#bC"/><use transform="matrix(0.05,0,0,0.05,12.950000000000001,0)" xlink:href="#bz"/><use transform="matrix(0.05,0,0,0.05,22.950000000000003,0)" xlink:href="#bI"/><use transform="matrix(0.05,0,0,0.05,32.95,0)" xlink:href="#bi"/><use transform="matrix(0.05,0,0,0.05,37.95,0)" xlink:href="#be"/><use transform="matrix(0.05,0,0,0.05,47.95,0)" xlink:href="#bI"/><use transform="matrix(0.05,0,0,0.05,57.95,0)" xlink:href="#bi"/></g><path fill="#666" d="M183 0l-10-63H79L44 0H-7l138-248h61L234 0h-51zm-14-102l-15-108c-16 38-36 73-55 108h70" id="ca"/><path fill="#666" d="M250-142C247-53 197 0 108 0H6l48-248c105-5 200 3 196 106zm-49 2c1-57-42-72-103-68L66-40c84 6 135-22 135-100" id="cb"/><path fill="#666" d="M212 0l43-212L151 0h-37L90-212C82-137 65-70 52 0H6l48-248h70l20 187 93-187h69L258 0h-46" id="cc"/><path fill="#666" d="M6 0l48-248h52L58 0H6" id="cd"/><path fill="#666" d="M155 0L90-199 52 0H6l48-248h62l66 201 38-201h46L218 0h-63" id="ce"/><g id="aa"><use transform="matrix(0.04320987654320988,0,0,0.04320987654320988,0,0)" xlink:href="#ca"/><use transform="matrix(0.04320987654320988,0,0,0.04320987654320988,11.19135802469136,0)" xlink:href="#cb"/><use transform="matrix(0.04320987654320988,0,0,0.04320987654320988,22.38271604938272,0)" xlink:href="#cc"/><use transform="matrix(0.04320987654320988,0,0,0.04320987654320988,35.302469135802475,0)" xlink:href="#cd"/><use transform="matrix(0.04320987654320988,0,0,0.04320987654320988,39.62345679012346,0)" xlink:href="#ce"/></g><g id="ab"><use transform="matrix(0.05,0,0,0.05,0,0)" xlink:href="#bp"/><use transform="matrix(0.05,0,0,0.05,12.950000000000001,0)" xlink:href="#be"/><use transform="matrix(0.05,0,0,0.05,22.950000000000003,0)" xlink:href="#bh"/><use transform="matrix(0.05,0,0,0.05,37.900000000000006,0)" xlink:href="#bz"/><use transform="matrix(0.05,0,0,0.05,47.900000000000006,0)" xlink:href="#bV"/><use transform="matrix(0.05,0,0,0.05,56.900000000000006,0)" xlink:href="#be"/></g><g id="ac"><use transform="matrix(0.05,0,0,0.05,0,0)" xlink:href="#bW"/><use transform="matrix(0.05,0,0,0.05,12,0)" xlink:href="#bX"/><use transform="matrix(0.05,0,0,0.05,22,0)" xlink:href="#bN"/><use transform="matrix(0.05,0,0,0.05,32,0)" xlink:href="#bo"/><use transform="matrix(0.05,0,0,0.05,41,0)" xlink:href="#bd"/><use transform="matrix(0.05,0,0,0.05,44.95,0)" xlink:href="#bV"/><use transform="matrix(0.05,0,0,0.05,53.95,0)" xlink:href="#be"/></g><g id="ad"><use transform="matrix(0.05,0,0,0.05,0,0)" xlink:href="#bx"/><use transform="matrix(0.05,0,0,0.05,12.950000000000001,0)" xlink:href="#bo"/><use transform="matrix(0.05,0,0,0.05,21.950000000000003,0)" xlink:href="#be"/><use transform="matrix(0.05,0,0,0.05,31.950000000000003,0)" xlink:href="#bm"/><use transform="matrix(0.05,0,0,0.05,37.900000000000006,0)" xlink:href="#bo"/><use transform="matrix(0.05,0,0,0.05,46.900000000000006,0)" xlink:href="#bJ"/></g><g id="ae"><use transform="matrix(0.05,0,0,0.05,0,0)" xlink:href="#bp"/><use transform="matrix(0.05,0,0,0.05,12.950000000000001,0)" xlink:href="#be"/><use transform="matrix(0.05,0,0,0.05,22.950000000000003,0)" xlink:href="#bG"/><use transform="matrix(0.05,0,0,0.05,32.95,0)" xlink:href="#bz"/><use transform="matrix(0.05,0,0,0.05,42.95,0)" xlink:href="#bm"/><use transform="matrix(0.05,0,0,0.05,48.900000000000006,0)" xlink:href="#bi"/><use transform="matrix(0.05,0,0,0.05,53.900000000000006,0)" xlink:href="#bo"/></g><g id="af"><use transform="matrix(0.05,0,0,0.05,0,0)" xlink:href="#bW"/><use transform="matrix(0.05,0,0,0.05,12,0)" xlink:href="#bX"/><use transform="matrix(0.05,0,0,0.05,22,0)" xlink:href="#bN"/><use transform="matrix(0.05,0,0,0.05,32,0)" xlink:href="#bo"/><use transform="matrix(0.05,0,0,0.05,41,0)" xlink:href="#bd"/><use transform="matrix(0.05,0,0,0.05,44.95,0)" xlink:href="#bV"/><use transform="matrix(0.05,0,0,0.05,53.95,0)" xlink:href="#be"/></g><g id="ag"><use transform="matrix(0.05,0,0,0.05,0,0)" xlink:href="#bZ"/><use transform="matrix(0.05,0,0,0.05,10.3,0)" xlink:href="#bm"/><use transform="matrix(0.05,0,0,0.05,16.25,0)" xlink:href="#bE"/><use transform="matrix(0.05,0,0,0.05,26.25,0)" xlink:href="#bn"/><use transform="matrix(0.05,0,0,0.05,35.25,0)" xlink:href="#bL"/></g><path d="M137-103V0h-34v-103L8-248h37l75 118 75-118h37" id="cf"/><g id="ah"><use transform="matrix(0.05,0,0,0.05,0,0)" xlink:href="#cf"/><use transform="matrix(0.05,0,0,0.05,10.35,0)" xlink:href="#bz"/><use transform="matrix(0.05,0,0,0.05,20.35,0)" xlink:href="#bN"/><use transform="matrix(0.05,0,0,0.05,30.35,0)" xlink:href="#bm"/></g><g id="ai"><use transform="matrix(0.05,0,0,0.05,0,0)" xlink:href="#by"/><use transform="matrix(0.05,0,0,0.05,12,0)" xlink:href="#bm"/><use transform="matrix(0.05,0,0,0.05,17.95,0)" xlink:href="#bz"/><use transform="matrix(0.05,0,0,0.05,27.950000000000003,0)" xlink:href="#bq"/><use transform="matrix(0.05,0,0,0.05,37.95,0)" xlink:href="#bq"/><use transform="matrix(0.05,0,0,0.05,47.95,0)" xlink:href="#bm"/><use transform="matrix(0.05,0,0,0.05,53.900000000000006,0)" xlink:href="#be"/><use transform="matrix(0.05,0,0,0.05,63.900000000000006,0)" xlink:href="#bo"/><use transform="matrix(0.05,0,0,0.05,72.9,0)" xlink:href="#bo"/></g><g id="aj"><use transform="matrix(0.05,0,0,0.05,0,0)" xlink:href="#bd"/><use transform="matrix(0.05,0,0,0.05,3.95,0)" xlink:href="#bI"/></g><path d="M30-248c118-7 216 8 213 122C240-48 200 0 122 0H30v-248zM63-27c89 8 146-16 146-99s-60-101-146-95v194" id="cg"/><g id="ak"><use transform="matrix(0.05,0,0,0.05,0,0)" xlink:href="#cg"/><use transform="matrix(0.05,0,0,0.05,12.950000000000001,0)" xlink:href="#bd"/><use transform="matrix(0.05,0,0,0.05,16.900000000000002,0)" xlink:href="#bA"/><use transform="matrix(0.05,0,0,0.05,21.55,0)" xlink:href="#bA"/><use transform="matrix(0.05,0,0,0.05,26.55,0)" xlink:href="#be"/><use transform="matrix(0.05,0,0,0.05,36.55,0)" xlink:href="#bm"/><use transform="matrix(0.05,0,0,0.05,42.5,0)" xlink:href="#be"/><use transform="matrix(0.05,0,0,0.05,52.5,0)" xlink:href="#bI"/><use transform="matrix(0.05,0,0,0.05,62.5,0)" xlink:href="#bi"/></g><g id="al"><use transform="matrix(0.05,0,0,0.05,0,0)" xlink:href="#bg"/><use transform="matrix(0.05,0,0,0.05,10,0)" xlink:href="#bE"/><use transform="matrix(0.05,0,0,0.05,20,0)" xlink:href="#bI"/><use transform="matrix(0.05,0,0,0.05,30,0)" xlink:href="#bq"/><use transform="matrix(0.05,0,0,0.05,40,0)" xlink:href="#bN"/><use transform="matrix(0.05,0,0,0.05,50,0)" xlink:href="#bE"/><use transform="matrix(0.05,0,0,0.05,60,0)" xlink:href="#bq"/><use transform="matrix(0.05,0,0,0.05,70,0)" xlink:href="#be"/><use transform="matrix(0.05,0,0,0.05,80,0)" xlink:href="#bo"/></g><g id="am"><use transform="matrix(0.04320987654320988,0,0,0.04320987654320988,0,0)" xlink:href="#aP"/><use transform="matrix(0.04320987654320988,0,0,0.04320987654320988,9.074074074074074,0)" xlink:href="#aP"/><use transform="matrix(0.04320987654320988,0,0,0.04320987654320988,18.14814814814815,0)" xlink:href="#aQ"/><use transform="matrix(0.04320987654320988,0,0,0.04320987654320988,26.790123456790127,0)" xlink:href="#aR"/><use transform="matrix(0.04320987654320988,0,0,0.04320987654320988,34.567901234567906,0)" xlink:href="#aS"/><use transform="matrix(0.04320987654320988,0,0,0.04320987654320988,38.88888888888889,0)" xlink:href="#aQ"/><use transform="matrix(0.04320987654320988,0,0,0.04320987654320988,47.53086419753087,0)" xlink:href="#aT"/><use transform="matrix(0.04320987654320988,0,0,0.04320987654320988,56.17283950617284,0)" xlink:href="#aU"/><use transform="matrix(0.04320987654320988,0,0,0.04320987654320988,64.81481481481482,0)" xlink:href="#aV"/><use transform="matrix(0.04320987654320988,0,0,0.04320987654320988,73.8888888888889,0)" xlink:href="#aV"/></g><g id="an"><use transform="matrix(0.05,0,0,0.05,0,0)" xlink:href="#by"/><use transform="matrix(0.05,0,0,0.05,12,0)" xlink:href="#bm"/><use transform="matrix(0.05,0,0,0.05,17.95,0)" xlink:href="#bz"/><use transform="matrix(0.05,0,0,0.05,27.950000000000003,0)" xlink:href="#bA"/><use transform="matrix(0.05,0,0,0.05,32.95,0)" xlink:href="#bd"/><use transform="matrix(0.05,0,0,0.05,36.900000000000006,0)" xlink:href="#bn"/><use transform="matrix(0.05,0,0,0.05,45.900000000000006,0)" xlink:href="#bd"/><use transform="matrix(0.05,0,0,0.05,49.85000000000001,0)" xlink:href="#be"/><use transform="matrix(0.05,0,0,0.05,59.85,0)" xlink:href="#bI"/><use transform="matrix(0.05,0,0,0.05,69.85000000000001,0)" xlink:href="#bn"/><use transform="matrix(0.05,0,0,0.05,78.85000000000001,0)" xlink:href="#bS"/></g><g id="ao"><use transform="matrix(0.05,0,0,0.05,0,0)" xlink:href="#bk"/><use transform="matrix(0.05,0,0,0.05,12,0)" xlink:href="#bl"/><use transform="matrix(0.05,0,0,0.05,21,0)" xlink:href="#bE"/><use transform="matrix(0.05,0,0,0.05,31,0)" xlink:href="#bh"/></g><g id="ap"><use transform="matrix(0.05,0,0,0.05,0,0)" xlink:href="#by"/><use transform="matrix(0.05,0,0,0.05,12,0)" xlink:href="#bE"/><use transform="matrix(0.05,0,0,0.05,22,0)" xlink:href="#bq"/><use transform="matrix(0.05,0,0,0.05,32,0)" xlink:href="#be"/></g><g id="aq"><use transform="matrix(0.05,0,0,0.05,0,0)" xlink:href="#bA"/><use transform="matrix(0.05,0,0,0.05,5,0)" xlink:href="#bz"/><use transform="matrix(0.05,0,0,0.05,15,0)" xlink:href="#bm"/></g><g id="ar"><use transform="matrix(0.05,0,0,0.05,0,0)" xlink:href="#bC"/><use transform="matrix(0.05,0,0,0.05,12.950000000000001,0)" xlink:href="#bz"/><use transform="matrix(0.05,0,0,0.05,22.950000000000003,0)" xlink:href="#bh"/><use transform="matrix(0.05,0,0,0.05,37.900000000000006,0)" xlink:href="#be"/><use transform="matrix(0.05,0,0,0.05,47.900000000000006,0)" xlink:href="#bm"/><use transform="matrix(0.05,0,0,0.05,53.85,0)" xlink:href="#bo"/></g><g id="as"><use transform="matrix(0.05,0,0,0.05,0,0)" xlink:href="#bF"/><use transform="matrix(0.05,0,0,0.05,12,0)" xlink:href="#be"/><use transform="matrix(0.05,0,0,0.05,22,0)" xlink:href="#bE"/><use transform="matrix(0.05,0,0,0.05,32,0)" xlink:href="#bm"/><use transform="matrix(0.05,0,0,0.05,37.95,0)" xlink:href="#bn"/><use transform="matrix(0.05,0,0,0.05,46.95,0)" xlink:href="#bD"/></g><g id="at"><use transform="matrix(0.05,0,0,0.05,0,0)" xlink:href="#bX"/><use transform="matrix(0.05,0,0,0.05,10,0)" xlink:href="#bS"/></g><g id="au"><use transform="matrix(0.05,0,0,0.05,0,0)" xlink:href="#bT"/><use transform="matrix(0.05,0,0,0.05,12.950000000000001,0)" xlink:href="#bE"/><use transform="matrix(0.05,0,0,0.05,22.950000000000003,0)" xlink:href="#bh"/><use transform="matrix(0.05,0,0,0.05,37.900000000000006,0)" xlink:href="#be"/></g><path d="M33 0v-248h34V0H33" id="ch"/><g id="av"><use transform="matrix(0.05,0,0,0.05,0,0)" xlink:href="#ch"/><use transform="matrix(0.05,0,0,0.05,5,0)" xlink:href="#bI"/><use transform="matrix(0.05,0,0,0.05,15,0)" xlink:href="#bi"/><use transform="matrix(0.05,0,0,0.05,20,0)" xlink:href="#be"/><use transform="matrix(0.05,0,0,0.05,30,0)" xlink:href="#bm"/><use transform="matrix(0.05,0,0,0.05,35.95,0)" xlink:href="#be"/><use transform="matrix(0.05,0,0,0.05,45.95,0)" xlink:href="#bo"/><use transform="matrix(0.05,0,0,0.05,54.95,0)" xlink:href="#bi"/></g><g id="aw"><use transform="matrix(0.05,0,0,0.05,0,0)" xlink:href="#bX"/><use transform="matrix(0.05,0,0,0.05,10,0)" xlink:href="#bS"/></g><g id="ax"><use transform="matrix(0.05,0,0,0.05,0,0)" xlink:href="#bg"/><use transform="matrix(0.05,0,0,0.05,10,0)" xlink:href="#bE"/><use transform="matrix(0.05,0,0,0.05,20,0)" xlink:href="#bI"/><use transform="matrix(0.05,0,0,0.05,30,0)" xlink:href="#bq"/><use transform="matrix(0.05,0,0,0.05,40,0)" xlink:href="#bN"/><use transform="matrix(0.05,0,0,0.05,50,0)" xlink:href="#bE"/><use transform="matrix(0.05,0,0,0.05,60,0)" xlink:href="#bq"/><use transform="matrix(0.05,0,0,0.05,70,0)" xlink:href="#be"/></g><g id="ay"><use transform="matrix(0.05,0,0,0.05,0,0)" xlink:href="#bZ"/><use transform="matrix(0.05,0,0,0.05,9.950000000000001,0)" xlink:href="#bS"/><use transform="matrix(0.05,0,0,0.05,18.950000000000003,0)" xlink:href="#bG"/><use transform="matrix(0.05,0,0,0.05,28.950000000000003,0)" xlink:href="#be"/></g><g id="az"><use transform="matrix(0.05,0,0,0.05,0,0)" xlink:href="#bZ"/><use transform="matrix(0.05,0,0,0.05,8.950000000000001,0)" xlink:href="#bz"/><use transform="matrix(0.05,0,0,0.05,18.950000000000003,0)" xlink:href="#bG"/><use transform="matrix(0.05,0,0,0.05,28.950000000000003,0)" xlink:href="#bd"/><use transform="matrix(0.05,0,0,0.05,32.900000000000006,0)" xlink:href="#bn"/></g><g id="aA"><use transform="matrix(0.044061901936032905,0,0,0.044061901936032905,0,0)" xlink:href="#bF"/><use transform="matrix(0.044061901936032905,0,0,0.044061901936032905,10.574856464647898,0)" xlink:href="#be"/><use transform="matrix(0.044061901936032905,0,0,0.044061901936032905,19.387236851854478,0)" xlink:href="#bE"/><use transform="matrix(0.044061901936032905,0,0,0.044061901936032905,28.19961723906106,0)" xlink:href="#bm"/><use transform="matrix(0.044061901936032905,0,0,0.044061901936032905,33.44298356944898,0)" xlink:href="#bn"/><use transform="matrix(0.044061901936032905,0,0,0.044061901936032905,41.3741259179349,0)" xlink:href="#bD"/></g><g id="aB"><use transform="matrix(0.044061901936032905,0,0,0.044061901936032905,0,0)" xlink:href="#bX"/><use transform="matrix(0.044061901936032905,0,0,0.044061901936032905,8.81238038720658,0)" xlink:href="#bS"/></g><g id="aC"><use transform="matrix(0.044061901936032905,0,0,0.044061901936032905,0,0)" xlink:href="#cg"/><use transform="matrix(0.044061901936032905,0,0,0.044061901936032905,11.412032601432522,0)" xlink:href="#bd"/><use transform="matrix(0.044061901936032905,0,0,0.044061901936032905,14.892922854379123,0)" xlink:href="#bA"/><use transform="matrix(0.044061901936032905,0,0,0.044061901936032905,18.99067973443018,0)" xlink:href="#bA"/><use transform="matrix(0.044061901936032905,0,0,0.044061901936032905,23.39686992803347,0)" xlink:href="#bd"/><use transform="matrix(0.044061901936032905,0,0,0.044061901936032905,26.877760180980065,0)" xlink:href="#bn"/><use transform="matrix(0.044061901936032905,0,0,0.044061901936032905,34.80890252946599,0)" xlink:href="#bN"/><use transform="matrix(0.044061901936032905,0,0,0.044061901936032905,43.62128291667257,0)" xlink:href="#bB"/><use transform="matrix(0.044061901936032905,0,0,0.044061901936032905,47.10217316961918,0)" xlink:href="#bi"/><use transform="matrix(0.044061901936032905,0,0,0.044061901936032905,51.50836336322246,0)" xlink:href="#bS"/></g><g id="aD"><use transform="matrix(0.05,0,0,0.05,0,0)" xlink:href="#bW"/><use transform="matrix(0.05,0,0,0.05,12,0)" xlink:href="#bI"/><use transform="matrix(0.05,0,0,0.05,22,0)" xlink:href="#bI"/><use transform="matrix(0.05,0,0,0.05,32,0)" xlink:href="#bz"/><use transform="matrix(0.05,0,0,0.05,42,0)" xlink:href="#bi"/><use transform="matrix(0.05,0,0,0.05,47,0)" xlink:href="#bE"/><use transform="matrix(0.05,0,0,0.05,57,0)" xlink:href="#bi"/><use transform="matrix(0.05,0,0,0.05,62,0)" xlink:href="#bd"/><use transform="matrix(0.05,0,0,0.05,65.95,0)" xlink:href="#bz"/><use transform="matrix(0.05,0,0,0.05,75.95,0)" xlink:href="#bI"/></g><g id="aE"><use transform="matrix(0.05,0,0,0.05,0,0)" xlink:href="#bC"/><use transform="matrix(0.05,0,0,0.05,12.950000000000001,0)" xlink:href="#bD"/><use transform="matrix(0.05,0,0,0.05,22.950000000000003,0)" xlink:href="#bE"/><use transform="matrix(0.05,0,0,0.05,32.95,0)" xlink:href="#bi"/></g><g id="aF"><use transform="matrix(0.05,0,0,0.05,0,0)" xlink:href="#bf"/><use transform="matrix(0.05,0,0,0.05,12.950000000000001,0)" xlink:href="#bd"/><use transform="matrix(0.05,0,0,0.05,16.900000000000002,0)" xlink:href="#bi"/><use transform="matrix(0.05,0,0,0.05,21.900000000000002,0)" xlink:href="#bD"/></g><g id="aG"><use transform="matrix(0.05,0,0,0.05,0,0)" xlink:href="#bk"/><use transform="matrix(0.05,0,0,0.05,12,0)" xlink:href="#bl"/><use transform="matrix(0.05,0,0,0.05,21,0)" xlink:href="#bG"/><use transform="matrix(0.05,0,0,0.05,31,0)" xlink:href="#be"/><use transform="matrix(0.05,0,0,0.05,41,0)" xlink:href="#bm"/><use transform="matrix(0.05,0,0,0.05,46.95,0)" xlink:href="#bi"/></g><g id="aH"><use transform="matrix(0.05,0,0,0.05,0,0)" xlink:href="#cg"/><use transform="matrix(0.05,0,0,0.05,12.950000000000001,0)" xlink:href="#bm"/><use transform="matrix(0.05,0,0,0.05,18.900000000000002,0)" xlink:href="#bE"/><use transform="matrix(0.05,0,0,0.05,28.900000000000002,0)" xlink:href="#bA"/><use transform="matrix(0.05,0,0,0.05,33.900000000000006,0)" xlink:href="#bi"/><use transform="matrix(0.05,0,0,0.05,38.900000000000006,0)" xlink:href="#bo"/></g><g id="aI"><use transform="matrix(0.04320987654320988,0,0,0.04320987654320988,0,0)" xlink:href="#aP"/><use transform="matrix(0.04320987654320988,0,0,0.04320987654320988,9.074074074074074,0)" xlink:href="#aP"/><use transform="matrix(0.04320987654320988,0,0,0.04320987654320988,18.14814814814815,0)" xlink:href="#bO"/><use transform="matrix(0.04320987654320988,0,0,0.04320987654320988,21.561728395061728,0)" xlink:href="#aT"/><use transform="matrix(0.04320987654320988,0,0,0.04320987654320988,30.203703703703702,0)" xlink:href="#bP"/><use transform="matrix(0.04320987654320988,0,0,0.04320987654320988,37.98148148148148,0)" xlink:href="#bQ"/><use transform="matrix(0.04320987654320988,0,0,0.04320987654320988,41.39506172839506,0)" xlink:href="#bR"/><use transform="matrix(0.04320987654320988,0,0,0.04320987654320988,50.037037037037045,0)" xlink:href="#aU"/><use transform="matrix(0.04320987654320988,0,0,0.04320987654320988,58.679012345679006,0)" xlink:href="#aQ"/><use transform="matrix(0.04320987654320988,0,0,0.04320987654320988,67.32098765432099,0)" xlink:href="#aV"/><use transform="matrix(0.04320987654320988,0,0,0.04320987654320988,76.39506172839506,0)" xlink:href="#aV"/></g><g id="aJ"><use transform="matrix(0.05,0,0,0.05,0,0)" xlink:href="#bp"/><use transform="matrix(0.05,0,0,0.05,12.950000000000001,0)" xlink:href="#be"/><use transform="matrix(0.05,0,0,0.05,22.950000000000003,0)" xlink:href="#bn"/><use transform="matrix(0.05,0,0,0.05,31.950000000000003,0)" xlink:href="#bz"/><use transform="matrix(0.05,0,0,0.05,41.95,0)" xlink:href="#bh"/><use transform="matrix(0.05,0,0,0.05,56.900000000000006,0)" xlink:href="#bh"/><use transform="matrix(0.05,0,0,0.05,71.85000000000001,0)" xlink:href="#be"/><use transform="matrix(0.05,0,0,0.05,81.85000000000001,0)" xlink:href="#bI"/><use transform="matrix(0.05,0,0,0.05,91.85000000000001,0)" xlink:href="#bj"/></g><g id="aK"><use transform="matrix(0.05,0,0,0.05,0,0)" xlink:href="#bk"/><use transform="matrix(0.05,0,0,0.05,12,0)" xlink:href="#bl"/><use transform="matrix(0.05,0,0,0.05,21,0)" xlink:href="#bG"/><use transform="matrix(0.05,0,0,0.05,31,0)" xlink:href="#be"/><use transform="matrix(0.05,0,0,0.05,41,0)" xlink:href="#bm"/><use transform="matrix(0.05,0,0,0.05,46.95,0)" xlink:href="#bi"/></g><g id="aL"><use transform="matrix(0.05,0,0,0.05,0,0)" xlink:href="#by"/><use transform="matrix(0.05,0,0,0.05,12,0)" xlink:href="#bE"/><use transform="matrix(0.05,0,0,0.05,22,0)" xlink:href="#bq"/><use transform="matrix(0.05,0,0,0.05,32,0)" xlink:href="#be"/></g><g id="aM"><use transform="matrix(0.05,0,0,0.05,0,0)" xlink:href="#bW"/><use transform="matrix(0.05,0,0,0.05,12,0)" xlink:href="#bI"/><use transform="matrix(0.05,0,0,0.05,22,0)" xlink:href="#bI"/><use transform="matrix(0.05,0,0,0.05,32,0)" xlink:href="#bz"/><use transform="matrix(0.05,0,0,0.05,42,0)" xlink:href="#bi"/><use transform="matrix(0.05,0,0,0.05,47,0)" xlink:href="#bE"/><use transform="matrix(0.05,0,0,0.05,57,0)" xlink:href="#bi"/><use transform="matrix(0.05,0,0,0.05,62,0)" xlink:href="#be"/></g><g id="aN"><use transform="matrix(0.05,0,0,0.05,0,0)" xlink:href="#bZ"/><use transform="matrix(0.05,0,0,0.05,8.950000000000001,0)" xlink:href="#be"/><use transform="matrix(0.05,0,0,0.05,18.950000000000003,0)" xlink:href="#bl"/><use transform="matrix(0.05,0,0,0.05,27.950000000000003,0)" xlink:href="#bi"/></g><g id="aO"><use transform="matrix(0.05,0,0,0.05,0,0)" xlink:href="#ch"/><use transform="matrix(0.05,0,0,0.05,5,0)" xlink:href="#bh"/><use transform="matrix(0.05,0,0,0.05,19.950000000000003,0)" xlink:href="#bE"/><use transform="matrix(0.05,0,0,0.05,29.950000000000003,0)" xlink:href="#bq"/><use transform="matrix(0.05,0,0,0.05,39.95,0)" xlink:href="#be"/></g></defs></g></svg>
