<svg xmlns="http://www.w3.org/2000/svg" xmlns:xlink="http://www.w3.org/1999/xlink" xmlns:lucid="lucid" width="1585.85" height="3440"><g transform="translate(-4.150000000000006 -40)" lucid:page-tab-id="0_0"><path d="M145.33 259.14c0 10.6-11.93 19.14-26.63 19.14-14.77 0-26.7-8.55-26.7-19.14 0-10.58 11.93-19.14 26.7-19.14 14.7 0 26.63 8.56 26.63 19.14zM95.83 280.17h46.27c14.25 0 14.25 0 14.25 10.3 0 10.28 0 10.28-14.25 10.28H95.83c-14.25 0-14.25 0-14.25-10.3 0-10.28 0-10.28 14.25-10.28z" fill="#dedffc"/><path d="M98.98 297.42h39.37v42.48H98.98v-42.48z" fill="#dedffc"/><path d="M98.98 338.3h17.77v46.84H98.98V338.3zM121.85 338.75h16.5v46.1h-16.5v-46.1zM81.73 287.85h13.5v41.03h-13.5v-41.03zM142.63 288.43h13.65v41.04h-13.65v-41.04z" fill="#dedffc"/><use xlink:href="#a" transform="matrix(1,0,0,1,51.577464155855196,385) translate(11.471598765432091 18.11111111111111)"/><use xlink:href="#b" transform="matrix(1,0,0,1,51.577464155855196,385) translate(68.98394444444445 18.11111111111111)"/><path d="M540 120c0 33.14-35.82 60-80 60s-80-26.86-80-60 35.82-60 80-60 80 26.86 80 60z" stroke="#000" stroke-opacity="0" fill="#dedffc"/><use xlink:href="#c" transform="matrix(1,0,0,1,380,60) translate(26.279999999999994 51.9)"/><use xlink:href="#d" transform="matrix(1,0,0,1,380,60) translate(69.83 51.9)"/><use xlink:href="#e" transform="matrix(1,0,0,1,380,60) translate(41.05499999999999 73.5)"/><path d="M540 480c0 33.14-35.82 60-80 60s-80-26.86-80-60 35.82-60 80-60 80 26.86 80 60z" stroke="#000" stroke-opacity="0" fill="#dedffc"/><use xlink:href="#f" transform="matrix(1,0,0,1,380,420) translate(46.57999999999999 63.15)"/><path d="M269.14 307.66l-1.12 3.4-2.9 2.13-1.9.3H158.1v-2h104.96l1.26-.2 2-1.46.82-2.5V192.06h2zM380 121H273.3l-2.5.82-1.46 2-.2 1.26v48.32h-2v-48.48l.3-1.9 2.13-2.9 3.4-1.12H380zM380.03 121l-.03-.62V119z" fill="#7ab648"/><path d="M175.97 303.18l-15.76 9.32 15.77 9.32-1.02 1.72-18.67-11.04 18.67-11.04z" fill="#7ab648"/><use xlink:href="#g" transform="matrix(1,0,0,1,226.65725059644612,173.39705841974873) translate(-5.705499999999994 12.444444444444446)"/><path d="M269.14 474.92l.2 1.26 1.46 2 2.5.82H380v2H272.98l-3.4-1.1-2.14-2.92-.3-1.9v-61h2zm-4.02-146.15l2.9 2.12 1.12 3.4v61.1h-2v-60.78l-.82-2.5-2-1.45-1.26-.2H158.1v-2h105.12zM380.03 481l-.03-.62V479z" fill="#7ab648"/><path d="M175.97 320.14l-15.76 9.32 15.77 9.33-1.02 1.7-18.67-11.04 18.67-11.04z" fill="#7ab648"/><use xlink:href="#g" transform="matrix(1,0,0,1,226.65725059644606,395.3991666666667) translate(-5.705499999999994 12.444444444444446)"/><path d="M143.75 1419.14c0 10.58-11.93 19.14-26.63 19.14-14.77 0-26.7-8.56-26.7-19.14 0-10.6 11.93-19.14 26.7-19.14 14.7 0 26.63 8.56 26.63 19.14zM94.25 1440.16h46.28c14.25 0 14.25 0 14.25 10.3s0 10.3-14.25 10.3H94.25c-14.25 0-14.25 0-14.25-10.3s0-10.3 14.25-10.3z" fill="#dedffc"/><path d="M97.4 1457.42h39.38v42.48H97.4v-42.48z" fill="#dedffc"/><path d="M97.4 1498.3h17.77v46.85H97.4v-46.84zM120.28 1498.74h16.5v46.12h-16.5v-46.12zM80.15 1447.85h13.5V1488.87h-13.5v-41.03zM141.05 1448.43h13.65v41.03h-13.65v-41.03z" fill="#dedffc"/><use xlink:href="#h" transform="matrix(1,0,0,1,50,1545) translate(40.22777160493827 18.11111111111111)"/><path d="M145.33 259.14c0 10.6-11.93 19.14-26.63 19.14-14.77 0-26.7-8.55-26.7-19.14 0-10.58 11.93-19.14 26.7-19.14 14.7 0 26.63 8.56 26.63 19.14zM95.83 280.17h46.27c14.25 0 14.25 0 14.25 10.3 0 10.28 0 10.28-14.25 10.28H95.83c-14.25 0-14.25 0-14.25-10.3 0-10.28 0-10.28 14.25-10.28z" fill="#dedffc"/><path d="M98.98 297.42h39.37v42.48H98.98v-42.48z" fill="#dedffc"/><path d="M98.98 338.3h17.77v46.84H98.98V338.3zM121.85 338.75h16.5v46.1h-16.5v-46.1zM81.73 287.85h13.5v41.03h-13.5v-41.03zM142.63 288.43h13.65v41.04h-13.65v-41.04z" fill="#dedffc"/><use xlink:href="#i" transform="matrix(1,0,0,1,51.577464155855196,385) translate(11.320364197530864 18.11111111111111)"/><use xlink:href="#j" transform="matrix(1,0,0,1,51.577464155855196,385) translate(69.13517901234569 18.11111111111111)"/><path d="M540 840c0 33.14-35.82 60-80 60s-80-26.86-80-60 35.82-60 80-60 80 26.86 80 60z" stroke="#000" stroke-opacity="0" fill="#dedffc"/><use xlink:href="#c" transform="matrix(1,0,0,1,380,780) translate(11.354999999999999 63.15)"/><use xlink:href="#k" transform="matrix(1,0,0,1,380,780) translate(54.905 63.15)"/><use xlink:href="#l" transform="matrix(1,0,0,1,380,780) translate(97.805 63.15)"/><path d="M540 1200c0 33.14-35.82 60-80 60s-80-26.86-80-60 35.82-60 80-60 80 26.86 80 60z" stroke="#000" stroke-opacity="0" fill="#dedffc"/><use xlink:href="#c" transform="matrix(1,0,0,1,380,1140) translate(23.779999999999994 63.15)"/><use xlink:href="#m" transform="matrix(1,0,0,1,380,1140) translate(67.33 63.15)"/><path d="M540 1880c0 33.14-35.82 60-80 60s-80-26.86-80-60 35.82-60 80-60 80 26.86 80 60z" stroke="#000" stroke-opacity="0" fill="#dedffc"/><use xlink:href="#n" transform="matrix(1,0,0,1,380,1820) translate(61.029999999999994 63.15)"/><path d="M540 2360c0 33.14-35.82 60-80 60s-80-26.86-80-60 35.82-60 80-60 80 26.86 80 60z" stroke="#000" stroke-opacity="0" fill="#dedffc"/><use xlink:href="#o" transform="matrix(1,0,0,1,380,2300) translate(51.529999999999994 63.15)"/><path d="M540 2806.23c0 33.14-35.82 60-80 60s-80-26.86-80-60c0-33.13 35.82-60 80-60s80 26.87 80 60z" stroke="#000" stroke-opacity="0" fill="#dedffc"/><use xlink:href="#p" transform="matrix(1,0,0,1,380,2746.234400000001) translate(53.055 63.15)"/><path d="M137.25 2354.92l.2 1.26 1.46 2 2.5.82H380v2H141.1l-3.42-1.1-2.12-2.92-.3-1.9v-2.74h2zm0-21.25h-2v-788.65h2zM380.03 2361l-.03-.62V2359z" fill="#7ab648"/><path d="M147.3 1561.87l-1.73 1.02-9.32-15.77-9.32 15.76-1.72-1.03 11.05-18.67z" fill="#7ab648"/><use xlink:href="#g" transform="matrix(1,0,0,1,94.7685185185185,2333.6704134438523) translate(-5.705499999999994 12.444444444444446)"/><path d="M178.55 841h-73.83l-2.5.82-1.46 2-.2 1.26v557.94h-2v-558.1l.3-1.9 2.13-2.9 3.4-1.12h74.15zM380 841H261.52v-2H380zM380.03 841l-.03-.62V839z" fill="#7ab648"/><path d="M110.6 1386.17l-11.04 18.67-11.04-18.67 1.72-1.02 9.32 15.76 9.32-15.75z" fill="#7ab648"/><use xlink:href="#g" transform="matrix(1,0,0,1,178.55460968334128,830.6666666666666) translate(-5.705499999999994 12.444444444444446)"/><path d="M268.35 1874.92l.2 1.26 1.46 2 2.5.82H380v2H272.2l-3.42-1.1-2.12-2.92-.3-1.9v-366.24h2zm-4.02-403.1l2.9 2.1 1.12 3.42v12.83h-2v-12.5l-.82-2.5-2-1.47-1.26-.2H156.52v-2h105.9zM380.03 1881l-.03-.62V1879z" fill="#7ab648"/><path d="M174.4 1463.18l-15.77 9.32 15.76 9.32-1.03 1.72-18.67-11.04 18.67-11.04z" fill="#7ab648"/><use xlink:href="#g" transform="matrix(1,0,0,1,225.86851851851853,1490.1740420986846) translate(-5.705499999999994 12.444444444444446)"/><path d="M173 1201h-32.5l-2.5.82-1.46 2-.2 1.26v198.35h-2v-198.5l.3-1.9 2.12-2.92 3.42-1.1H173zm207 0H255.97v-2H380zM380.03 1201l-.03-.62V1199z" fill="#7ab648"/><path d="M146.38 1386.58l-11.04 18.67-11.05-18.67 1.72-1.02 9.32 15.76 9.32-15.76z" fill="#7ab648"/><use xlink:href="#g" transform="matrix(1,0,0,1,173.00748133464828,1190.6666666666667) translate(-5.705499999999994 12.444444444444446)"/><path d="M99.75 2801.15l.2 1.27 1.46 2 2.5.8h.38v2h-.7l-3.4-1.1-2.12-2.9-.3-1.9v-448.98h2zm280.25 4.08v2H187.25v-2zM99.75 2333.67h-2v-788.65h2zM380.03 2807.23l-.03-.6v-1.4z" fill="#7ab648"/><path d="M109.8 1561.87l-1.73 1.02-9.32-15.77-9.32 15.76-1.72-1.03 11.05-18.67z" fill="#7ab648"/><use xlink:href="#g" transform="matrix(1,0,0,1,104.28277314360469,2796.9010666666677) translate(-5.705499999999994 12.444444444444446)"/><path d="M940 760c0 33.14-35.82 60-80 60s-80-26.86-80-60 35.82-60 80-60 80 26.86 80 60z" stroke="#000" stroke-opacity="0" fill="#dedffc"/><use xlink:href="#c" transform="matrix(1,0,0,1,780,700) translate(11.829999999999993 63.15)"/><use xlink:href="#q" transform="matrix(1,0,0,1,780,700) translate(55.379999999999995 63.15)"/><use xlink:href="#l" transform="matrix(1,0,0,1,780,700) translate(97.33 63.15)"/><path d="M940 940c0 33.14-35.82 60-80 60s-80-26.86-80-60 35.82-60 80-60 80 26.86 80 60z" stroke="#000" stroke-opacity="0" fill="#dedffc"/><use xlink:href="#c" transform="matrix(1,0,0,1,780,880) translate(29.555 51.9)"/><use xlink:href="#r" transform="matrix(1,0,0,1,780,880) translate(73.105 51.9)"/><use xlink:href="#s" transform="matrix(1,0,0,1,780,880) translate(50.07999999999999 73.5)"/><path d="M661 835.16l-1.1 3.4-2.92 2.13-1.9.3H541.82v-2h113.1l1.26-.2 2-1.46.82-2.5v-25.5h2zM780 761H665.16l-2.5.82-1.46 2-.2 1.26v25.6h-2V764.9l.3-1.9 2.13-2.9 3.4-1.12H780zM780.03 761l-.03-.62V759z" fill="#7ab648"/><path d="M559.7 830.68L543.92 840l15.76 9.32-1.03 1.72L540 840l18.67-11.04z" fill="#7ab648"/><use xlink:href="#g" transform="matrix(1,0,0,1,618.5185185185185,790.6666666666666) translate(-5.705499999999994 12.444444444444446)"/><path d="M660.3 934.92l.2 1.26 1.47 2 2.5.82H780v2H664.14l-3.4-1.1-2.13-2.92-.3-1.9v-30.15h2zm-4.02-84.4l2.9 2.1 1.12 3.42v30.23h-2v-29.9l-.8-2.5-2-1.46-1.28-.2h-113.8v-2h113.96zM780.03 941l-.03-.62V939z" fill="#7ab648"/><path d="M558.3 841.88l-15.77 9.32 15.76 9.32-1.03 1.72-18.67-11.04 18.67-11.04z" fill="#7ab648"/><use xlink:href="#g" transform="matrix(1,0,0,1,617.8203330472845,886.2672173463951) translate(-5.705499999999994 12.444444444444446)"/><path d="M740 1070c0 16.57-22.4 30-50 30s-50-13.43-50-30 22.4-30 50-30 50 13.43 50 30z" stroke="#000" stroke-opacity="0" fill="#dedffc"/><use xlink:href="#t" transform="matrix(1,0,0,1,640,1040) translate(22.28 33.15)"/><path d="M740 1150c0 16.57-22.4 30-50 30s-50-13.43-50-30 22.4-30 50-30 50 13.43 50 30z" stroke="#000" stroke-opacity="0" fill="#dedffc"/><use xlink:href="#u" transform="matrix(1,0,0,1,640,1120) translate(14.054999999999994 31.410000000000004)"/><path d="M740 1230c0 16.57-22.4 30-50 30s-50-13.43-50-30 22.4-30 50-30 50 13.43 50 30z" stroke="#000" stroke-opacity="0" fill="#dedffc"/><use xlink:href="#v" transform="matrix(1,0,0,1,640,1200) translate(12.529999999999996 33.410000000000004)"/><path d="M740 1310c0 16.57-22.4 30-50 30s-50-13.43-50-30 22.4-30 50-30 50 13.43 50 30z" stroke="#000" stroke-opacity="0" fill="#dedffc"/><use xlink:href="#w" transform="matrix(1,0,0,1,640,1280) translate(12.104999999999999 33.410000000000004)"/><path d="M740 1391.25c0 16.57-22.4 30-50 30s-50-13.43-50-30 22.4-30 50-30 50 13.43 50 30z" stroke="#000" stroke-opacity="0" fill="#dedffc"/><use xlink:href="#x" transform="matrix(1,0,0,1,640,1361.25) translate(16.554999999999993 33.15)"/><path d="M532.45 1071h-67.3l-2.5.82-1.45 2-.2 1.26v63.1h-2v-63.26l.3-1.9 2.13-2.9 3.4-1.12h67.62zm107.55 0h-24.6v-2H640zM640.04 1071l-.04-1v-1z" fill="#7ab648"/><path d="M471.04 1121.33L460 1140l-11.04-18.67 1.72-1.02 9.32 15.77 9.32-15.76z" fill="#7ab648"/><use xlink:href="#g" transform="matrix(1,0,0,1,532.4456026412978,1060.6666666666667) translate(-5.705499999999994 12.444444444444446)"/><path d="M640 1149v2h-24.6v-2zm-93.02-14.73l2.9 2.13 1.12 3.4v.87h-2v-.54l-.82-2.5-2-1.46-1.26-.2h-83.1v-2h83.26zM640.04 1151l-.04-1v-1z" fill="#7ab648"/><path d="M479.7 1125.65l-15.77 9.32 15.76 9.32-1.03 1.7-18.67-11.03 18.67-11.04z" fill="#7ab648"/><use xlink:href="#g" transform="matrix(1,0,0,1,532.4456026412978,1140.6666666666667) translate(-5.705499999999994 12.444444444444446)"/><path d="M591 1224.92l.2 1.26 1.46 2 2.5.82H640v2h-45.16l-3.4-1.1-2.13-2.92-.3-1.9v-.75h2zm-4.02-25.6l2.9 2.1 1.12 3.42v.83h-2v-.5l-.82-2.5-2-1.47-1.26-.2h-43.1v-2h43.26zM640.04 1231l-.04-1v-1z" fill="#7ab648"/><path d="M559.7 1190.68l-15.77 9.32 9.58 5.67h-3.92L540 1200l18.67-11.04z" fill="#7ab648"/><use xlink:href="#g" transform="matrix(1,0,0,1,548.5185185185185,1205.6666666666667) translate(-5.705499999999994 12.444444444444446)"/><path d="M461 1304.92l.2 1.26 1.46 2 2.5.82h73.23v2h-73.56l-3.4-1.1-2.13-2.92-.3-1.9v-43.26h2zm179 4.08v2h-18.64v-2zM640.04 1311l-.04-1v-1z" fill="#7ab648"/><path d="M471.04 1278.67l-1.72 1.02-9.32-15.77-9.32 15.76-1.72-1.03L460 1260z" fill="#7ab648"/><use xlink:href="#g" transform="matrix(1,0,0,1,538.3930335648499,1300.6666666666667) translate(-5.705499999999994 12.444444444444446)"/><path d="M403.4 1386.17l.2 1.26 1.46 2 2.5.82h120.7v2H407.23l-3.4-1.1-2.14-2.92-.3-1.9V1243.4h2zm236.6 4.08v2h-28.78v-2zM640.04 1392.25l-.04-1v-1z" fill="#7ab648"/><path d="M413.44 1260.26l-1.72 1.02-9.32-15.76-9.32 15.76-1.73-1.02 11.05-18.67z" fill="#7ab648"/><use xlink:href="#g" transform="matrix(1,0,0,1,528.2538498193034,1381.9166666666667) translate(-5.705499999999994 12.444444444444446)"/><path d="M630 1550c0-2.76 2.24-5 5-5h110c2.76 0 5 2.24 5 5v50c0 2.76-2.24 5-5 5H635c-2.76 0-5-2.24-5-5z" stroke="#000" stroke-opacity="0" fill="#dedffc"/><use xlink:href="#y" transform="matrix(1,0,0,1,638,1553) translate(12 14.799999999999999)"/><use xlink:href="#z" transform="matrix(1,0,0,1,638,1553) translate(15.049999999999997 36.4)"/><path d="M740 1481.25c0 21.4-22.4 38.75-50 38.75s-50-17.35-50-38.75 22.4-38.75 50-38.75 50 17.35 50 38.75z" stroke="#000" stroke-opacity="0" fill="#dedffc"/><use xlink:href="#A" transform="matrix(1,0,0,1,640,1442.5) translate(19.7911243867203 32.81449522078069)"/><use xlink:href="#B" transform="matrix(1,0,0,1,640,1442.5) translate(26.23045662680054 49.129988051951734)"/><path d="M438.64 1476.17l.2 1.26 1.47 2 2.5.82h87.66v2h-87.98l-3.4-1.1-2.13-2.92-.3-1.9V1259.4h2zm201.36 4.08v2h-26.57v-2zM640.04 1482.25l-.04-1v-1z" fill="#7ab648"/><path d="M448.68 1276.25l-1.72 1-9.32-15.74-9.32 15.76-1.72-1 11.04-18.68z" fill="#7ab648"/><use xlink:href="#g" transform="matrix(1,0,0,1,530.4631256667805,1471.9166666666667) translate(-5.705499999999994 12.444444444444446)"/><path d="M496.14 1569.84l.8 2.5 2 1.46 1.28.2h27v2h-27.16l-1.9-.3-2.9-2.13-1.12-3.4v-316.3h2zm132.04 4.16v2H612.7v-2zM496.14 1253.87h-1l1-.37z" fill="#7ab648"/><path d="M630 1575l-18.67 11.04-1-1.7h2.37v-1.43l13.37-7.9-13.37-7.9v-1.43h-2.38l1-1.7z" fill="#7ab648"/><use xlink:href="#C" transform="matrix(1,0,0,1,527.2275622725101,1565.6666666666667) translate(-5.705500000000001 12.444444444444446)"/><path d="M860 1045c0-2.76 2.24-5 5-5h110c2.76 0 5 2.24 5 5v50c0 2.76-2.24 5-5 5H865c-2.76 0-5-2.24-5-5z" stroke="#000" stroke-opacity="0" fill="#dedffc"/><use xlink:href="#D" transform="matrix(1,0,0,1,868,1048) translate(6.074999999999996 25.6)"/><use xlink:href="#E" transform="matrix(1,0,0,1,868,1048) translate(45.975 25.6)"/><path d="M1200 1010c0 27.6-26.86 50-60 50s-60-22.4-60-50 26.86-50 60-50 60 22.4 60 50z" stroke="#000" stroke-opacity="0" fill="#dedffc"/><use xlink:href="#F" transform="matrix(1,0,0,1,1080,960) translate(9.079999999999993 51.41)"/><use xlink:href="#G" transform="matrix(1,0,0,1,1080,960) translate(34.03 73.01)"/><path d="M757.27 1071H740v-2h17.27zm100.9 0h-15.44v-2h15.45zM740 1070v1l-.04-2z" fill="#7ab648"/><path d="M860 1070l-18.67 11.04-1-1.7h2.4v-1.45l13.34-7.9-13.34-7.9v-1.43h-2.4l1-1.7z" fill="#7ab648"/><use xlink:href="#C" transform="matrix(1,0,0,1,757.2654320987655,1060.6666666666667) translate(-5.705500000000001 12.444444444444446)"/><path d="M1200 1130c0 27.6-26.86 50-60 50s-60-22.4-60-50 26.86-50 60-50 60 22.4 60 50z" stroke="#000" stroke-opacity="0" fill="#dedffc"/><use xlink:href="#H" transform="matrix(1,0,0,1,1080,1080) translate(32.029999999999994 42.525)"/><use xlink:href="#G" transform="matrix(1,0,0,1,1080,1080) translate(33.529999999999994 64.125)"/><path d="M1031 1065.16l-1.1 3.4-2.92 2.13-1.9.3h-43.26v-2h43.1l1.26-.2 2-1.46.82-2.5v-39.5h2zm49-54.16h-8.52v-2h8.52zM1080.04 1011l-.04-1v-1z" fill="#7ab648"/><path d="M999.7 1060.68l-15.77 9.32 15.76 9.32-1.03 1.72L980 1070l18.67-11.04z" fill="#7ab648"/><use xlink:href="#g" transform="matrix(1,0,0,1,988.5185185185185,1006.68611610682) translate(-5.705499999999994 12.444444444444446)"/><path d="M1080 1129v2h-4.66v-2zm-53.02-59.7l2.9 2.13 1.12 3.4v45.84h-2v-45.5l-.82-2.5-2-1.47-1.26-.2h-43.1v-2h43.26zM1080.04 1131l-.04-1v-1z" fill="#7ab648"/><path d="M999.7 1060.68l-15.77 9.32 15.76 9.32-1.03 1.72L980 1070l18.67-11.04z" fill="#7ab648"/><use xlink:href="#g" transform="matrix(1,0,0,1,992.3802607293283,1120.6666666666667) translate(-5.705499999999994 12.444444444444446)"/><path d="M860 1385c0-2.76 2.24-5 5-5h110c2.76 0 5 2.24 5 5v50c0 2.76-2.24 5-5 5H865c-2.76 0-5-2.24-5-5z" stroke="#000" stroke-opacity="0" fill="#dedffc"/><use xlink:href="#I" transform="matrix(1,0,0,1,868,1388) translate(4 25.6)"/><use xlink:href="#J" transform="matrix(1,0,0,1,868,1388) translate(51 25.6)"/><path d="M801 1404.84l.82 2.5 2 1.46 1.26.2h53.1v2h-53.26l-1.9-.3-2.9-2.13-1.12-3.4v-29.5h2zm0-47.84h-2v-277.67h2zm-61-286v-2h17.27v2zM740 1070v1l-.04-2z" fill="#7ab648"/><path d="M860 1410l-18.67 11.04-1.02-1.72 15.77-9.32-15.76-9.32 1.03-1.72z" fill="#7ab648"/><use xlink:href="#C" transform="matrix(1,0,0,1,757.2654320987655,1356.9965246428715) translate(-5.705500000000001 12.444444444444446)"/><path d="M1200 1290c0 27.6-26.86 50-60 50s-60-22.4-60-50 26.86-50 60-50 60 22.4 60 50z" stroke="#000" stroke-opacity="0" fill="#dedffc"/><use xlink:href="#K" transform="matrix(1,0,0,1,1080,1240) translate(17.029999999999994 55.025)"/><path d="M1200 1411.25c0 27.6-26.86 50-60 50s-60-22.4-60-50 26.86-50 60-50 60 22.4 60 50z" stroke="#000" stroke-opacity="0" fill="#dedffc"/><use xlink:href="#L" transform="matrix(1,0,0,1,1080,1361.25) translate(23.08 42.525)"/><use xlink:href="#M" transform="matrix(1,0,0,1,1080,1361.25) translate(66.03 42.525)"/><use xlink:href="#G" transform="matrix(1,0,0,1,1080,1361.25) translate(33.529999999999994 64.125)"/><path d="M1200 1532.5c0 27.6-26.86 50-60 50s-60-22.4-60-50 26.86-50 60-50 60 22.4 60 50z" stroke="#000" stroke-opacity="0" fill="#dedffc"/><use xlink:href="#c" transform="matrix(1,0,0,1,1080,1482.5) translate(14.279999999999996 55.025)"/><use xlink:href="#N" transform="matrix(1,0,0,1,1080,1482.5) translate(57.83 55.025)"/><path d="M996.3 1291h-20.72l-2.5.82-1.45 2-.2 1.26v83.1h-2v-83.26l.3-1.9 2.12-2.9 3.4-1.12h21.04zm83.7 0h-.74v-2h.74zM1080.04 1291l-.04-1v-1z" fill="#7ab648"/><path d="M981.46 1361.33L970.42 1380l-11.04-18.67 1.72-1.02 9.32 15.77 9.32-15.76z" fill="#7ab648"/><use xlink:href="#g" transform="matrix(1,0,0,1,996.2926456019152,1280.6666666666667) translate(-5.705499999999994 12.444444444444446)"/><path d="M996.3 1412.25H981.8v-2h14.47zm83.7 0h-.74v-2h.74zM1080.04 1412.25l-.04-1v-1z" fill="#7ab648"/><path d="M999.68 1401.92h-3.4v2.02l-12.35 7.3 12.36 7.32v2.02h3.38l-1 1.7-18.68-11.03 18.67-11.04z" fill="#7ab648"/><use xlink:href="#g" transform="matrix(1,0,0,1,996.2926456019152,1401.9166666666667) translate(-5.705499999999994 12.444444444444446)"/><path d="M973.4 1527.42l.2 1.26 1.47 2 2.5.82h12.83v2h-13.15l-3.42-1.1-2.12-2.92-.3-1.9v-85.76h2zm106.6 4.08v2h-6.64v-2zM1080.04 1533.5l-.04-1v-1z" fill="#7ab648"/><path d="M983.45 1458.67l-1.72 1.02-9.33-15.77-9.32 15.76-1.72-1.03L972.4 1440z" fill="#7ab648"/><use xlink:href="#g" transform="matrix(1,0,0,1,990.3977837548109,1523.1666666666667) translate(-5.705499999999994 12.444444444444446)"/><path d="M750 1780c0 22.1-24.62 40-55 40s-55-17.9-55-40 24.62-40 55-40 55 17.9 55 40z" stroke="#000" stroke-opacity="0" fill="#dedffc"/><use xlink:href="#O" transform="matrix(1,0,0,1,640,1740) translate(28.054999999999996 29.4)"/><use xlink:href="#P" transform="matrix(1,0,0,1,640,1740) translate(15.579999999999993 51)"/><use xlink:href="#Q" transform="matrix(1,0,0,1,640,1740) translate(56.48 51)"/><path d="M750 1980c0 22.1-24.62 40-55 40s-55-17.9-55-40 24.62-40 55-40 55 17.9 55 40z" stroke="#000" stroke-opacity="0" fill="#dedffc"/><use xlink:href="#R" transform="matrix(1,0,0,1,640,1940) translate(35.730000000000004 31.9)"/><use xlink:href="#S" transform="matrix(1,0,0,1,640,1940) translate(31.529999999999998 53.5)"/><path d="M591 1875.16l-1.1 3.4-2.92 2.13-1.9.3h-43.26v-2h43.1l1.26-.2 2-1.46.82-2.5v-74.15h2zm49-94.16h-44.84l-2.5.82-.15.2h-2.46l1.4-1.9 3.4-1.12H640zM640.03 1781l-.02-.25V1779z" fill="#7ab648"/><path d="M559.7 1870.68l-15.77 9.32 15.76 9.32-1.03 1.72L540 1880l18.67-11.04z" fill="#7ab648"/><use xlink:href="#g" transform="matrix(1,0,0,1,548.5185185185185,1782.022795058771) translate(-5.705499999999994 12.444444444444446)"/><path d="M591 1974.92l.2 1.26 1.46 2 2.5.82H640v2h-45.16l-3.4-1.1-2.13-2.92-.3-1.9v-12.55h2zm-4.02-95.6l2.9 2.1 1.12 3.42v59.03h-2v-58.7l-.82-2.5-2-1.47-1.26-.2h-43.1v-2h43.26zM640.03 1981l-.02-.25V1979z" fill="#7ab648"/><path d="M559.7 1870.68l-15.77 9.32 15.76 9.32-1.03 1.72L540 1880l18.67-11.04z" fill="#7ab648"/><use xlink:href="#g" transform="matrix(1,0,0,1,548.5185185185185,1943.865561132191) translate(-5.705499999999994 12.444444444444446)"/><path d="M860 1071h-8.7v-2h8.7z" fill="#999"/><path fill="#999"/><path d="M798.67 1081.04l-2.9-1.7h3.9zm1-20.37h-3.9l2.9-1.7z" fill="#999"/><path d="M880 1755c0-2.76 2.24-5 5-5h110c2.76 0 5 2.24 5 5v50c0 2.76-2.24 5-5 5H885c-2.76 0-5-2.24-5-5z" stroke="#000" stroke-opacity="0" fill="#dedffc"/><use xlink:href="#D" transform="matrix(1,0,0,1,888,1758) translate(13.099999999999994 25.6)"/><use xlink:href="#T" transform="matrix(1,0,0,1,888,1758) translate(53 25.6)"/><path d="M1220 1730c0 27.6-26.86 50-60 50s-60-22.4-60-50 26.86-50 60-50 60 22.4 60 50z" stroke="#000" stroke-opacity="0" fill="#dedffc"/><use xlink:href="#F" transform="matrix(1,0,0,1,1100,1680) translate(9.079999999999993 51.41)"/><use xlink:href="#U" transform="matrix(1,0,0,1,1100,1680) translate(34.55499999999999 73.01)"/><path d="M1220 1840c0 27.6-26.86 50-60 50s-60-22.4-60-50 26.86-50 60-50 60 22.4 60 50z" stroke="#000" stroke-opacity="0" fill="#dedffc"/><use xlink:href="#V" transform="matrix(1,0,0,1,1100,1790) translate(10.079999999999993 55.025)"/><use xlink:href="#W" transform="matrix(1,0,0,1,1100,1790) translate(72.03 55.025)"/><path d="M1051 1775.16l-1.1 3.4-2.92 2.13-1.9.3h-43.26v-2h43.1l1.26-.2 2-1.46.82-2.5v-33h2zm49-44.16h-8.52v-2h8.52zM1100.04 1731l-.04-1v-1z" fill="#7ab648"/><path d="M1019.7 1770.68l-15.77 9.32 15.76 9.32-1.03 1.72L1000 1780l18.67-11.04z" fill="#7ab648"/><use xlink:href="#g" transform="matrix(1,0,0,1,1008.5185185185185,1723.1849005168106) translate(-5.705499999999994 12.444444444444446)"/><path d="M1100 1839v2h-4.66v-2zm-53.02-59.7l2.9 2.13 1.12 3.4v45.84h-2v-45.5l-.82-2.5-2-1.47-1.26-.2h-43.1v-2h43.26zM1100.04 1841l-.04-1v-1z" fill="#7ab648"/><path d="M1019.7 1770.68l-15.77 9.32 15.76 9.32-1.03 1.72L1000 1780l18.67-11.04z" fill="#7ab648"/><use xlink:href="#g" transform="matrix(1,0,0,1,1012.3802607293283,1830.6666666666667) translate(-5.705499999999994 12.444444444444446)"/><path d="M762.2 1781H750v-2h12.2zm115.98 0h-30.5v-2h30.5zM750 1779.25v1.75l-.03-2z" fill="#7ab648"/><path d="M880 1780l-18.67 11.04-1.02-1.72 15.77-9.32-15.76-9.32 1.03-1.72z" fill="#7ab648"/><use xlink:href="#C" transform="matrix(1,0,0,1,762.2042949674901,1770.6666666666667) translate(-5.705500000000001 12.444444444444446)"/><path d="M750 2200c0 22.1-24.62 40-55 40s-55-17.9-55-40 24.62-40 55-40 55 17.9 55 40z" stroke="#000" stroke-opacity="0" fill="#dedffc"/><use xlink:href="#X" transform="matrix(1,0,0,1,640,2160) translate(15.004999999999997 37.410000000000004)"/><use xlink:href="#Y" transform="matrix(1,0,0,1,640,2160) translate(26.529999999999998 59.01)"/><path d="M745 2540c0 22.1-24.62 40-55 40s-55-17.9-55-40 24.62-40 55-40 55 17.9 55 40z" stroke="#000" stroke-opacity="0" fill="#dedffc"/><use xlink:href="#Z" transform="matrix(1,0,0,1,635,2500) translate(17.554999999999996 33.410000000000004)"/><use xlink:href="#Y" transform="matrix(1,0,0,1,635,2500) translate(26.529999999999998 55.01)"/><path d="M591 2355.16l-1.1 3.4-2.92 2.13-1.9.3h-43.26v-2h43.1l1.26-.2 2-1.46.82-2.5v-128.7h2zM640 2201h-44.84l-2.5.82-1.46 2-.2 1.26v2.4h-2v-2.56l.3-1.9 2.13-2.9 3.4-1.12H640zM640.03 2201l-.02-.25V2199z" fill="#7ab648"/><path d="M559.7 2350.68l-15.77 9.32 15.76 9.32-1.03 1.72L540 2360l18.67-11.04z" fill="#7ab648"/><use xlink:href="#g" transform="matrix(1,0,0,1,548.5185185185185,2207.4695444129566) translate(-5.705499999999994 12.444444444444446)"/><path d="M588.5 2534.92l.2 1.26 1.46 2 2.5.82H635v2h-42.66l-3.4-1.1-2.13-2.92-.3-1.9v-29h2zm-4.02-175.6l2.9 2.1 1.12 3.42v122.58h-2v-122.26l-.82-2.5-2-1.46-1.26-.2h-40.6v-2h40.76zM635.03 2541l-.02-.25V2539z" fill="#7ab648"/><path d="M559.7 2350.68l-15.77 9.32 15.76 9.32-1.03 1.72L540 2360l18.67-11.04z" fill="#7ab648"/><use xlink:href="#g" transform="matrix(1,0,0,1,546.0185185185185,2487.4150955627892) translate(-5.705499999999994 12.444444444444446)"/><path d="M980 2085c0-2.76 2.24-5 5-5h110c2.76 0 5 2.24 5 5v50c0 2.76-2.24 5-5 5H985c-2.76 0-5-2.24-5-5z" stroke="#000" stroke-opacity="0" fill="#dedffc"/><use xlink:href="#aa" transform="matrix(1,0,0,1,988,2088) translate(11.524999999999999 14.799999999999999)"/><use xlink:href="#ab" transform="matrix(1,0,0,1,988,2088) translate(73.475 14.799999999999999)"/><use xlink:href="#ac" transform="matrix(1,0,0,1,988,2088) translate(32.525 36.4)"/><path d="M980 2185c0-2.76 2.24-5 5-5h110c2.76 0 5 2.24 5 5v50c0 2.76-2.24 5-5 5H985c-2.76 0-5-2.24-5-5z" stroke="#000" stroke-opacity="0" fill="#dedffc"/><use xlink:href="#aa" transform="matrix(1,0,0,1,988,2188) translate(11.524999999999999 14.799999999999999)"/><use xlink:href="#ab" transform="matrix(1,0,0,1,988,2188) translate(73.475 14.799999999999999)"/><use xlink:href="#ad" transform="matrix(1,0,0,1,988,2188) translate(31.049999999999997 36.4)"/><path d="M980 2295c0-2.76 2.24-5 5-5h110c2.76 0 5 2.24 5 5v50c0 2.76-2.24 5-5 5H985c-2.76 0-5-2.24-5-5z" stroke="#000" stroke-opacity="0" fill="#dedffc"/><use xlink:href="#ae" transform="matrix(1,0,0,1,988,2298) translate(14.5 14.799999999999999)"/><use xlink:href="#ab" transform="matrix(1,0,0,1,988,2298) translate(70.5 14.799999999999999)"/><use xlink:href="#af" transform="matrix(1,0,0,1,988,2298) translate(18.275 36.4)"/><path d="M867.57 2112.12l-.75.54-.82 2.5v79.92l-.3 1.9-2.13 2.9-2.4.8h-4.7v.32H750v-2h109.84l2.5-.82 1.46-2 .2-1.26v-80.08l1.1-3.4 2.47-1.8zm110.6-1.12h-25.14v-2h25.15zM750 2199.25v1.75l-.03-2z" fill="#7ab648"/><path d="M980 2110l-18.67 11.04-1.02-1.72 15.77-9.32-15.76-9.32 1.03-1.72z" fill="#7ab648"/><use xlink:href="#C" transform="matrix(1,0,0,1,867.5653981323848,2100.6666666666665) translate(-5.705500000000001 12.444444444444446)"/><path d="M978.18 2209v2h-36.24v-2zm-114.2-8.33h-7.5v.33H750v-2h110.16l3.4 1.1zM750 2199.25v1.75l-.03-2z" fill="#7ab648"/><path d="M980 2210l-18.67 11.04-1.02-1.72 15.77-9.32-15.76-9.32 1.03-1.72z" fill="#7ab648"/><use xlink:href="#C" transform="matrix(1,0,0,1,856.4704567031401,2200.6666666666665) translate(-5.705500000000001 12.444444444444446)"/><path d="M978.18 2319v2h-33.36v-2zM866 2310.67h-2v-91.34h2zm-2.03-110h-7.5v.33H750v-2h110.16l3.4 1.1zM750 2199.25v1.75l-.03-2z" fill="#7ab648"/><path d="M980 2320l-18.67 11.04-1.02-1.72 15.77-9.32-15.76-9.32 1.03-1.72z" fill="#7ab648"/><use xlink:href="#C" transform="matrix(1,0,0,1,859.3467599487178,2310.6666666666665) translate(-5.705500000000001 12.444444444444446)"/><path d="M880 1755c0-2.76 2.24-5 5-5h110c2.76 0 5 2.24 5 5v50c0 2.76-2.24 5-5 5H885c-2.76 0-5-2.24-5-5z" stroke="#000" stroke-opacity="0" fill="#dedffc"/><use xlink:href="#D" transform="matrix(1,0,0,1,888,1758) translate(13.099999999999994 25.6)"/><use xlink:href="#T" transform="matrix(1,0,0,1,888,1758) translate(53 25.6)"/><path d="M980 2465c0-2.76 2.24-5 5-5h110c2.76 0 5 2.24 5 5v50c0 2.76-2.24 5-5 5H985c-2.76 0-5-2.24-5-5z" stroke="#000" stroke-opacity="0" fill="#dedffc"/><use xlink:href="#aa" transform="matrix(1,0,0,1,988,2468) translate(11.524999999999999 14.799999999999999)"/><use xlink:href="#ab" transform="matrix(1,0,0,1,988,2468) translate(73.475 14.799999999999999)"/><use xlink:href="#ag" transform="matrix(1,0,0,1,988,2468) translate(17.049999999999997 36.4)"/><path d="M980 2585c0-2.76 2.24-5 5-5h110c2.76 0 5 2.24 5 5v50c0 2.76-2.24 5-5 5H985c-2.76 0-5-2.24-5-5z" stroke="#000" stroke-opacity="0" fill="#dedffc"/><use xlink:href="#aa" transform="matrix(1,0,0,1,988,2588) translate(11.524999999999999 14.799999999999999)"/><use xlink:href="#ab" transform="matrix(1,0,0,1,988,2588) translate(73.475 14.799999999999999)"/><use xlink:href="#ah" transform="matrix(1,0,0,1,988,2588) translate(37.525 36.4)"/><path d="M863.5 2535.08l-.3 1.9-2.13 2.9-3.4 1.12H745v-2h112.34l2.5-.82 1.46-2 .2-1.26v-35.6h2zM978.18 2491H943.2v-2h34.98zM745 2539.25v1.75l-.03-2z" fill="#7ab648"/><path d="M980 2490l-18.67 11.04-1.02-1.72 15.77-9.32-15.76-9.32 1.03-1.72z" fill="#7ab648"/><use xlink:href="#C" transform="matrix(1,0,0,1,857.7381074202071,2480.6666666666665) translate(-5.705500000000001 12.444444444444446)"/><path d="M978.18 2609v2h-40.65v-2zm-117.1-68.9l2.1 2.92.32 1.9v55.75h-2v-55.6l-.2-1.25-1.46-2-2.5-.82H745v-2h112.66zM745 2539.25v1.75l-.03-2z" fill="#7ab648"/><path d="M980 2610l-18.67 11.04-1.02-1.72 15.77-9.32-15.76-9.32 1.03-1.72z" fill="#7ab648"/><use xlink:href="#C" transform="matrix(1,0,0,1,852.0658385992846,2600.6666666666665) translate(-5.705500000000001 12.444444444444446)"/><path d="M745 2726.23c0 22.1-24.62 40-55 40s-55-17.9-55-40 24.62-40 55-40 55 17.9 55 40z" stroke="#000" stroke-opacity="0" fill="#dedffc"/><use xlink:href="#ai" transform="matrix(1,0,0,1,635,2686.234400000001) translate(23.029999999999998 31.9)"/><use xlink:href="#aj" transform="matrix(1,0,0,1,635,2686.234400000001) translate(23.529999999999998 53.5)"/><path d="M745 2886.23c0 22.1-24.62 40-55 40s-55-17.9-55-40 24.62-40 55-40 55 17.9 55 40z" stroke="#000" stroke-opacity="0" fill="#dedffc"/><use xlink:href="#ai" transform="matrix(1,0,0,1,635,2846.234400000001) translate(23.029999999999998 31.9)"/><use xlink:href="#W" transform="matrix(1,0,0,1,635,2846.234400000001) translate(36.05499999999999 53.5)"/><path d="M588.5 2801.4l-1.1 3.4-2.92 2.13-1.9.3h-40.76v-2h40.6l1.26-.2 2-1.46.82-2.5v-25.5h2zm46.5-74.17h-42.34l-2.5.82-1.46 2-.2 1.26v25.6h-2v-25.75l.3-1.9 2.13-2.9 3.4-1.12H635zM635.03 2727.23l-.02-.24v-1.77z" fill="#7ab648"/><path d="M559.7 2796.9l-15.77 9.33 15.76 9.32-1.03 1.73-18.67-11.05 18.67-11.04z" fill="#7ab648"/><use xlink:href="#g" transform="matrix(1,0,0,1,546.0185185185185,2756.9010666666677) translate(-5.705499999999994 12.444444444444446)"/><path d="M588.5 2881.15l.2 1.27 1.46 2 2.5.8H635v2h-42.66l-3.4-1.1-2.13-2.9-.3-1.9v-25.75h2zm-4.02-75.6l2.9 2.1 1.12 3.43v25.82h-2v-25.5l-.82-2.5-2-1.46-1.26-.2h-40.6v-2h40.76zM635.03 2887.23l-.02-.24v-1.77z" fill="#7ab648"/><path d="M559.7 2796.9l-15.77 9.33 15.76 9.32-1.03 1.73-18.67-11.05 18.67-11.04z" fill="#7ab648"/><use xlink:href="#g" transform="matrix(1,0,0,1,546.0185185185185,2836.9010666666677) translate(-5.705499999999994 12.444444444444446)"/><path d="M143.75 3239.14c0 10.6-11.93 19.14-26.63 19.14-14.77 0-26.7-8.56-26.7-19.14 0-10.6 11.93-19.14 26.7-19.14 14.7 0 26.63 8.55 26.63 19.14zM94.25 3260.16h46.28c14.25 0 14.25 0 14.25 10.3s0 10.3-14.25 10.3H94.25c-14.25 0-14.25 0-14.25-10.3s0-10.3 14.25-10.3z" fill="#dedffc"/><path d="M97.4 3277.42h39.38v42.5H97.4v-42.5z" fill="#dedffc"/><path d="M97.4 3318.3h17.77v46.84H97.4v-46.83zM120.28 3318.74h16.5v46.12h-16.5v-46.12zM80.15 3267.85h13.5v41.04h-13.5v-41.05zM141.05 3268.43h13.65v41.04h-13.65v-41.04z" fill="#dedffc"/><use xlink:href="#ak" transform="matrix(1,0,0,1,50,3365) translate(36.38209259259259 18.11111111111111)"/><path d="M73.8 1476H45.42l-.47.08-.87.63-.45 1.36v1701.5l.08.48.63.86 1.35.44h49.14l2.68.44 4.05 2.95 1.5 4.56v35.54h-7v-34.44l-.45-1.35-.87-.63-.47-.08h-49.7l-4.54-1.5-2.96-4.03-.43-2.68V1476.94l1.5-4.55 4.03-2.97 2.7-.43h28.9zM98 3225.78l-1.94 1.7v-2.64h3.5z"/><path d="M80.15 1472.5l-22.3 13.2-3.57-6.03 12.12-7.17-12.12-7.17 3.56-6.02z"/><path d="M99.56 3224.84v-15.38" fill="none"/><path d="M99.56 3224.84v-15.38" stroke="#999" stroke-width="2" fill="none"/><path d="M98.56 3225.44v-.6h1z" fill="#999"/><path d="M109.74 3226.82l-10.18-17.2-10.18 17.2" stroke="#999" stroke-width="2" fill="none"/><path d="M860 3190c0 27.6-31.34 50-70 50s-70-22.4-70-50 31.34-50 70-50 70 22.4 70 50z" stroke="#000" stroke-opacity="0" fill="#dedffc"/><g><use xlink:href="#al" transform="matrix(1,0,0,1,720,3140) translate(36.555 27.41)"/><use xlink:href="#am" transform="matrix(1,0,0,1,720,3140) translate(38.029999999999994 49.01)"/><use xlink:href="#aj" transform="matrix(1,0,0,1,720,3140) translate(38.53 70.61)"/></g><path d="M560 3292.5c0 27.6-31.34 50-70 50s-70-22.4-70-50 31.34-50 70-50 70 22.4 70 50z" stroke="#000" stroke-opacity="0" fill="#dedffc"/><g><use xlink:href="#c" transform="matrix(1,0,0,1,420,3242.5) translate(23.079999999999995 42.525)"/><use xlink:href="#an" transform="matrix(1,0,0,1,420,3242.5) translate(66.63 42.525)"/><use xlink:href="#ao" transform="matrix(1,0,0,1,420,3242.5) translate(38.55499999999999 64.125)"/></g><path d="M860 3410c0 27.6-31.34 50-70 50s-70-22.4-70-50 31.34-50 70-50 70 22.4 70 50z" stroke="#000" stroke-opacity="0" fill="#dedffc"/><g><use xlink:href="#al" transform="matrix(1,0,0,1,720,3360) translate(36.55499999999999 42.525)"/><use xlink:href="#ap" transform="matrix(1,0,0,1,720,3360) translate(16.579999999999995 64.125)"/><use xlink:href="#W" transform="matrix(1,0,0,1,720,3360) translate(85.53 64.125)"/></g><path d="M204.9 3293.5h-48.38v-2h48.38zm215.1 0H287.86v-2H420z" fill="#7ab648"/><path d="M174.4 3283.18l-15.77 9.32 15.76 9.32-1.03 1.72-18.67-11.04 18.67-11.04zM420.04 3293.5l-.04-1v-1z" fill="#7ab648"/><g><use xlink:href="#g" transform="matrix(1,0,0,1,204.89778360469242,3283.1666666666665) translate(-5.705499999999994 12.444444444444446)"/></g><path d="M641 3287.66l-1.1 3.4-2.92 2.13-1.9.3h-73.26v-2h73.1l1.26-.2 2-1.46.82-2.5v-87.3h2zm79-96.66h-38.52v-2H720zM720.04 3191l-.04-1v-1z" fill="#7ab648"/><path d="M579.7 3283.18l-15.77 9.32 15.76 9.32-1.03 1.72L560 3292.5l18.67-11.04z" fill="#7ab648"/><g><use xlink:href="#g" transform="matrix(1,0,0,1,598.5185185185185,3181.3858955669134) translate(-5.705499999999994 12.444444444444446)"/></g><path d="M720 3409v2h-37.07v-2zm-83.02-117.2l2.9 2.13 1.12 3.4v103.34h-2v-103l-.82-2.5-2-1.47-1.26-.2h-73.1v-2h73.26zM720.04 3411l-.04-1v-1z" fill="#7ab648"/><path d="M579.7 3283.18l-15.77 9.32 15.76 9.32-1.03 1.72L560 3292.5l18.67-11.04z" fill="#7ab648"/><g><use xlink:href="#g" transform="matrix(1,0,0,1,599.9665760169247,3400.6666666666665) translate(-5.705499999999994 12.444444444444446)"/></g><path d="M1450 1725c0-2.76 2.24-5 5-5h110c2.76 0 5 2.24 5 5v50c0 2.76-2.24 5-5 5h-110c-2.76 0-5-2.24-5-5z" stroke="#000" stroke-opacity="0" fill="#dedffc"/><g><use xlink:href="#aa" transform="matrix(1,0,0,1,1458,1728) translate(11.524999999999999 14.799999999999999)"/><use xlink:href="#ab" transform="matrix(1,0,0,1,1458,1728) translate(73.475 14.799999999999999)"/><use xlink:href="#aq" transform="matrix(1,0,0,1,1458,1728) translate(28.049999999999997 36.4)"/></g><path d="M1450 1825c0-2.76 2.24-5 5-5h110c2.76 0 5 2.24 5 5v50c0 2.76-2.24 5-5 5h-110c-2.76 0-5-2.24-5-5z" stroke="#000" stroke-opacity="0" fill="#dedffc"/><g><use xlink:href="#aa" transform="matrix(1,0,0,1,1458,1828) translate(11.524999999999999 14.799999999999999)"/><use xlink:href="#ab" transform="matrix(1,0,0,1,1458,1828) translate(73.475 14.799999999999999)"/><use xlink:href="#ar" transform="matrix(1,0,0,1,1458,1828) translate(22.025 36.4)"/></g><path d="M1450 1935c0-2.76 2.24-5 5-5h110c2.76 0 5 2.24 5 5v50c0 2.76-2.24 5-5 5h-110c-2.76 0-5-2.24-5-5z" stroke="#000" stroke-opacity="0" fill="#dedffc"/><g><use xlink:href="#ae" transform="matrix(1,0,0,1,1458,1938) translate(14.5 14.799999999999999)"/><use xlink:href="#ab" transform="matrix(1,0,0,1,1458,1938) translate(70.5 14.799999999999999)"/><use xlink:href="#as" transform="matrix(1,0,0,1,1458,1938) translate(12 36.4)"/></g><path d="M1337.57 1752.12l-.75.54-.82 2.5v79.92l-.3 1.9-2.13 2.9-2.4.8h-4.7v.32H1220v-2h109.84l2.5-.82 1.46-2 .2-1.26v-80.08l1.1-3.4 2.47-1.8zm110.6-1.12h-25.14v-2h25.15z" fill="#7ab648"/><path d="M1450 1750l-18.67 11.04-1.02-1.72 15.77-9.32-15.76-9.32 1.03-1.72z" fill="#7ab648"/><g><use xlink:href="#C" transform="matrix(1,0,0,1,1337.5653981323846,1740.6666666666667) translate(-5.705500000000001 12.444444444444446)"/></g><path d="M1448.18 1849v2h-36.24v-2zm-114.2-8.33h-7.5v.33H1220v-2h110.16l3.4 1.1z" fill="#7ab648"/><path d="M1450 1850l-18.67 11.04-1.02-1.72 15.77-9.32-15.76-9.32 1.03-1.72z" fill="#7ab648"/><g><use xlink:href="#C" transform="matrix(1,0,0,1,1326.4704567031401,1840.6666666666667) translate(-5.705500000000001 12.444444444444446)"/></g><path d="M1448.18 1959v2h-33.36v-2zm-112.18-8.33h-2v-91.34h2zm-2.03-110h-7.5v.33H1220v-2h110.16l3.4 1.1z" fill="#7ab648"/><path d="M1450 1960l-18.67 11.04-1.02-1.72 15.77-9.32-15.76-9.32 1.03-1.72z" fill="#7ab648"/><g><use xlink:href="#C" transform="matrix(1,0,0,1,1329.3467599487176,1950.6666666666667) translate(-5.705500000000001 12.444444444444446)"/></g><defs><path fill="#666" d="M143 4C61 4 22-44 18-125c-5-107 100-154 193-111 17 8 29 25 37 43l-32 9c-13-25-37-40-76-40-61 0-88 39-88 99 0 61 29 100 91 101 35 0 62-11 79-27v-45h-74v-28h105v86C228-13 192 4 143 4" id="at"/><path fill="#666" d="M232-93c-1 65-40 97-104 97C67 4 28-28 28-90v-158h33c8 89-33 224 67 224 102 0 64-133 71-224h33v155" id="au"/><path fill="#666" d="M30 0v-248h187v28H63v79h144v27H63v87h162V0H30" id="av"/><path fill="#666" d="M185-189c-5-48-123-54-124 2 14 75 158 14 163 119 3 78-121 87-175 55-17-10-28-26-33-46l33-7c5 56 141 63 141-1 0-78-155-14-162-118-5-82 145-84 179-34 5 7 8 16 11 25" id="aw"/><path fill="#666" d="M127-220V0H93v-220H8v-28h204v28h-85" id="ax"/><g id="a"><use transform="matrix(0.04320987654320988,0,0,0.04320987654320988,0,0)" xlink:href="#at"/><use transform="matrix(0.04320987654320988,0,0,0.04320987654320988,12.098765432098766,0)" xlink:href="#au"/><use transform="matrix(0.04320987654320988,0,0,0.04320987654320988,23.290123456790127,0)" xlink:href="#av"/><use transform="matrix(0.04320987654320988,0,0,0.04320987654320988,33.6604938271605,0)" xlink:href="#aw"/><use transform="matrix(0.04320987654320988,0,0,0.04320987654320988,44.030864197530875,0)" xlink:href="#ax"/></g><path fill="#666" d="M233-177c-1 41-23 64-60 70L243 0h-38l-65-103H63V0H30v-248c88 3 205-21 203 71zM63-129c60-2 137 13 137-47 0-61-80-42-137-45v92" id="ay"/><g id="b"><use transform="matrix(0.04320987654320988,0,0,0.04320987654320988,0,0)" xlink:href="#au"/><use transform="matrix(0.04320987654320988,0,0,0.04320987654320988,11.19135802469136,0)" xlink:href="#aw"/><use transform="matrix(0.04320987654320988,0,0,0.04320987654320988,21.56172839506173,0)" xlink:href="#av"/><use transform="matrix(0.04320987654320988,0,0,0.04320987654320988,31.9320987654321,0)" xlink:href="#ay"/></g><path d="M137 0h-34L2-248h35l83 218 83-218h36" id="az"/><path d="M24-231v-30h32v30H24zM24 0v-190h32V0H24" id="aA"/><path d="M100-194c63 0 86 42 84 106H49c0 40 14 67 53 68 26 1 43-12 49-29l28 8c-11 28-37 45-77 45C44 4 14-33 15-96c1-61 26-98 85-98zm52 81c6-60-76-77-97-28-3 7-6 17-6 28h103" id="aB"/><path d="M206 0h-36l-40-164L89 0H53L-1-190h32L70-26l43-164h34l41 164 42-164h31" id="aC"/><g id="c"><use transform="matrix(0.05,0,0,0.05,0,0)" xlink:href="#az"/><use transform="matrix(0.05,0,0,0.05,11.65,0)" xlink:href="#aA"/><use transform="matrix(0.05,0,0,0.05,15.600000000000001,0)" xlink:href="#aB"/><use transform="matrix(0.05,0,0,0.05,25.6,0)" xlink:href="#aC"/></g><path d="M30 0v-248h33v221h125V0H30" id="aD"/><path d="M210-169c-67 3-38 105-44 169h-31v-121c0-29-5-50-35-48C34-165 62-65 56 0H25l-1-190h30c1 10-1 24 2 32 10-44 99-50 107 0 11-21 27-35 58-36 85-2 47 119 55 194h-31v-121c0-29-5-49-35-48" id="aE"/><path d="M59-47c-2 24 18 29 38 22v24C64 9 27 4 27-40v-127H5v-23h24l9-43h21v43h35v23H59v120" id="aF"/><path d="M85-194c31 0 48 13 60 33l-1-100h32l1 261h-30c-2-10 0-23-3-31C134-8 116 4 85 4 32 4 16-35 15-94c0-66 23-100 70-100zm9 24c-40 0-46 34-46 75 0 40 6 74 45 74 42 0 51-32 51-76 0-42-9-74-50-73" id="aG"/><g id="d"><use transform="matrix(0.05,0,0,0.05,0,0)" xlink:href="#aD"/><use transform="matrix(0.05,0,0,0.05,10,0)" xlink:href="#aA"/><use transform="matrix(0.05,0,0,0.05,13.949999999999998,0)" xlink:href="#aE"/><use transform="matrix(0.05,0,0,0.05,28.899999999999995,0)" xlink:href="#aB"/><use transform="matrix(0.05,0,0,0.05,38.9,0)" xlink:href="#aF"/><use transform="matrix(0.05,0,0,0.05,43.9,0)" xlink:href="#aB"/><use transform="matrix(0.05,0,0,0.05,53.900000000000006,0)" xlink:href="#aG"/></g><path d="M30 0v-248h187v28H63v79h144v27H63v87h162V0H30" id="aH"/><path d="M141 0L90-78 38 0H4l68-98-65-92h35l48 74 47-74h35l-64 92 68 98h-35" id="aI"/><path d="M114-163C36-179 61-72 57 0H25l-1-190h30c1 12-1 29 2 39 6-27 23-49 58-41v29" id="aJ"/><path d="M96-169c-40 0-48 33-48 73s9 75 48 75c24 0 41-14 43-38l32 2c-6 37-31 61-74 61-59 0-76-41-82-99-10-93 101-131 147-64 4 7 5 14 7 22l-32 3c-4-21-16-35-41-35" id="aK"/><path d="M135-143c-3-34-86-38-87 0 15 53 115 12 119 90S17 21 10-45l28-5c4 36 97 45 98 0-10-56-113-15-118-90-4-57 82-63 122-42 12 7 21 19 24 35" id="aL"/><g id="e"><use transform="matrix(0.05,0,0,0.05,0,0)" xlink:href="#aH"/><use transform="matrix(0.05,0,0,0.05,12,0)" xlink:href="#aI"/><use transform="matrix(0.05,0,0,0.05,21,0)" xlink:href="#aB"/><use transform="matrix(0.05,0,0,0.05,31,0)" xlink:href="#aJ"/><use transform="matrix(0.05,0,0,0.05,36.95,0)" xlink:href="#aK"/><use transform="matrix(0.05,0,0,0.05,45.95,0)" xlink:href="#aA"/><use transform="matrix(0.05,0,0,0.05,49.900000000000006,0)" xlink:href="#aL"/><use transform="matrix(0.05,0,0,0.05,58.900000000000006,0)" xlink:href="#aB"/><use transform="matrix(0.05,0,0,0.05,68.9,0)" xlink:href="#aL"/></g><path d="M233-177c-1 41-23 64-60 70L243 0h-38l-65-103H63V0H30v-248c88 3 205-21 203 71zM63-129c60-2 137 13 137-47 0-61-80-42-137-45v92" id="aM"/><path d="M177-190C167-65 218 103 67 71c-23-6-38-20-44-43l32-5c15 47 100 32 89-28v-30C133-14 115 1 83 1 29 1 15-40 15-95c0-56 16-97 71-98 29-1 48 16 59 35 1-10 0-23 2-32h30zM94-22c36 0 50-32 50-73 0-42-14-75-50-75-39 0-46 34-46 75s6 73 46 73" id="aN"/><g id="f"><use transform="matrix(0.05,0,0,0.05,0,0)" xlink:href="#aM"/><use transform="matrix(0.05,0,0,0.05,12.950000000000001,0)" xlink:href="#aB"/><use transform="matrix(0.05,0,0,0.05,22.950000000000003,0)" xlink:href="#aN"/><use transform="matrix(0.05,0,0,0.05,32.95,0)" xlink:href="#aA"/><use transform="matrix(0.05,0,0,0.05,36.900000000000006,0)" xlink:href="#aL"/><use transform="matrix(0.05,0,0,0.05,45.900000000000006,0)" xlink:href="#aF"/><use transform="matrix(0.05,0,0,0.05,50.900000000000006,0)" xlink:href="#aB"/><use transform="matrix(0.05,0,0,0.05,60.900000000000006,0)" xlink:href="#aJ"/></g><path fill="#c92d39" d="M18-100v-36l175-74v27L42-118l151 64v27" id="aO"/><path fill="#c92d39" d="M100-194c63 0 86 42 84 106H49c0 40 14 67 53 68 26 1 43-12 49-29l28 8c-11 28-37 45-77 45C44 4 14-33 15-96c1-61 26-98 85-98zm52 81c6-60-76-77-97-28-3 7-6 17-6 28h103" id="aP"/><path fill="#c92d39" d="M141 0L90-78 38 0H4l68-98-65-92h35l48 74 47-74h35l-64 92 68 98h-35" id="aQ"/><path fill="#c92d39" d="M59-47c-2 24 18 29 38 22v24C64 9 27 4 27-40v-127H5v-23h24l9-43h21v43h35v23H59v120" id="aR"/><path fill="#c92d39" d="M117-194c89-4 53 116 60 194h-32v-121c0-31-8-49-39-48C34-167 62-67 57 0H25l-1-190h30c1 10-1 24 2 32 11-22 29-35 61-36" id="aS"/><path fill="#c92d39" d="M85-194c31 0 48 13 60 33l-1-100h32l1 261h-30c-2-10 0-23-3-31C134-8 116 4 85 4 32 4 16-35 15-94c0-66 23-100 70-100zm9 24c-40 0-46 34-46 75 0 40 6 74 45 74 42 0 51-32 51-76 0-42-9-74-50-73" id="aT"/><path fill="#c92d39" d="M18-27v-27l151-64-151-65v-27l175 74v36" id="aU"/><g id="g"><use transform="matrix(0.04320987654320988,0,0,0.04320987654320988,0,0)" xlink:href="#aO"/><use transform="matrix(0.04320987654320988,0,0,0.04320987654320988,9.074074074074074,0)" xlink:href="#aO"/><use transform="matrix(0.04320987654320988,0,0,0.04320987654320988,18.14814814814815,0)" xlink:href="#aP"/><use transform="matrix(0.04320987654320988,0,0,0.04320987654320988,26.790123456790127,0)" xlink:href="#aQ"/><use transform="matrix(0.04320987654320988,0,0,0.04320987654320988,34.567901234567906,0)" xlink:href="#aR"/><use transform="matrix(0.04320987654320988,0,0,0.04320987654320988,38.88888888888889,0)" xlink:href="#aP"/><use transform="matrix(0.04320987654320988,0,0,0.04320987654320988,47.53086419753087,0)" xlink:href="#aS"/><use transform="matrix(0.04320987654320988,0,0,0.04320987654320988,56.17283950617284,0)" xlink:href="#aT"/><use transform="matrix(0.04320987654320988,0,0,0.04320987654320988,64.81481481481482,0)" xlink:href="#aU"/><use transform="matrix(0.04320987654320988,0,0,0.04320987654320988,73.8888888888889,0)" xlink:href="#aU"/></g><path fill="#666" d="M76-105c-23 59 45 89 88 55 12-10 18-24 22-45l30-153h51C238-143 259 4 118 4 48 4 11-39 25-112l26-136h52" id="aV"/><path fill="#666" d="M178-136c88 48 22 151-73 140C49-3 12-15 4-64l51-9c1 50 111 53 115 3-16-63-132-20-133-112 0-93 190-91 199-10l-50 12c-4-41-93-50-97-4 7 38 59 32 89 48" id="aW"/><path fill="#666" d="M6 0l48-248h195l-8 40H98l-12 63h132l-7 40H79L66-40h150l-8 40H6" id="aX"/><path fill="#666" d="M258-177c0 46-32 67-71 75L235 0h-57l-41-94H76L58 0H6l48-248c89 2 204-19 204 71zm-53 3c0-46-63-30-107-33l-14 73c51-2 120 13 121-40" id="aY"/><g id="h"><use transform="matrix(0.04320987654320988,0,0,0.04320987654320988,0,0)" xlink:href="#aV"/><use transform="matrix(0.04320987654320988,0,0,0.04320987654320988,11.19135802469136,0)" xlink:href="#aW"/><use transform="matrix(0.04320987654320988,0,0,0.04320987654320988,21.56172839506173,0)" xlink:href="#aX"/><use transform="matrix(0.04320987654320988,0,0,0.04320987654320988,31.9320987654321,0)" xlink:href="#aY"/></g><path fill="#666" d="M70-104c-4 71 81 81 132 50l8-40h-60l7-37h108L246-31C216-10 181 3 130 3 60 2 18-32 18-102c-1-106 79-169 188-144 33 8 53 31 63 63l-50 14c-6-26-25-42-56-42-62 0-89 43-93 107" id="aZ"/><path fill="#666" d="M157-208L117 0H65l40-208H25l8-40h212l-8 40h-80" id="ba"/><g id="i"><use transform="matrix(0.04320987654320988,0,0,0.04320987654320988,0,0)" xlink:href="#aZ"/><use transform="matrix(0.04320987654320988,0,0,0.04320987654320988,12.098765432098766,0)" xlink:href="#aV"/><use transform="matrix(0.04320987654320988,0,0,0.04320987654320988,23.290123456790127,0)" xlink:href="#aX"/><use transform="matrix(0.04320987654320988,0,0,0.04320987654320988,33.6604938271605,0)" xlink:href="#aW"/><use transform="matrix(0.04320987654320988,0,0,0.04320987654320988,44.030864197530875,0)" xlink:href="#ba"/></g><g id="j"><use transform="matrix(0.04320987654320988,0,0,0.04320987654320988,0,0)" xlink:href="#aV"/><use transform="matrix(0.04320987654320988,0,0,0.04320987654320988,11.19135802469136,0)" xlink:href="#aW"/><use transform="matrix(0.04320987654320988,0,0,0.04320987654320988,21.56172839506173,0)" xlink:href="#aX"/><use transform="matrix(0.04320987654320988,0,0,0.04320987654320988,31.9320987654321,0)" xlink:href="#aY"/></g><path d="M232-93c-1 65-40 97-104 97C67 4 28-28 28-90v-158h33c8 89-33 224 67 224 102 0 64-133 71-224h33v155" id="bb"/><g id="k"><use transform="matrix(0.05,0,0,0.05,0,0)" xlink:href="#bb"/><use transform="matrix(0.05,0,0,0.05,12.950000000000001,0)" xlink:href="#aL"/><use transform="matrix(0.05,0,0,0.05,21.950000000000003,0)" xlink:href="#aB"/><use transform="matrix(0.05,0,0,0.05,31.950000000000003,0)" xlink:href="#aJ"/></g><path d="M30-248c87 1 191-15 191 75 0 78-77 80-158 76V0H30v-248zm33 125c57 0 124 11 124-50 0-59-68-47-124-48v98" id="bc"/><path d="M100-194c62-1 85 37 85 99 1 63-27 99-86 99S16-35 15-95c0-66 28-99 85-99zM99-20c44 1 53-31 53-75 0-43-8-75-51-75s-53 32-53 75 10 74 51 75" id="bd"/><path d="M101-234c-31-9-42 10-38 44h38v23H63V0H32v-167H5v-23h27c-7-52 17-82 69-68v24" id="be"/><path d="M24 0v-261h32V0H24" id="bf"/><g id="l"><use transform="matrix(0.05,0,0,0.05,0,0)" xlink:href="#bc"/><use transform="matrix(0.05,0,0,0.05,12,0)" xlink:href="#aJ"/><use transform="matrix(0.05,0,0,0.05,17.95,0)" xlink:href="#bd"/><use transform="matrix(0.05,0,0,0.05,27.950000000000003,0)" xlink:href="#be"/><use transform="matrix(0.05,0,0,0.05,32.95,0)" xlink:href="#aA"/><use transform="matrix(0.05,0,0,0.05,36.900000000000006,0)" xlink:href="#bf"/><use transform="matrix(0.05,0,0,0.05,40.85000000000001,0)" xlink:href="#aB"/></g><g id="m"><use transform="matrix(0.05,0,0,0.05,0,0)" xlink:href="#aH"/><use transform="matrix(0.05,0,0,0.05,12,0)" xlink:href="#aI"/><use transform="matrix(0.05,0,0,0.05,21,0)" xlink:href="#aB"/><use transform="matrix(0.05,0,0,0.05,31,0)" xlink:href="#aJ"/><use transform="matrix(0.05,0,0,0.05,36.95,0)" xlink:href="#aK"/><use transform="matrix(0.05,0,0,0.05,45.95,0)" xlink:href="#aA"/><use transform="matrix(0.05,0,0,0.05,49.900000000000006,0)" xlink:href="#aL"/><use transform="matrix(0.05,0,0,0.05,58.900000000000006,0)" xlink:href="#aB"/></g><path d="M212-179c-10-28-35-45-73-45-59 0-87 40-87 99 0 60 29 101 89 101 43 0 62-24 78-52l27 14C228-24 195 4 139 4 59 4 22-46 18-125c-6-104 99-153 187-111 19 9 31 26 39 46" id="bg"/><path d="M106-169C34-169 62-67 57 0H25v-261h32l-1 103c12-21 28-36 61-36 89 0 53 116 60 194h-32v-121c2-32-8-49-39-48" id="bh"/><path d="M141-36C126-15 110 5 73 4 37 3 15-17 15-53c-1-64 63-63 125-63 3-35-9-54-41-54-24 1-41 7-42 31l-33-3c5-37 33-52 76-52 45 0 72 20 72 64v82c-1 20 7 32 28 27v20c-31 9-61-2-59-35zM48-53c0 20 12 33 32 33 41-3 63-29 60-74-43 2-92-5-92 41" id="bi"/><g id="n"><use transform="matrix(0.05,0,0,0.05,0,0)" xlink:href="#bg"/><use transform="matrix(0.05,0,0,0.05,12.950000000000001,0)" xlink:href="#bh"/><use transform="matrix(0.05,0,0,0.05,22.950000000000003,0)" xlink:href="#bi"/><use transform="matrix(0.05,0,0,0.05,32.95,0)" xlink:href="#aF"/></g><path d="M185-189c-5-48-123-54-124 2 14 75 158 14 163 119 3 78-121 87-175 55-17-10-28-26-33-46l33-7c5 56 141 63 141-1 0-78-155-14-162-118-5-82 145-84 179-34 5 7 8 16 11 25" id="bj"/><g id="o"><use transform="matrix(0.05,0,0,0.05,0,0)" xlink:href="#bj"/><use transform="matrix(0.05,0,0,0.05,12,0)" xlink:href="#aB"/><use transform="matrix(0.05,0,0,0.05,22,0)" xlink:href="#bi"/><use transform="matrix(0.05,0,0,0.05,32,0)" xlink:href="#aJ"/><use transform="matrix(0.05,0,0,0.05,37.95,0)" xlink:href="#aK"/><use transform="matrix(0.05,0,0,0.05,46.95,0)" xlink:href="#bh"/></g><path d="M115-194c55 1 70 41 70 98S169 2 115 4C84 4 66-9 55-30l1 105H24l-1-265h31l2 30c10-21 28-34 59-34zm-8 174c40 0 45-34 45-75s-6-73-45-74c-42 0-51 32-51 76 0 43 10 73 51 73" id="bk"/><g id="p"><use transform="matrix(0.05,0,0,0.05,0,0)" xlink:href="#aM"/><use transform="matrix(0.05,0,0,0.05,12.950000000000001,0)" xlink:href="#aB"/><use transform="matrix(0.05,0,0,0.05,22.950000000000003,0)" xlink:href="#bk"/><use transform="matrix(0.05,0,0,0.05,32.95,0)" xlink:href="#bd"/><use transform="matrix(0.05,0,0,0.05,42.95,0)" xlink:href="#aJ"/><use transform="matrix(0.05,0,0,0.05,48.900000000000006,0)" xlink:href="#aF"/></g><path d="M140-251c81 0 123 46 123 126C263-46 219 4 140 4 59 4 17-45 17-125s42-126 123-126zm0 227c63 0 89-41 89-101s-29-99-89-99c-61 0-89 39-89 99S79-25 140-24" id="bl"/><path d="M117-194c89-4 53 116 60 194h-32v-121c0-31-8-49-39-48C34-167 62-67 57 0H25l-1-190h30c1 10-1 24 2 32 11-22 29-35 61-36" id="bm"/><g id="q"><use transform="matrix(0.05,0,0,0.05,0,0)" xlink:href="#bl"/><use transform="matrix(0.05,0,0,0.05,14,0)" xlink:href="#aC"/><use transform="matrix(0.05,0,0,0.05,26.950000000000003,0)" xlink:href="#bm"/></g><path d="M47-170H22l-4-78h33" id="bn"/><g id="r"><use transform="matrix(0.05,0,0,0.05,0,0)" xlink:href="#bl"/><use transform="matrix(0.05,0,0,0.05,14,0)" xlink:href="#aF"/><use transform="matrix(0.05,0,0,0.05,19,0)" xlink:href="#bh"/><use transform="matrix(0.05,0,0,0.05,29,0)" xlink:href="#aB"/><use transform="matrix(0.05,0,0,0.05,39,0)" xlink:href="#aJ"/><use transform="matrix(0.05,0,0,0.05,44.95,0)" xlink:href="#aL"/><use transform="matrix(0.05,0,0,0.05,53.95,0)" xlink:href="#bn"/></g><g id="s"><use transform="matrix(0.05,0,0,0.05,0,0)" xlink:href="#bc"/><use transform="matrix(0.05,0,0,0.05,12,0)" xlink:href="#aJ"/><use transform="matrix(0.05,0,0,0.05,17.95,0)" xlink:href="#bd"/><use transform="matrix(0.05,0,0,0.05,27.950000000000003,0)" xlink:href="#be"/><use transform="matrix(0.05,0,0,0.05,32.95,0)" xlink:href="#aA"/><use transform="matrix(0.05,0,0,0.05,36.900000000000006,0)" xlink:href="#bf"/><use transform="matrix(0.05,0,0,0.05,40.85000000000001,0)" xlink:href="#aB"/><use transform="matrix(0.05,0,0,0.05,50.85000000000001,0)" xlink:href="#aL"/></g><path d="M266 0h-40l-56-210L115 0H75L2-248h35L96-30l15-64 43-154h32l59 218 59-218h35" id="bo"/><g id="t"><use transform="matrix(0.05,0,0,0.05,0,0)" xlink:href="#bo"/><use transform="matrix(0.05,0,0,0.05,16.599999999999998,0)" xlink:href="#aJ"/><use transform="matrix(0.05,0,0,0.05,22.549999999999997,0)" xlink:href="#aA"/><use transform="matrix(0.05,0,0,0.05,26.499999999999996,0)" xlink:href="#aF"/><use transform="matrix(0.05,0,0,0.05,31.499999999999996,0)" xlink:href="#aA"/><use transform="matrix(0.05,0,0,0.05,35.449999999999996,0)" xlink:href="#bm"/><use transform="matrix(0.05,0,0,0.05,45.449999999999996,0)" xlink:href="#aN"/></g><g id="u"><use transform="matrix(0.05,0,0,0.05,0,0)" xlink:href="#aD"/><use transform="matrix(0.05,0,0,0.05,10,0)" xlink:href="#aA"/><use transform="matrix(0.05,0,0,0.05,13.949999999999998,0)" xlink:href="#aL"/><use transform="matrix(0.05,0,0,0.05,22.95,0)" xlink:href="#aF"/><use transform="matrix(0.05,0,0,0.05,27.950000000000003,0)" xlink:href="#aB"/><use transform="matrix(0.05,0,0,0.05,37.95,0)" xlink:href="#bm"/><use transform="matrix(0.05,0,0,0.05,47.95,0)" xlink:href="#aA"/><use transform="matrix(0.05,0,0,0.05,51.900000000000006,0)" xlink:href="#bm"/><use transform="matrix(0.05,0,0,0.05,61.900000000000006,0)" xlink:href="#aN"/></g><path d="M143 0L79-87 56-68V0H24v-261h32v163l83-92h37l-77 82L181 0h-38" id="bp"/><g id="v"><use transform="matrix(0.05,0,0,0.05,0,0)" xlink:href="#bj"/><use transform="matrix(0.05,0,0,0.05,12,0)" xlink:href="#bk"/><use transform="matrix(0.05,0,0,0.05,22,0)" xlink:href="#aB"/><use transform="matrix(0.05,0,0,0.05,32,0)" xlink:href="#bi"/><use transform="matrix(0.05,0,0,0.05,42,0)" xlink:href="#bp"/><use transform="matrix(0.05,0,0,0.05,51,0)" xlink:href="#aA"/><use transform="matrix(0.05,0,0,0.05,54.95,0)" xlink:href="#bm"/><use transform="matrix(0.05,0,0,0.05,64.95,0)" xlink:href="#aN"/></g><path d="M143 4C61 4 22-44 18-125c-5-107 100-154 193-111 17 8 29 25 37 43l-32 9c-13-25-37-40-76-40-61 0-88 39-88 99 0 61 29 100 91 101 35 0 62-11 79-27v-45h-74v-28h105v86C228-13 192 4 143 4" id="bq"/><g id="w"><use transform="matrix(0.05,0,0,0.05,0,0)" xlink:href="#bq"/><use transform="matrix(0.05,0,0,0.05,14,0)" xlink:href="#aJ"/><use transform="matrix(0.05,0,0,0.05,19.95,0)" xlink:href="#bi"/><use transform="matrix(0.05,0,0,0.05,29.950000000000003,0)" xlink:href="#aE"/><use transform="matrix(0.05,0,0,0.05,44.9,0)" xlink:href="#aE"/><use transform="matrix(0.05,0,0,0.05,59.85,0)" xlink:href="#aB"/><use transform="matrix(0.05,0,0,0.05,69.85,0)" xlink:href="#aJ"/></g><g id="x"><use transform="matrix(0.05,0,0,0.05,0,0)" xlink:href="#aM"/><use transform="matrix(0.05,0,0,0.05,12.950000000000001,0)" xlink:href="#aB"/><use transform="matrix(0.05,0,0,0.05,22.950000000000003,0)" xlink:href="#bi"/><use transform="matrix(0.05,0,0,0.05,32.95,0)" xlink:href="#aG"/><use transform="matrix(0.05,0,0,0.05,42.95,0)" xlink:href="#aA"/><use transform="matrix(0.05,0,0,0.05,46.900000000000006,0)" xlink:href="#bm"/><use transform="matrix(0.05,0,0,0.05,56.900000000000006,0)" xlink:href="#aN"/></g><path d="M84 4C-5 8 30-112 23-190h32v120c0 31 7 50 39 49 72-2 45-101 50-169h31l1 190h-30c-1-10 1-25-2-33-11 22-28 36-60 37" id="br"/><g id="y"><use transform="matrix(0.05,0,0,0.05,0,0)" xlink:href="#aD"/><use transform="matrix(0.05,0,0,0.05,10,0)" xlink:href="#bi"/><use transform="matrix(0.05,0,0,0.05,20,0)" xlink:href="#bm"/><use transform="matrix(0.05,0,0,0.05,30,0)" xlink:href="#aN"/><use transform="matrix(0.05,0,0,0.05,40,0)" xlink:href="#br"/><use transform="matrix(0.05,0,0,0.05,50,0)" xlink:href="#bi"/><use transform="matrix(0.05,0,0,0.05,60,0)" xlink:href="#aN"/><use transform="matrix(0.05,0,0,0.05,70,0)" xlink:href="#aB"/></g><g id="z"><use transform="matrix(0.05,0,0,0.05,0,0)" xlink:href="#bj"/><use transform="matrix(0.05,0,0,0.05,12,0)" xlink:href="#aB"/><use transform="matrix(0.05,0,0,0.05,22,0)" xlink:href="#bf"/><use transform="matrix(0.05,0,0,0.05,25.950000000000003,0)" xlink:href="#aB"/><use transform="matrix(0.05,0,0,0.05,35.95,0)" xlink:href="#aK"/><use transform="matrix(0.05,0,0,0.05,44.95,0)" xlink:href="#aF"/><use transform="matrix(0.05,0,0,0.05,49.95,0)" xlink:href="#aA"/><use transform="matrix(0.05,0,0,0.05,53.900000000000006,0)" xlink:href="#bd"/><use transform="matrix(0.05,0,0,0.05,63.900000000000006,0)" xlink:href="#bm"/></g><g id="A"><use transform="matrix(0.03776734451659963,0,0,0.03776734451659963,0,0)" xlink:href="#aD"/><use transform="matrix(0.03776734451659963,0,0,0.03776734451659963,7.553468903319926,0)" xlink:href="#bi"/><use transform="matrix(0.03776734451659963,0,0,0.03776734451659963,15.106937806639852,0)" xlink:href="#bm"/><use transform="matrix(0.03776734451659963,0,0,0.03776734451659963,22.66040670995978,0)" xlink:href="#aN"/><use transform="matrix(0.03776734451659963,0,0,0.03776734451659963,30.213875613279704,0)" xlink:href="#br"/><use transform="matrix(0.03776734451659963,0,0,0.03776734451659963,37.76734451659963,0)" xlink:href="#bi"/><use transform="matrix(0.03776734451659963,0,0,0.03776734451659963,45.32081341991955,0)" xlink:href="#aN"/><use transform="matrix(0.03776734451659963,0,0,0.03776734451659963,52.87428232323948,0)" xlink:href="#aB"/></g><g id="B"><use transform="matrix(0.03776734451659963,0,0,0.03776734451659963,0,0)" xlink:href="#bg"/><use transform="matrix(0.03776734451659963,0,0,0.03776734451659963,9.781742229799304,0)" xlink:href="#bh"/><use transform="matrix(0.03776734451659963,0,0,0.03776734451659963,17.33521113311923,0)" xlink:href="#bi"/><use transform="matrix(0.03776734451659963,0,0,0.03776734451659963,24.888680036439155,0)" xlink:href="#bm"/><use transform="matrix(0.03776734451659963,0,0,0.03776734451659963,32.44214893975908,0)" xlink:href="#aN"/><use transform="matrix(0.03776734451659963,0,0,0.03776734451659963,39.995617843079,0)" xlink:href="#aB"/></g><path fill="#c92d39" d="M24-231v-30h32v30H24zM24 0v-190h32V0H24" id="bs"/><path fill="#c92d39" d="M96-169c-40 0-48 33-48 73s9 75 48 75c24 0 41-14 43-38l32 2c-6 37-31 61-74 61-59 0-76-41-82-99-10-93 101-131 147-64 4 7 5 14 7 22l-32 3c-4-21-16-35-41-35" id="bt"/><path fill="#c92d39" d="M24 0v-261h32V0H24" id="bu"/><path fill="#c92d39" d="M84 4C-5 8 30-112 23-190h32v120c0 31 7 50 39 49 72-2 45-101 50-169h31l1 190h-30c-1-10 1-25-2-33-11 22-28 36-60 37" id="bv"/><g id="C"><use transform="matrix(0.04320987654320988,0,0,0.04320987654320988,0,0)" xlink:href="#aO"/><use transform="matrix(0.04320987654320988,0,0,0.04320987654320988,9.074074074074074,0)" xlink:href="#aO"/><use transform="matrix(0.04320987654320988,0,0,0.04320987654320988,18.14814814814815,0)" xlink:href="#bs"/><use transform="matrix(0.04320987654320988,0,0,0.04320987654320988,21.561728395061728,0)" xlink:href="#aS"/><use transform="matrix(0.04320987654320988,0,0,0.04320987654320988,30.203703703703702,0)" xlink:href="#bt"/><use transform="matrix(0.04320987654320988,0,0,0.04320987654320988,37.98148148148148,0)" xlink:href="#bu"/><use transform="matrix(0.04320987654320988,0,0,0.04320987654320988,41.39506172839506,0)" xlink:href="#bv"/><use transform="matrix(0.04320987654320988,0,0,0.04320987654320988,50.037037037037045,0)" xlink:href="#aT"/><use transform="matrix(0.04320987654320988,0,0,0.04320987654320988,58.679012345679006,0)" xlink:href="#aP"/><use transform="matrix(0.04320987654320988,0,0,0.04320987654320988,67.32098765432099,0)" xlink:href="#aU"/><use transform="matrix(0.04320987654320988,0,0,0.04320987654320988,76.39506172839506,0)" xlink:href="#aU"/></g><path d="M63-220v92h138v28H63V0H30v-248h175v28H63" id="bw"/><g id="D"><use transform="matrix(0.05,0,0,0.05,0,0)" xlink:href="#bw"/><use transform="matrix(0.05,0,0,0.05,10.950000000000001,0)" xlink:href="#aA"/><use transform="matrix(0.05,0,0,0.05,14.9,0)" xlink:href="#bm"/><use transform="matrix(0.05,0,0,0.05,24.900000000000002,0)" xlink:href="#aG"/></g><g id="E"><use transform="matrix(0.05,0,0,0.05,0,0)" xlink:href="#aH"/><use transform="matrix(0.05,0,0,0.05,12,0)" xlink:href="#aI"/><use transform="matrix(0.05,0,0,0.05,21,0)" xlink:href="#bk"/><use transform="matrix(0.05,0,0,0.05,31,0)" xlink:href="#aB"/><use transform="matrix(0.05,0,0,0.05,41,0)" xlink:href="#aJ"/><use transform="matrix(0.05,0,0,0.05,46.95,0)" xlink:href="#aF"/></g><g id="F"><use transform="matrix(0.05,0,0,0.05,0,0)" xlink:href="#aM"/><use transform="matrix(0.05,0,0,0.05,12.950000000000001,0)" xlink:href="#aB"/><use transform="matrix(0.05,0,0,0.05,22.950000000000003,0)" xlink:href="#aK"/><use transform="matrix(0.05,0,0,0.05,31.950000000000003,0)" xlink:href="#bd"/><use transform="matrix(0.05,0,0,0.05,41.95,0)" xlink:href="#aE"/><use transform="matrix(0.05,0,0,0.05,56.900000000000006,0)" xlink:href="#aE"/><use transform="matrix(0.05,0,0,0.05,71.85000000000001,0)" xlink:href="#aB"/><use transform="matrix(0.05,0,0,0.05,81.85000000000001,0)" xlink:href="#bm"/><use transform="matrix(0.05,0,0,0.05,91.85000000000001,0)" xlink:href="#aG"/></g><g id="G"><use transform="matrix(0.05,0,0,0.05,0,0)" xlink:href="#aH"/><use transform="matrix(0.05,0,0,0.05,12,0)" xlink:href="#aI"/><use transform="matrix(0.05,0,0,0.05,21,0)" xlink:href="#bk"/><use transform="matrix(0.05,0,0,0.05,31,0)" xlink:href="#aB"/><use transform="matrix(0.05,0,0,0.05,41,0)" xlink:href="#aJ"/><use transform="matrix(0.05,0,0,0.05,46.95,0)" xlink:href="#aF"/></g><g id="H"><use transform="matrix(0.05,0,0,0.05,0,0)" xlink:href="#bj"/><use transform="matrix(0.05,0,0,0.05,12,0)" xlink:href="#aB"/><use transform="matrix(0.05,0,0,0.05,22,0)" xlink:href="#bi"/><use transform="matrix(0.05,0,0,0.05,32,0)" xlink:href="#aJ"/><use transform="matrix(0.05,0,0,0.05,37.95,0)" xlink:href="#aK"/><use transform="matrix(0.05,0,0,0.05,46.95,0)" xlink:href="#bh"/></g><g id="I"><use transform="matrix(0.05,0,0,0.05,0,0)" xlink:href="#bj"/><use transform="matrix(0.05,0,0,0.05,12,0)" xlink:href="#aB"/><use transform="matrix(0.05,0,0,0.05,22,0)" xlink:href="#bm"/><use transform="matrix(0.05,0,0,0.05,32,0)" xlink:href="#aG"/></g><path d="M179-190L93 31C79 59 56 82 12 73V49c39 6 53-20 64-50L1-190h34L92-34l54-156h33" id="bx"/><g id="J"><use transform="matrix(0.05,0,0,0.05,0,0)" xlink:href="#aH"/><use transform="matrix(0.05,0,0,0.05,12,0)" xlink:href="#aL"/><use transform="matrix(0.05,0,0,0.05,21,0)" xlink:href="#aL"/><use transform="matrix(0.05,0,0,0.05,30,0)" xlink:href="#bi"/><use transform="matrix(0.05,0,0,0.05,40,0)" xlink:href="#bx"/></g><path d="M205 0l-28-72H64L36 0H1l101-248h38L239 0h-34zm-38-99l-47-123c-12 45-31 82-46 123h93" id="by"/><g id="K"><use transform="matrix(0.05,0,0,0.05,0,0)" xlink:href="#by"/><use transform="matrix(0.05,0,0,0.05,12,0)" xlink:href="#bm"/><use transform="matrix(0.05,0,0,0.05,22,0)" xlink:href="#bm"/><use transform="matrix(0.05,0,0,0.05,32,0)" xlink:href="#bd"/><use transform="matrix(0.05,0,0,0.05,42,0)" xlink:href="#aF"/><use transform="matrix(0.05,0,0,0.05,47,0)" xlink:href="#bi"/><use transform="matrix(0.05,0,0,0.05,57,0)" xlink:href="#aF"/><use transform="matrix(0.05,0,0,0.05,62,0)" xlink:href="#aA"/><use transform="matrix(0.05,0,0,0.05,65.95,0)" xlink:href="#bd"/><use transform="matrix(0.05,0,0,0.05,75.95,0)" xlink:href="#bm"/></g><g id="L"><use transform="matrix(0.05,0,0,0.05,0,0)" xlink:href="#bg"/><use transform="matrix(0.05,0,0,0.05,12.950000000000001,0)" xlink:href="#bh"/><use transform="matrix(0.05,0,0,0.05,22.950000000000003,0)" xlink:href="#bi"/><use transform="matrix(0.05,0,0,0.05,32.95,0)" xlink:href="#aF"/></g><g id="M"><use transform="matrix(0.05,0,0,0.05,0,0)" xlink:href="#aC"/><use transform="matrix(0.05,0,0,0.05,12.950000000000001,0)" xlink:href="#aA"/><use transform="matrix(0.05,0,0,0.05,16.900000000000002,0)" xlink:href="#aF"/><use transform="matrix(0.05,0,0,0.05,21.900000000000002,0)" xlink:href="#bh"/></g><path d="M30-248c118-7 216 8 213 122C240-48 200 0 122 0H30v-248zM63-27c89 8 146-16 146-99s-60-101-146-95v194" id="bz"/><g id="N"><use transform="matrix(0.05,0,0,0.05,0,0)" xlink:href="#bz"/><use transform="matrix(0.05,0,0,0.05,12.950000000000001,0)" xlink:href="#aJ"/><use transform="matrix(0.05,0,0,0.05,18.900000000000002,0)" xlink:href="#bi"/><use transform="matrix(0.05,0,0,0.05,28.900000000000002,0)" xlink:href="#be"/><use transform="matrix(0.05,0,0,0.05,33.900000000000006,0)" xlink:href="#aF"/><use transform="matrix(0.05,0,0,0.05,38.900000000000006,0)" xlink:href="#aL"/></g><g id="O"><use transform="matrix(0.05,0,0,0.05,0,0)" xlink:href="#bg"/><use transform="matrix(0.05,0,0,0.05,12.950000000000001,0)" xlink:href="#aJ"/><use transform="matrix(0.05,0,0,0.05,18.900000000000002,0)" xlink:href="#aB"/><use transform="matrix(0.05,0,0,0.05,28.900000000000002,0)" xlink:href="#bi"/><use transform="matrix(0.05,0,0,0.05,38.900000000000006,0)" xlink:href="#aF"/><use transform="matrix(0.05,0,0,0.05,43.900000000000006,0)" xlink:href="#aB"/></g><path d="M190 0L58-211 59 0H30v-248h39L202-35l-2-213h31V0h-41" id="bA"/><g id="P"><use transform="matrix(0.05,0,0,0.05,0,0)" xlink:href="#bA"/><use transform="matrix(0.05,0,0,0.05,12.950000000000001,0)" xlink:href="#aB"/><use transform="matrix(0.05,0,0,0.05,22.950000000000003,0)" xlink:href="#aC"/></g><g id="Q"><use transform="matrix(0.05,0,0,0.05,0,0)" xlink:href="#bg"/><use transform="matrix(0.05,0,0,0.05,12.950000000000001,0)" xlink:href="#bh"/><use transform="matrix(0.05,0,0,0.05,22.950000000000003,0)" xlink:href="#bi"/><use transform="matrix(0.05,0,0,0.05,32.95,0)" xlink:href="#aF"/></g><g id="R"><use transform="matrix(0.05,0,0,0.05,0,0)" xlink:href="#az"/><use transform="matrix(0.05,0,0,0.05,11.65,0)" xlink:href="#aA"/><use transform="matrix(0.05,0,0,0.05,15.600000000000001,0)" xlink:href="#aB"/><use transform="matrix(0.05,0,0,0.05,25.6,0)" xlink:href="#aC"/></g><g id="S"><use transform="matrix(0.05,0,0,0.05,0,0)" xlink:href="#bg"/><use transform="matrix(0.05,0,0,0.05,12.950000000000001,0)" xlink:href="#bh"/><use transform="matrix(0.05,0,0,0.05,22.950000000000003,0)" xlink:href="#bi"/><use transform="matrix(0.05,0,0,0.05,32.95,0)" xlink:href="#aF"/><use transform="matrix(0.05,0,0,0.05,37.95,0)" xlink:href="#aL"/></g><g id="T"><use transform="matrix(0.05,0,0,0.05,0,0)" xlink:href="#bb"/><use transform="matrix(0.05,0,0,0.05,12.950000000000001,0)" xlink:href="#aL"/><use transform="matrix(0.05,0,0,0.05,21.950000000000003,0)" xlink:href="#aB"/><use transform="matrix(0.05,0,0,0.05,31.950000000000003,0)" xlink:href="#aJ"/></g><path d="M108 0H70L1-190h34L89-25l56-165h34" id="bB"/><g id="U"><use transform="matrix(0.05,0,0,0.05,0,0)" xlink:href="#bA"/><use transform="matrix(0.05,0,0,0.05,12.950000000000001,0)" xlink:href="#bi"/><use transform="matrix(0.05,0,0,0.05,22.950000000000003,0)" xlink:href="#aF"/><use transform="matrix(0.05,0,0,0.05,27.950000000000003,0)" xlink:href="#aA"/><use transform="matrix(0.05,0,0,0.05,31.900000000000002,0)" xlink:href="#bB"/><use transform="matrix(0.05,0,0,0.05,40.900000000000006,0)" xlink:href="#aB"/></g><g id="V"><use transform="matrix(0.05,0,0,0.05,0,0)" xlink:href="#bj"/><use transform="matrix(0.05,0,0,0.05,12,0)" xlink:href="#aB"/><use transform="matrix(0.05,0,0,0.05,22,0)" xlink:href="#bi"/><use transform="matrix(0.05,0,0,0.05,32,0)" xlink:href="#aJ"/><use transform="matrix(0.05,0,0,0.05,37.95,0)" xlink:href="#aK"/><use transform="matrix(0.05,0,0,0.05,46.95,0)" xlink:href="#bh"/></g><g id="W"><use transform="matrix(0.05,0,0,0.05,0,0)" xlink:href="#bb"/><use transform="matrix(0.05,0,0,0.05,12.950000000000001,0)" xlink:href="#aL"/><use transform="matrix(0.05,0,0,0.05,21.950000000000003,0)" xlink:href="#aB"/><use transform="matrix(0.05,0,0,0.05,31.950000000000003,0)" xlink:href="#aJ"/></g><g id="X"><use transform="matrix(0.05,0,0,0.05,0,0)" xlink:href="#by"/><use transform="matrix(0.05,0,0,0.05,12,0)" xlink:href="#aG"/><use transform="matrix(0.05,0,0,0.05,22,0)" xlink:href="#bB"/><use transform="matrix(0.05,0,0,0.05,31,0)" xlink:href="#bi"/><use transform="matrix(0.05,0,0,0.05,41,0)" xlink:href="#bm"/><use transform="matrix(0.05,0,0,0.05,51,0)" xlink:href="#aK"/><use transform="matrix(0.05,0,0,0.05,60,0)" xlink:href="#aB"/><use transform="matrix(0.05,0,0,0.05,70,0)" xlink:href="#aG"/></g><g id="Y"><use transform="matrix(0.05,0,0,0.05,0,0)" xlink:href="#bj"/><use transform="matrix(0.05,0,0,0.05,12,0)" xlink:href="#aB"/><use transform="matrix(0.05,0,0,0.05,22,0)" xlink:href="#bi"/><use transform="matrix(0.05,0,0,0.05,32,0)" xlink:href="#aJ"/><use transform="matrix(0.05,0,0,0.05,37.95,0)" xlink:href="#aK"/><use transform="matrix(0.05,0,0,0.05,46.95,0)" xlink:href="#bh"/></g><g id="Z"><use transform="matrix(0.05,0,0,0.05,0,0)" xlink:href="#bj"/><use transform="matrix(0.05,0,0,0.05,12,0)" xlink:href="#aB"/><use transform="matrix(0.05,0,0,0.05,22,0)" xlink:href="#aE"/><use transform="matrix(0.05,0,0,0.05,36.95,0)" xlink:href="#bi"/><use transform="matrix(0.05,0,0,0.05,46.95,0)" xlink:href="#bm"/><use transform="matrix(0.05,0,0,0.05,56.95,0)" xlink:href="#aF"/><use transform="matrix(0.05,0,0,0.05,61.95,0)" xlink:href="#aA"/><use transform="matrix(0.05,0,0,0.05,65.9,0)" xlink:href="#aK"/></g><g id="aa"><use transform="matrix(0.05,0,0,0.05,0,0)" xlink:href="#bj"/><use transform="matrix(0.05,0,0,0.05,12,0)" xlink:href="#aB"/><use transform="matrix(0.05,0,0,0.05,22,0)" xlink:href="#bi"/><use transform="matrix(0.05,0,0,0.05,32,0)" xlink:href="#aJ"/><use transform="matrix(0.05,0,0,0.05,37.95,0)" xlink:href="#aK"/><use transform="matrix(0.05,0,0,0.05,46.95,0)" xlink:href="#bh"/></g><path d="M115-194c53 0 69 39 70 98 0 66-23 100-70 100C84 3 66-7 56-30L54 0H23l1-261h32v101c10-23 28-34 59-34zm-8 174c40 0 45-34 45-75 0-40-5-75-45-74-42 0-51 32-51 76 0 43 10 73 51 73" id="bC"/><g id="ab"><use transform="matrix(0.05,0,0,0.05,0,0)" xlink:href="#bC"/><use transform="matrix(0.05,0,0,0.05,10,0)" xlink:href="#bx"/></g><path d="M127-220V0H93v-220H8v-28h204v28h-85" id="bD"/><g id="ac"><use transform="matrix(0.05,0,0,0.05,0,0)" xlink:href="#bD"/><use transform="matrix(0.05,0,0,0.05,9.950000000000001,0)" xlink:href="#bx"/><use transform="matrix(0.05,0,0,0.05,18.950000000000003,0)" xlink:href="#bk"/><use transform="matrix(0.05,0,0,0.05,28.950000000000003,0)" xlink:href="#aB"/></g><g id="ad"><use transform="matrix(0.05,0,0,0.05,0,0)" xlink:href="#bD"/><use transform="matrix(0.05,0,0,0.05,8.950000000000001,0)" xlink:href="#bd"/><use transform="matrix(0.05,0,0,0.05,18.950000000000003,0)" xlink:href="#bk"/><use transform="matrix(0.05,0,0,0.05,28.950000000000003,0)" xlink:href="#aA"/><use transform="matrix(0.05,0,0,0.05,32.900000000000006,0)" xlink:href="#aK"/></g><g id="ae"><use transform="matrix(0.05,0,0,0.05,0,0)" xlink:href="#bj"/><use transform="matrix(0.05,0,0,0.05,12,0)" xlink:href="#aB"/><use transform="matrix(0.05,0,0,0.05,22,0)" xlink:href="#bi"/><use transform="matrix(0.05,0,0,0.05,32,0)" xlink:href="#aK"/><use transform="matrix(0.05,0,0,0.05,41,0)" xlink:href="#bh"/></g><g id="af"><use transform="matrix(0.05,0,0,0.05,0,0)" xlink:href="#bz"/><use transform="matrix(0.05,0,0,0.05,12.950000000000001,0)" xlink:href="#aA"/><use transform="matrix(0.05,0,0,0.05,16.900000000000002,0)" xlink:href="#be"/><use transform="matrix(0.05,0,0,0.05,21.55,0)" xlink:href="#be"/><use transform="matrix(0.05,0,0,0.05,26.55,0)" xlink:href="#aA"/><use transform="matrix(0.05,0,0,0.05,30.5,0)" xlink:href="#aK"/><use transform="matrix(0.05,0,0,0.05,39.5,0)" xlink:href="#br"/><use transform="matrix(0.05,0,0,0.05,49.5,0)" xlink:href="#bf"/><use transform="matrix(0.05,0,0,0.05,53.45,0)" xlink:href="#aF"/><use transform="matrix(0.05,0,0,0.05,58.45,0)" xlink:href="#bx"/></g><path d="M194 0L95-120 63-95V0H30v-248h33v124l119-124h40L117-140 236 0h-42" id="bE"/><g id="ag"><use transform="matrix(0.05,0,0,0.05,0,0)" xlink:href="#bE"/><use transform="matrix(0.05,0,0,0.05,12,0)" xlink:href="#aB"/><use transform="matrix(0.05,0,0,0.05,22,0)" xlink:href="#bx"/><use transform="matrix(0.05,0,0,0.05,31,0)" xlink:href="#aC"/><use transform="matrix(0.05,0,0,0.05,43.95,0)" xlink:href="#bd"/><use transform="matrix(0.05,0,0,0.05,53.95,0)" xlink:href="#aJ"/><use transform="matrix(0.05,0,0,0.05,59.900000000000006,0)" xlink:href="#aG"/></g><g id="ah"><use transform="matrix(0.05,0,0,0.05,0,0)" xlink:href="#bD"/><use transform="matrix(0.05,0,0,0.05,8.950000000000001,0)" xlink:href="#bi"/><use transform="matrix(0.05,0,0,0.05,18.950000000000003,0)" xlink:href="#aN"/></g><g id="ai"><use transform="matrix(0.05,0,0,0.05,0,0)" xlink:href="#by"/><use transform="matrix(0.05,0,0,0.05,12,0)" xlink:href="#bC"/><use transform="matrix(0.05,0,0,0.05,22,0)" xlink:href="#br"/><use transform="matrix(0.05,0,0,0.05,32,0)" xlink:href="#aL"/><use transform="matrix(0.05,0,0,0.05,41,0)" xlink:href="#aA"/><use transform="matrix(0.05,0,0,0.05,44.95,0)" xlink:href="#bB"/><use transform="matrix(0.05,0,0,0.05,53.95,0)" xlink:href="#aB"/></g><g id="aj"><use transform="matrix(0.05,0,0,0.05,0,0)" xlink:href="#bg"/><use transform="matrix(0.05,0,0,0.05,12.950000000000001,0)" xlink:href="#bd"/><use transform="matrix(0.05,0,0,0.05,22.950000000000003,0)" xlink:href="#bm"/><use transform="matrix(0.05,0,0,0.05,32.95,0)" xlink:href="#aF"/><use transform="matrix(0.05,0,0,0.05,37.95,0)" xlink:href="#aB"/><use transform="matrix(0.05,0,0,0.05,47.95,0)" xlink:href="#bm"/><use transform="matrix(0.05,0,0,0.05,57.95,0)" xlink:href="#aF"/></g><path fill="#666" d="M183 0l-10-63H79L44 0H-7l138-248h61L234 0h-51zm-14-102l-15-108c-16 38-36 73-55 108h70" id="bF"/><path fill="#666" d="M250-142C247-53 197 0 108 0H6l48-248c105-5 200 3 196 106zm-49 2c1-57-42-72-103-68L66-40c84 6 135-22 135-100" id="bG"/><path fill="#666" d="M212 0l43-212L151 0h-37L90-212C82-137 65-70 52 0H6l48-248h70l20 187 93-187h69L258 0h-46" id="bH"/><path fill="#666" d="M6 0l48-248h52L58 0H6" id="bI"/><path fill="#666" d="M155 0L90-199 52 0H6l48-248h62l66 201 38-201h46L218 0h-63" id="bJ"/><g id="ak"><use transform="matrix(0.04320987654320988,0,0,0.04320987654320988,0,0)" xlink:href="#bF"/><use transform="matrix(0.04320987654320988,0,0,0.04320987654320988,11.19135802469136,0)" xlink:href="#bG"/><use transform="matrix(0.04320987654320988,0,0,0.04320987654320988,22.38271604938272,0)" xlink:href="#bH"/><use transform="matrix(0.04320987654320988,0,0,0.04320987654320988,35.302469135802475,0)" xlink:href="#bI"/><use transform="matrix(0.04320987654320988,0,0,0.04320987654320988,39.62345679012346,0)" xlink:href="#bJ"/></g><g id="al"><use transform="matrix(0.05,0,0,0.05,0,0)" xlink:href="#aM"/><use transform="matrix(0.05,0,0,0.05,12.950000000000001,0)" xlink:href="#aB"/><use transform="matrix(0.05,0,0,0.05,22.950000000000003,0)" xlink:href="#aE"/><use transform="matrix(0.05,0,0,0.05,37.900000000000006,0)" xlink:href="#bd"/><use transform="matrix(0.05,0,0,0.05,47.900000000000006,0)" xlink:href="#bB"/><use transform="matrix(0.05,0,0,0.05,56.900000000000006,0)" xlink:href="#aB"/></g><g id="am"><use transform="matrix(0.05,0,0,0.05,0,0)" xlink:href="#by"/><use transform="matrix(0.05,0,0,0.05,12,0)" xlink:href="#bC"/><use transform="matrix(0.05,0,0,0.05,22,0)" xlink:href="#br"/><use transform="matrix(0.05,0,0,0.05,32,0)" xlink:href="#aL"/><use transform="matrix(0.05,0,0,0.05,41,0)" xlink:href="#aA"/><use transform="matrix(0.05,0,0,0.05,44.95,0)" xlink:href="#bB"/><use transform="matrix(0.05,0,0,0.05,53.95,0)" xlink:href="#aB"/></g><g id="an"><use transform="matrix(0.05,0,0,0.05,0,0)" xlink:href="#bb"/><use transform="matrix(0.05,0,0,0.05,12.950000000000001,0)" xlink:href="#aL"/><use transform="matrix(0.05,0,0,0.05,21.950000000000003,0)" xlink:href="#aB"/><use transform="matrix(0.05,0,0,0.05,31.950000000000003,0)" xlink:href="#aJ"/><use transform="matrix(0.05,0,0,0.05,37.900000000000006,0)" xlink:href="#aL"/><use transform="matrix(0.05,0,0,0.05,46.900000000000006,0)" xlink:href="#bn"/></g><g id="ao"><use transform="matrix(0.05,0,0,0.05,0,0)" xlink:href="#aM"/><use transform="matrix(0.05,0,0,0.05,12.950000000000001,0)" xlink:href="#aB"/><use transform="matrix(0.05,0,0,0.05,22.950000000000003,0)" xlink:href="#bk"/><use transform="matrix(0.05,0,0,0.05,32.95,0)" xlink:href="#bd"/><use transform="matrix(0.05,0,0,0.05,42.95,0)" xlink:href="#aJ"/><use transform="matrix(0.05,0,0,0.05,48.900000000000006,0)" xlink:href="#aF"/><use transform="matrix(0.05,0,0,0.05,53.900000000000006,0)" xlink:href="#aL"/></g><g id="ap"><use transform="matrix(0.05,0,0,0.05,0,0)" xlink:href="#by"/><use transform="matrix(0.05,0,0,0.05,12,0)" xlink:href="#bC"/><use transform="matrix(0.05,0,0,0.05,22,0)" xlink:href="#br"/><use transform="matrix(0.05,0,0,0.05,32,0)" xlink:href="#aL"/><use transform="matrix(0.05,0,0,0.05,41,0)" xlink:href="#aA"/><use transform="matrix(0.05,0,0,0.05,44.95,0)" xlink:href="#bB"/><use transform="matrix(0.05,0,0,0.05,53.95,0)" xlink:href="#aB"/></g><g id="aq"><use transform="matrix(0.05,0,0,0.05,0,0)" xlink:href="#bA"/><use transform="matrix(0.05,0,0,0.05,12.950000000000001,0)" xlink:href="#bi"/><use transform="matrix(0.05,0,0,0.05,22.950000000000003,0)" xlink:href="#aE"/><use transform="matrix(0.05,0,0,0.05,37.900000000000006,0)" xlink:href="#aB"/></g><path d="M33 0v-248h34V0H33" id="bK"/><g id="ar"><use transform="matrix(0.05,0,0,0.05,0,0)" xlink:href="#bK"/><use transform="matrix(0.05,0,0,0.05,5,0)" xlink:href="#bm"/><use transform="matrix(0.05,0,0,0.05,15,0)" xlink:href="#aF"/><use transform="matrix(0.05,0,0,0.05,20,0)" xlink:href="#aB"/><use transform="matrix(0.05,0,0,0.05,30,0)" xlink:href="#aJ"/><use transform="matrix(0.05,0,0,0.05,35.95,0)" xlink:href="#aB"/><use transform="matrix(0.05,0,0,0.05,45.95,0)" xlink:href="#aL"/><use transform="matrix(0.05,0,0,0.05,54.95,0)" xlink:href="#aF"/></g><g id="as"><use transform="matrix(0.05,0,0,0.05,0,0)" xlink:href="#aD"/><use transform="matrix(0.05,0,0,0.05,10,0)" xlink:href="#bi"/><use transform="matrix(0.05,0,0,0.05,20,0)" xlink:href="#bm"/><use transform="matrix(0.05,0,0,0.05,30,0)" xlink:href="#aN"/><use transform="matrix(0.05,0,0,0.05,40,0)" xlink:href="#br"/><use transform="matrix(0.05,0,0,0.05,50,0)" xlink:href="#bi"/><use transform="matrix(0.05,0,0,0.05,60,0)" xlink:href="#aN"/><use transform="matrix(0.05,0,0,0.05,70,0)" xlink:href="#aB"/></g></defs></g></svg>